<?xml version="1.0" standalone="no"?>
<!DOCTYPE svg PUBLIC "-//W3C//DTD SVG 20010904//EN"
 "http://www.w3.org/TR/2001/REC-SVG-20010904/DTD/svg10.dtd">
<svg version="1.0" xmlns="http://www.w3.org/2000/svg"
 width="1462.000000pt" height="1462.000000pt" viewBox="0 0 1462.000000 1462.000000"
 preserveAspectRatio="xMidYMid meet">
<metadata>
Created by potrace 1.11, written by Peter Selinger 2001-2013
</metadata>
<g transform="translate(0.000000,1462.000000) scale(0.100000,-0.100000)"
fill="#000000" stroke="none">
<path d="M3452 14605 c-72 -16 -198 -69 -279 -117 -31 -18 -93 -69 -139 -113
-123 -120 -202 -256 -244 -421 -20 -77 -20 -133 -20 -6644 0 -6498 0 -6568 20
-6644 77 -302 286 -523 597 -633 l78 -28 3850 0 3850 0 78 28 c297 105 479
287 584 584 l28 78 0 6615 0 6615 -28 80 c-104 292 -290 478 -582 582 l-80 28
-3825 2 c-3202 1 -3835 -1 -3888 -12z m7706 -84 c132 -31 287 -118 386 -217
111 -112 199 -278 217 -412 6 -51 9 -2253 7 -6637 l-3 -6560 -21 -55 c-57
-148 -117 -243 -211 -333 -135 -130 -282 -198 -471 -217 -75 -8 -1234 -10
-3837 -8 l-3730 3 -99 34 c-240 83 -424 267 -506 506 l-35 100 0 6585 0 6585
33 95 c18 52 50 124 72 160 109 185 310 328 525 375 86 19 7593 15 7673 -4z"/>
<path d="M4095 13900 c-3 -5 -23 -56 -45 -112 -21 -57 -58 -155 -83 -218 -66
-172 -313 -815 -341 -890 -13 -34 -16 -35 -72 -40 l-59 -5 -3 -52 -3 -53 196
0 196 0 -3 53 -3 52 -68 3 c-49 2 -67 7 -64 15 2 7 26 69 52 140 l48 127 286
0 287 0 47 -122 c26 -68 50 -131 53 -140 5 -16 -1 -18 -54 -18 -87 0 -92 -4
-92 -61 l0 -49 261 0 260 0 -3 53 -3 52 -72 3 c-42 2 -73 7 -73 13 0 6 -33 97
-74 202 -41 106 -114 293 -161 417 -201 521 -238 616 -248 628 -11 15 -153 17
-162 2z m72 -333 c96 -242 203 -522 203 -529 0 -4 -108 -8 -240 -8 -132 0
-240 1 -240 3 0 4 78 209 145 382 26 66 57 146 68 177 12 32 24 58 27 58 3 0
20 -37 37 -83z"/>
<path d="M3913 12248 c-82 -18 -159 -126 -183 -258 -34 -189 63 -438 284 -730
62 -81 166 -200 175 -200 13 0 155 179 224 283 75 114 136 228 193 362 36 86
38 95 38 200 0 125 -18 189 -79 268 -64 84 -170 105 -249 50 -47 -33 -101
-117 -118 -182 l-11 -44 -17 54 c-46 149 -141 222 -257 197z"/>
<path d="M6598 8871 c-340 -109 -558 -606 -484 -1101 37 -243 106 -450 237
-713 165 -330 374 -645 658 -991 116 -142 298 -349 310 -354 14 -5 258 286
413 493 280 376 455 679 652 1136 124 289 153 427 143 683 -12 300 -117 560
-295 728 -104 98 -202 138 -339 138 -98 0 -183 -29 -266 -91 -125 -94 -234
-251 -283 -409 l-28 -90 -31 92 c-55 166 -170 331 -288 412 -120 83 -270 108
-399 67z"/>
<path d="M10389 3507 c-247 -282 -394 -558 -407 -763 -13 -216 104 -396 250
-382 81 8 160 88 198 199 10 30 19 45 19 34 3 -62 90 -188 153 -221 68 -36
165 -4 224 73 59 77 78 144 79 268 0 98 -3 117 -29 180 -39 96 -127 270 -172
341 -79 124 -238 324 -257 324 -7 0 -33 -24 -58 -53z"/>
<path d="M9744 2086 c-3 -7 -4 -33 -2 -57 l3 -44 60 -3 60 -3 42 -107 c23 -59
65 -168 93 -242 28 -74 62 -162 75 -195 13 -33 47 -121 75 -195 28 -74 66
-173 84 -220 19 -47 53 -136 77 -197 l44 -113 80 0 81 0 41 102 c23 57 62 157
88 223 48 128 77 202 148 385 25 63 68 176 97 250 28 74 66 173 85 220 l34 85
68 5 68 5 0 55 0 55 -257 3 -258 2 0 -60 0 -60 74 0 75 0 -19 -47 c-10 -27
-34 -88 -53 -138 l-35 -90 -284 -3 -284 -2 -49 132 c-28 72 -51 135 -53 140
-2 4 28 8 67 8 l71 0 0 60 0 60 -195 0 c-158 0 -197 -3 -201 -14z m871 -538
c-8 -18 -38 -94 -66 -168 -67 -179 -137 -359 -151 -390 -10 -24 -11 -24 -28
25 -10 28 -39 104 -65 170 -84 216 -132 340 -144 368 l-11 27 240 0 240 0 -15
-32z"/>
</g>
</svg>
