<svg width="119.092" height="104.631" xmlns:xlink="http://www.w3.org/1999/xlink" xmlns="http://www.w3.org/2000/svg"><defs><radialGradient xlink:href="#a" id="c" cx="115.108" cy="50.985" fx="115.108" fy="50.985" r="59.545" gradientTransform="matrix(1 0 0 .87858 -61.991 -18.55)" gradientUnits="userSpaceOnUse"/><radialGradient xlink:href="#a" id="N" cx="162.577" cy="85.792" fx="162.577" fy="85.792" r="7.526" gradientTransform="matrix(.39926 .11262 -.05638 .19988 105.698 58.677)" gradientUnits="userSpaceOnUse" spreadMethod="reflect"/><radialGradient xlink:href="#b" id="w" gradientUnits="userSpaceOnUse" gradientTransform="matrix(1.63106 0 0 1.42743 -73.033 -17.601)" cx="115.73" cy="50.114" fx="115.73" fy="50.114" r="57.8"/><radialGradient xlink:href="#b" id="x" gradientUnits="userSpaceOnUse" gradientTransform="matrix(1.63106 0 0 1.42743 -73.033 -17.601)" cx="115.73" cy="50.114" fx="115.73" fy="50.114" r="57.8"/><radialGradient xlink:href="#b" id="y" gradientUnits="userSpaceOnUse" gradientTransform="matrix(1.63106 0 0 1.42743 -73.033 -17.601)" cx="115.73" cy="50.114" fx="115.73" fy="50.114" r="57.8"/><radialGradient xlink:href="#b" id="z" gradientUnits="userSpaceOnUse" gradientTransform="matrix(1.63106 0 0 1.42743 -73.033 -17.601)" cx="115.73" cy="50.114" fx="115.73" fy="50.114" r="57.8"/><radialGradient xlink:href="#b" id="A" gradientUnits="userSpaceOnUse" gradientTransform="matrix(1.63106 0 0 1.42743 -73.033 -17.601)" cx="115.73" cy="50.114" fx="115.73" fy="50.114" r="57.8"/><radialGradient xlink:href="#b" id="B" gradientUnits="userSpaceOnUse" gradientTransform="matrix(1.63106 0 0 1.42743 -73.033 -17.601)" cx="115.73" cy="50.114" fx="115.73" fy="50.114" r="57.8"/><radialGradient xlink:href="#b" id="C" gradientUnits="userSpaceOnUse" gradientTransform="matrix(1.63106 0 0 1.42743 -73.033 -17.601)" cx="115.73" cy="50.114" fx="115.73" fy="50.114" r="57.8"/><radialGradient xlink:href="#b" id="v" gradientUnits="userSpaceOnUse" gradientTransform="matrix(1.63106 0 0 1.42743 -73.033 -17.601)" cx="115.73" cy="50.114" fx="115.73" fy="50.114" r="57.8"/><radialGradient xlink:href="#b" id="G" gradientUnits="userSpaceOnUse" gradientTransform="matrix(1.63106 0 0 1.42743 -73.033 -17.601)" cx="115.73" cy="50.114" fx="115.73" fy="50.114" r="57.8"/><radialGradient xlink:href="#b" id="H" gradientUnits="userSpaceOnUse" gradientTransform="matrix(1.63106 0 0 1.42743 -73.033 -17.601)" cx="115.73" cy="50.114" fx="115.73" fy="50.114" r="57.8"/><radialGradient xlink:href="#b" id="I" gradientUnits="userSpaceOnUse" gradientTransform="matrix(1.63106 0 0 1.42743 -73.033 -17.601)" cx="115.73" cy="50.114" fx="115.73" fy="50.114" r="57.8"/><radialGradient xlink:href="#b" id="J" gradientUnits="userSpaceOnUse" gradientTransform="matrix(1.63106 0 0 1.42743 -73.033 -17.601)" cx="115.73" cy="50.114" fx="115.73" fy="50.114" r="57.8"/><radialGradient xlink:href="#b" id="K" gradientUnits="userSpaceOnUse" gradientTransform="matrix(1.63106 0 0 1.42743 -73.033 -17.601)" cx="115.73" cy="50.114" fx="115.73" fy="50.114" r="57.8"/><radialGradient xlink:href="#b" id="L" gradientUnits="userSpaceOnUse" gradientTransform="matrix(1.63106 0 0 1.42743 -73.033 -17.601)" cx="115.73" cy="50.114" fx="115.73" fy="50.114" r="57.8"/><radialGradient xlink:href="#b" id="M" gradientUnits="userSpaceOnUse" gradientTransform="matrix(1.63106 0 0 1.42743 -73.033 -17.601)" cx="115.73" cy="50.114" fx="115.73" fy="50.114" r="57.8"/><radialGradient xlink:href="#b" id="E" gradientUnits="userSpaceOnUse" gradientTransform="matrix(1.63106 0 0 1.42743 -73.033 -17.601)" cx="115.73" cy="50.114" fx="115.73" fy="50.114" r="57.8"/><radialGradient xlink:href="#a" id="e" gradientUnits="userSpaceOnUse" gradientTransform="matrix(1 0 0 .84868 0 12.162)" spreadMethod="reflect" cx="106.439" cy="53.297" fx="106.439" fy="53.297" r="57.569"/><radialGradient xlink:href="#a" id="f" gradientUnits="userSpaceOnUse" gradientTransform="matrix(1 0 0 .84868 0 12.162)" spreadMethod="reflect" cx="106.439" cy="53.297" fx="106.439" fy="53.297" r="57.569"/><radialGradient xlink:href="#a" id="g" gradientUnits="userSpaceOnUse" gradientTransform="matrix(1 0 0 .84868 0 12.162)" spreadMethod="reflect" cx="106.439" cy="53.297" fx="106.439" fy="53.297" r="57.569"/><radialGradient xlink:href="#a" id="h" gradientUnits="userSpaceOnUse" gradientTransform="matrix(1 0 0 .84868 0 12.162)" spreadMethod="reflect" cx="106.439" cy="53.297" fx="106.439" fy="53.297" r="57.569"/><radialGradient xlink:href="#a" id="i" gradientUnits="userSpaceOnUse" gradientTransform="matrix(1 0 0 .84868 0 12.162)" spreadMethod="reflect" cx="106.439" cy="53.297" fx="106.439" fy="53.297" r="57.569"/><radialGradient xlink:href="#a" id="j" gradientUnits="userSpaceOnUse" gradientTransform="matrix(1 0 0 .84868 0 12.162)" spreadMethod="reflect" cx="106.439" cy="53.297" fx="106.439" fy="53.297" r="57.569"/><radialGradient xlink:href="#a" id="k" gradientUnits="userSpaceOnUse" gradientTransform="matrix(1 0 0 .84868 0 12.162)" spreadMethod="reflect" cx="106.439" cy="53.297" fx="106.439" fy="53.297" r="57.569"/><radialGradient xlink:href="#a" id="d" gradientUnits="userSpaceOnUse" gradientTransform="matrix(1 0 0 .84868 0 12.162)" spreadMethod="reflect" cx="106.439" cy="53.297" fx="106.439" fy="53.297" r="57.569"/><radialGradient xlink:href="#a" id="o" gradientUnits="userSpaceOnUse" gradientTransform="matrix(1 0 0 .84868 0 12.162)" spreadMethod="reflect" cx="106.439" cy="53.297" fx="106.439" fy="53.297" r="57.569"/><radialGradient xlink:href="#a" id="p" gradientUnits="userSpaceOnUse" gradientTransform="matrix(1 0 0 .84868 0 12.162)" spreadMethod="reflect" cx="106.439" cy="53.297" fx="106.439" fy="53.297" r="57.569"/><radialGradient xlink:href="#a" id="q" gradientUnits="userSpaceOnUse" gradientTransform="matrix(1 0 0 .84868 0 12.162)" spreadMethod="reflect" cx="106.439" cy="53.297" fx="106.439" fy="53.297" r="57.569"/><radialGradient xlink:href="#a" id="r" gradientUnits="userSpaceOnUse" gradientTransform="matrix(1 0 0 .84868 0 12.162)" spreadMethod="reflect" cx="106.439" cy="53.297" fx="106.439" fy="53.297" r="57.569"/><radialGradient xlink:href="#a" id="s" gradientUnits="userSpaceOnUse" gradientTransform="matrix(1 0 0 .84868 0 12.162)" spreadMethod="reflect" cx="106.439" cy="53.297" fx="106.439" fy="53.297" r="57.569"/><radialGradient xlink:href="#a" id="t" gradientUnits="userSpaceOnUse" gradientTransform="matrix(1 0 0 .84868 0 12.162)" spreadMethod="reflect" cx="106.439" cy="53.297" fx="106.439" fy="53.297" r="57.569"/><radialGradient xlink:href="#a" id="u" gradientUnits="userSpaceOnUse" gradientTransform="matrix(1 0 0 .84868 0 12.162)" spreadMethod="reflect" cx="106.439" cy="53.297" fx="106.439" fy="53.297" r="57.569"/><radialGradient xlink:href="#a" id="m" gradientUnits="userSpaceOnUse" gradientTransform="matrix(1 0 0 .84868 0 12.162)" spreadMethod="reflect" cx="106.439" cy="53.297" fx="106.439" fy="53.297" r="57.569"/><linearGradient id="b"><stop offset="0" stop-color="#9bd345"/><stop offset=".5" stop-color="#6c9a25"/><stop offset="1" stop-color="#72a227"/></linearGradient><linearGradient id="a"><stop offset="0" stop-color="#41b314"/><stop offset=".5" stop-color="#2e800e"/><stop offset="1" stop-color="#26680c"/></linearGradient><linearGradient xlink:href="#a" id="P" x1="168.201" y1="97.892" x2="174.927" y2="97.892" gradientUnits="userSpaceOnUse" gradientTransform="translate(-29.617 -17.152) scale(1.17966)"/><linearGradient xlink:href="#b" id="O" gradientUnits="userSpaceOnUse" gradientTransform="matrix(.58523 -.19573 .15681 .73049 30.956 53.449)" x1="206.245" y1="117.65" x2="215.43" y2="117.65"/><clipPath clipPathUnits="userSpaceOnUse" id="D"/><clipPath clipPathUnits="userSpaceOnUse" id="l"><path d="M114.804 28.347c-4.534.29-9.863.295-14.6 1.496-11.214 2.296-22.325 7.933-28.895 17.464-6.783 9.255-9.314 21.17-9.318 32.321.35 9.37 2.172 18.934 6.987 26.991 6.163 11.087 17.297 18.647 29.024 22.423 12.125 3.91 25.28 4.817 37.608 3.11 14.776-1.37 30.196-7.884 38.272-20.81 11.169-16.836 8.776-40.247-3.258-55.983-12.71-17.51-34.378-27.212-55.82-27.012z" style="line-height:normal;-inkscape-font-specification:Sans;text-indent:0;text-align:start;text-transform:none;marker:none" font-weight="400" color="#000" fill="none" stroke="olive" stroke-width="2.1" overflow="visible" enable-background="accumulate" font-family="Sans"/></clipPath><filter id="F" height="1.024" width="1.021" y="-.012" x="-.01" color-interpolation-filters="sRGB"><feTurbulence type="fractalNoise" numOctaves="3" baseFrequency="0.25 0.4" seed="5"/><feColorMatrix result="result5" values="1 0 0 0 0 0 1 0 0 0 0 0 1 0 0 0 0 0 1 0"/><feComposite in2="result5" in="SourceGraphic" operator="in"/><feMorphology operator="dilate" radius="1.5" result="result3"/><feTurbulence numOctaves="5" baseFrequency=".03" type="fractalNoise" seed="7"/><feGaussianBlur stdDeviation=".5" result="result91"/><feDisplacementMap in2="result91" in="result3" xChannelSelector="R" yChannelSelector="G" scale="27" result="result4"/><feComposite in2="result4" in="result4" k3=".8" k1="1.3" result="result2" operator="arithmetic"/><feBlend in2="result2" mode="screen" in="result2"/></filter><filter id="n" width="1.043" height="1.051" y="-.051" x="-.043" color-interpolation-filters="sRGB"><feTurbulence baseFrequency=".4" type="fractalNoise" numOctaves="5" result="result1"/><feOffset dx="-5" dy="-5" result="result2"/><feDisplacementMap in2="result1" xChannelSelector="R" yChannelSelector="G" scale="30" in="SourceGraphic"/></filter></defs><path style="line-height:normal;-inkscape-font-specification:Sans;text-indent:0;text-align:start;text-transform:none;fill:url(#c);marker:none" d="M52.813.003c-4.534.29-9.863.295-14.6 1.496C27 3.795 15.888 9.432 9.318 18.963 2.535 28.217.004 40.133 0 51.284c.35 9.37 2.172 18.934 6.987 26.991 6.163 11.086 17.297 18.646 29.024 22.423 12.125 3.91 25.28 4.817 37.608 3.11 14.776-1.37 30.196-7.884 38.272-20.81 11.17-16.837 8.776-40.248-3.258-55.983C95.923 9.505 74.255-.197 52.813.003Z" font-weight="400" color="#000" fill="url(#c)" overflow="visible" enable-background="accumulate" font-family="Sans"/><g transform="translate(-61.991 -28.344)" fill="url(#d)" color="#000" style="fill:url(#d)"><path d="M108.234 99.093c-5.611-.427-12.785-1.374-17.321-2.286-13.269-2.669-22.976-7.722-25.979-13.522-1.036-2.002-1.164-2.57-1.164-5.174 0-1.609.165-4.287.366-5.951.338-2.792 1.371-8.219 1.62-8.507.058-.068.865.398 1.793 1.036 3.566 2.454 16.03 8.243 25.328 11.765 13.292 5.033 35.236 11.735 57.997 17.71 7.357 1.932 7.34 1.778.314 2.966-8.257 1.397-15.23 1.885-28.49 1.994-6.973.058-13.482.044-14.464-.03z" style="fill:url(#e);marker:none" fill="url(#e)" overflow="visible" enable-background="accumulate"/><path d="M156.957 91.957c-2.925-3.132-15.97-12.927-26.58-19.96C106.38 56.09 84.925 45.383 77.048 45.383H75.05l1.592-1.637c2.422-2.49 6.608-5.516 9.985-7.22 3.962-1.998 6.861-2.502 10.971-1.908 16.983 2.456 39.22 20.66 53.507 43.8 2.166 3.508 7.308 13.494 7.308 14.192 0 .53-.601.26-1.456-.654z" style="fill:url(#f);marker:none" fill="url(#f)" overflow="visible" enable-background="accumulate"/><path d="M161.15 86.936c-.693-15.934-6.322-30.916-15.944-42.436-4.038-4.835-9.525-9.247-14.856-11.945-2.514-1.273-2.156-1.348 1.753-.37 6.901 1.727 14.123 4.73 19.035 7.913 11.975 7.763 17.421 23.243 14.079 40.018-.608 3.052-2.827 10.283-3.572 11.642-.145.265-.368-1.905-.495-4.822z" style="fill:url(#g);marker:none" fill="url(#g)" overflow="visible" enable-background="accumulate"/><path d="M101.56 127.524c-9.015-1.436-17.324-5.979-24.735-13.524-1.364-1.388-2.405-2.6-2.313-2.692.092-.092.887.276 1.766.818 2.17 1.337 5.628 2.666 9.277 3.566 18.52 4.57 49.61-1.965 68.88-14.477 1.644-1.067 3.042-1.886 3.108-1.82.21.21-3 4.637-5.549 7.651-8.231 9.736-20.96 17-34.653 19.773-4.225.856-12.512 1.226-15.78.705z" style="fill:url(#h);marker:none" fill="url(#h)" overflow="visible" enable-background="accumulate"/><path d="M144.706 127.479c7.967-5.192 13.326-13.895 15.468-25.115l.617-3.23.599 2.5c2.354 9.827 1.3 17.603-2.884 21.277-2.18 1.913-7.637 4.297-13.13 5.735-3.691.966-3.76.846-.67-1.167z" style="fill:url(#i);marker:none" fill="url(#i)" overflow="visible" enable-background="accumulate"/><path d="M171.7 109.06c-.549-1.833-3.427-5.911-6.384-9.046-1.291-1.368-2.207-2.488-2.036-2.489.171 0 2.641.473 5.49 1.051 2.848.58 5.937 1.151 6.864 1.272l1.686.22-.835 2.216c-1.039 2.76-2.775 6.224-3.678 7.34l-.684.845-.423-1.41z" style="fill:url(#j);marker:none" fill="url(#j)" overflow="visible" enable-background="accumulate"/><path d="M165.067 92.616c2.373-2.45 5.177-6.013 6.682-8.49 2.467-4.059 3.468-6.994 4.383-12.85l.223-1.428.507 1.428c1.202 3.39 1.985 7.319 2.034 10.204.049 2.857-.019 3.165-1.013 4.604-1.845 2.671-6.016 5.305-11.545 7.29-1.436.516-2.679.938-2.762.938-.083 0 .588-.763 1.491-1.696z" style="fill:url(#k);marker:none" fill="url(#k)" overflow="visible" enable-background="accumulate"/></g><g transform="translate(-61.991 -28.344)" clip-path="url(#l)" fill="url(#m)" filter="url(#n)" color="#000" style="fill:url(#m)"><path style="fill:url(#o);marker:none" d="M108.234 99.093c-5.611-.427-12.785-1.374-17.321-2.286-13.269-2.669-22.976-7.722-25.979-13.522-1.036-2.002-1.164-2.57-1.164-5.174 0-1.609.165-4.287.366-5.951.338-2.792 1.371-8.219 1.62-8.507.058-.068.865.398 1.793 1.036 3.566 2.454 16.03 8.243 25.328 11.765 13.292 5.033 35.236 11.735 57.997 17.71 7.357 1.932 7.34 1.778.314 2.966-8.257 1.397-15.23 1.885-28.49 1.994-6.973.058-13.482.044-14.464-.03z" fill="url(#o)" overflow="visible" enable-background="accumulate"/><path style="fill:url(#p);marker:none" d="M156.957 91.957c-2.925-3.132-15.97-12.927-26.58-19.96C106.38 56.09 84.925 45.383 77.048 45.383H75.05l1.592-1.637c2.422-2.49 6.608-5.516 9.985-7.22 3.962-1.998 6.861-2.502 10.971-1.908 16.983 2.456 39.22 20.66 53.507 43.8 2.166 3.508 7.308 13.494 7.308 14.192 0 .53-.601.26-1.456-.654z" fill="url(#p)" overflow="visible" enable-background="accumulate"/><path style="fill:url(#q);marker:none" d="M161.15 86.936c-.693-15.934-6.322-30.916-15.944-42.436-4.038-4.835-9.525-9.247-14.856-11.945-2.514-1.273-2.156-1.348 1.753-.37 6.901 1.727 14.123 4.73 19.035 7.913 11.975 7.763 17.421 23.243 14.079 40.018-.608 3.052-2.827 10.283-3.572 11.642-.145.265-.368-1.905-.495-4.822z" fill="url(#q)" overflow="visible" enable-background="accumulate"/><path style="fill:url(#r);marker:none" d="M101.56 127.524c-9.015-1.436-17.324-5.979-24.735-13.524-1.364-1.388-2.405-2.6-2.313-2.692.092-.092.887.276 1.766.818 2.17 1.337 5.628 2.666 9.277 3.566 18.52 4.57 49.61-1.965 68.88-14.477 1.644-1.067 3.042-1.886 3.108-1.82.21.21-3 4.637-5.549 7.651-8.231 9.736-20.96 17-34.653 19.773-4.225.856-12.512 1.226-15.78.705z" fill="url(#r)" overflow="visible" enable-background="accumulate"/><path style="fill:url(#s);marker:none" d="M144.706 127.479c7.967-5.192 13.326-13.895 15.468-25.115l.617-3.23.599 2.5c2.354 9.827 1.3 17.603-2.884 21.277-2.18 1.913-7.637 4.297-13.13 5.735-3.691.966-3.76.846-.67-1.167z" fill="url(#s)" overflow="visible" enable-background="accumulate"/><path style="fill:url(#t);marker:none" d="M171.7 109.06c-.549-1.833-3.427-5.911-6.384-9.046-1.291-1.368-2.207-2.488-2.036-2.489.171 0 2.641.473 5.49 1.051 2.848.58 5.937 1.151 6.864 1.272l1.686.22-.835 2.216c-1.039 2.76-2.775 6.224-3.678 7.34l-.684.845-.423-1.41z" fill="url(#t)" overflow="visible" enable-background="accumulate"/><path style="fill:url(#u);marker:none" d="M165.067 92.616c2.373-2.45 5.177-6.013 6.682-8.49 2.467-4.059 3.468-6.994 4.383-12.85l.223-1.428.507 1.428c1.202 3.39 1.985 7.319 2.034 10.204.049 2.857-.019 3.165-1.013 4.604-1.845 2.671-6.016 5.305-11.545 7.29-1.436.516-2.679.938-2.762.938-.083 0 .588-.763 1.491-1.696z" fill="url(#u)" overflow="visible" enable-background="accumulate"/></g><g transform="translate(-63.693 -29.472) scale(1.01398)" fill="url(#v)" color="#000" style="fill:url(#v)"><path d="M94.316 115.704a50.937 50.937 0 0 1-9.932-1.67c-5.121-1.378-8.524-3.276-11.945-6.662-2.221-2.199-2.553-2.658-3.835-5.304a45.324 45.324 0 0 1-3.483-9.942c-.5-2.229-1.255-7.27-1.112-7.425.04-.042.314.317.611.798.757 1.224 3.382 3.622 5.475 5 6.204 4.088 14.774 6.927 25.838 8.56 17.061 2.517 41.943 2.04 58.36-1.12 1.737-.335 3.187-.582 3.223-.549.121.112-5.107 3.582-7.137 4.736-16.263 9.249-39.151 14.792-56.063 13.578z" style="fill:url(#w);marker:none" fill="url(#w)" overflow="visible" enable-background="accumulate"/><path d="M118.812 131.101c-3.892-.228-6.383-.532-10.697-1.305l-3.193-.572 4.167-.168c2.292-.092 5.304-.354 6.693-.582 12.515-2.055 24.686-8.072 33.676-16.648 2.936-2.8 7.532-8.547 9.276-11.597.736-1.288.756-.922.115 2.135-2.865 13.668-9.927 22.855-20.682 26.903-4.77 1.796-10.607 2.349-19.355 1.834z" style="fill:url(#x);marker:none" fill="url(#x)" overflow="visible" enable-background="accumulate"/><path d="M161.617 121.432c0-.067.28-.68.624-1.363 1.07-2.132 1.445-4.001 1.58-7.901.137-3.926-.256-7.479-1.215-10.97-.695-2.532-.634-2.656.674-1.384 2.62 2.546 5.802 6.75 6.956 9.19 1.102 2.33 1.006 3.315-.497 5.118-2.093 2.508-8.122 7.934-8.122 7.31z" style="fill:url(#y);marker:none" fill="url(#y)" overflow="visible" enable-background="accumulate"/><path d="M176.012 98.602c-1.42-.122-6.174-1.041-9.71-1.879l-3.27-.774 3.017-1.05c6.399-2.23 10.486-4.737 12.793-7.849l.749-1.01-.169 2.399c-.19 2.71-.726 6.531-1.199 8.557-.348 1.493-.684 1.737-2.211 1.606z" style="fill:url(#z);marker:none" fill="url(#z)" overflow="visible" enable-background="accumulate"/><path d="M162.742 92.606c.103-.278.571-1.504 1.041-2.724 3.98-10.33 4.803-21.709 2.251-31.134-.956-3.534-2.984-8.05-4.732-10.54-.855-1.218-.28-1.046 1.218.365 3.582 3.375 8.593 9.9 10.492 13.662 3.09 6.121 2.018 14.282-2.877 21.91-2.17 3.382-7.967 10.016-7.393 8.46z" style="fill:url(#A);marker:none" fill="url(#A)" overflow="visible" enable-background="accumulate"/><path d="M159.278 91.154c-1.006-2.452-4.238-8.826-5.867-11.57-11.118-18.73-27.03-34.398-42.68-42.025-5.559-2.708-9.618-3.964-14.142-4.374l-2.02-.183 3.368-.843c7.206-1.802 16.544-2.534 21.629-1.695 11.9 1.964 22.83 10.31 30.615 23.377 4.876 8.187 8.247 18.476 9.39 28.663.348 3.111.642 9.976.426 9.976-.096 0-.42-.597-.72-1.326z" style="fill:url(#B);marker:none" fill="url(#B)" overflow="visible" enable-background="accumulate"/><path d="M151.39 92.948c-28.652-7.697-44.666-12.62-58.842-18.09-10.498-4.051-20.72-8.85-24.91-11.696-1.757-1.194-1.739-.899-.292-4.775a43.61 43.61 0 0 1 4.609-9.034c1.391-2.08 1.659-2.347 2.611-2.604 4.21-1.139 15.004 2.86 29.897 11.073 16.797 9.264 35.947 22.006 47.62 31.685 4.706 3.902 5.883 4.998 5.332 4.963-.259-.016-2.97-.701-6.026-1.522z" style="fill:url(#C);marker:none" fill="url(#C)" overflow="visible" enable-background="accumulate"/></g><g transform="translate(-63.693 -29.472) scale(1.01398)" clip-path="url(#D)" fill="url(#E)" filter="url(#F)" color="#000" style="fill:url(#E)"><path d="M94.316 115.704a50.937 50.937 0 0 1-9.932-1.67c-5.121-1.378-8.524-3.276-11.945-6.662-2.221-2.199-2.553-2.658-3.835-5.304a45.324 45.324 0 0 1-3.483-9.942c-.5-2.229-1.255-7.27-1.112-7.425.04-.042.314.317.611.798.757 1.224 3.382 3.622 5.475 5 6.204 4.088 14.774 6.927 25.838 8.56 17.061 2.517 41.943 2.04 58.36-1.12 1.737-.335 3.187-.582 3.223-.549.121.112-5.107 3.582-7.137 4.736-16.263 9.249-39.151 14.792-56.063 13.578z" style="fill:url(#G);marker:none" fill="url(#G)" overflow="visible" enable-background="accumulate"/><path d="M118.812 131.101c-3.892-.228-6.383-.532-10.697-1.305l-3.193-.572 4.167-.168c2.292-.092 5.304-.354 6.693-.582 12.515-2.055 24.686-8.072 33.676-16.648 2.936-2.8 7.532-8.547 9.276-11.597.736-1.288.756-.922.115 2.135-2.865 13.668-9.927 22.855-20.682 26.903-4.77 1.796-10.607 2.349-19.355 1.834z" style="fill:url(#H);marker:none" fill="url(#H)" overflow="visible" enable-background="accumulate"/><path d="M161.617 121.432c0-.067.28-.68.624-1.363 1.07-2.132 1.445-4.001 1.58-7.901.137-3.926-.256-7.479-1.215-10.97-.695-2.532-.634-2.656.674-1.384 2.62 2.546 5.802 6.75 6.956 9.19 1.102 2.33 1.006 3.315-.497 5.118-2.093 2.508-8.122 7.934-8.122 7.31z" style="fill:url(#I);marker:none" fill="url(#I)" overflow="visible" enable-background="accumulate"/><path d="M176.012 98.602c-1.42-.122-6.174-1.041-9.71-1.879l-3.27-.774 3.017-1.05c6.399-2.23 10.486-4.737 12.793-7.849l.749-1.01-.169 2.399c-.19 2.71-.726 6.531-1.199 8.557-.348 1.493-.684 1.737-2.211 1.606z" style="fill:url(#J);marker:none" fill="url(#J)" overflow="visible" enable-background="accumulate"/><path d="M162.742 92.606c.103-.278.571-1.504 1.041-2.724 3.98-10.33 4.803-21.709 2.251-31.134-.956-3.534-2.984-8.05-4.732-10.54-.855-1.218-.28-1.046 1.218.365 3.582 3.375 8.593 9.9 10.492 13.662 3.09 6.121 2.018 14.282-2.877 21.91-2.17 3.382-7.967 10.016-7.393 8.46z" style="fill:url(#K);marker:none" fill="url(#K)" overflow="visible" enable-background="accumulate"/><path d="M159.278 91.154c-1.006-2.452-4.238-8.826-5.867-11.57-11.118-18.73-27.03-34.398-42.68-42.025-5.559-2.708-9.618-3.964-14.142-4.374l-2.02-.183 3.368-.843c7.206-1.802 16.544-2.534 21.629-1.695 11.9 1.964 22.83 10.31 30.615 23.377 4.876 8.187 8.247 18.476 9.39 28.663.348 3.111.642 9.976.426 9.976-.096 0-.42-.597-.72-1.326z" style="fill:url(#L);marker:none" fill="url(#L)" overflow="visible" enable-background="accumulate"/><path d="M151.39 92.948c-28.652-7.697-44.666-12.62-58.842-18.09-10.498-4.051-20.72-8.85-24.91-11.696-1.757-1.194-1.739-.899-.292-4.775a43.61 43.61 0 0 1 4.609-9.034c1.391-2.08 1.659-2.347 2.611-2.604 4.21-1.139 15.004 2.86 29.897 11.073 16.797 9.264 35.947 22.006 47.62 31.685 4.706 3.902 5.883 4.998 5.332 4.963-.259-.016-2.97-.701-6.026-1.522z" style="fill:url(#M);marker:none" fill="url(#M)" overflow="visible" enable-background="accumulate"/></g><g color="#000"><path d="M161.863 92.018c-.583.453-1.1 1.88-1.816.742-.932.142-.329 1.732-1.206 2.021-.818-.097-1.455.65-.773 1.304.531.51.782 1.226.266 1.86-.415.69.4 1.177.829 1.592 2.209 2.045 5.21 3.228 8.227 3.156 1.671.083 3.347-.086 5.005-.269.803-.165.545-1.633 1.593-1.346.84.17 1.336-.55.859-1.278-.745-.996.437-1.583.688-2.427-.24-.738-1.678-.573-1.515-1.685.265-.646-.005-1.575-.865-1.21-.767.258-1.515.084-2.278-.05-1.839.237-3.757.383-5.575-.082a6.672 6.672 0 0 1-3.44-2.328z" style="fill:url(#N);marker:none" fill="url(#N)" overflow="visible" enable-background="accumulate" transform="translate(-61.991 -28.344)"/><path d="M174.898 100.9c-.258.44-.943-.404-1.32-.188-.411.236-.508 1.51-.955 1.492h-.001c-.41-.02-.379-1.282-.74-1.566-.395-.309-1.167.358-1.443-.146-.253-.462.47-1.193.396-1.762-.081-.622-.947-1.065-.843-1.674.095-.558.965-.206 1.235-.633.294-.466-.014-1.686.39-1.941h.001c.371-.234.733.936 1.143.973.448.04.93-1.037 1.331-.747.369.267-.05 1.374.192 1.847.264.516 1.172.393 1.268 1.01.088.566-.796.777-.905 1.33-.118.603.533 1.526.251 2.006" style="fill:url(#O);stroke:url(#Y);marker:none" fill="url(#O)" stroke="url(#P)" stroke-width=".3" overflow="visible" enable-background="accumulate" transform="translate(-61.991 -28.344)"/></g></svg>