<svg viewBox="0 0 256 148" xmlns:xlink="http://www.w3.org/1999/xlink" xmlns="http://www.w3.org/2000/svg"><defs><filter id="m" color-interpolation-filters="sRGB" x="-.018" y="-.037" width="1.036" height="1.074"><feGaussianBlur stdDeviation="1.504"/></filter><filter id="j" x="-.033" y="-.105" width="1.066" height="1.209" color-interpolation-filters="sRGB"><feGaussianBlur stdDeviation="2.673"/></filter><filter id="p" x="-.136" y="-.038" width="1.272" height="1.077" color-interpolation-filters="sRGB"><feGaussianBlur stdDeviation="1.033"/></filter><filter id="t" color-interpolation-filters="sRGB" x="-.02" y="-.031" width="1.041" height="1.061"><feGaussianBlur stdDeviation=".205"/></filter><filter id="f" x="-.045" y="-.101" width="1.089" height="1.202" color-interpolation-filters="sRGB"><feGaussianBlur stdDeviation="4.091"/></filter><filter id="v" x="-.173" y="-.149" width="1.347" height="1.298" color-interpolation-filters="sRGB"><feGaussianBlur stdDeviation="3.505"/></filter><filter id="o" x="-.188" y="-.15" width="1.376" height="1.3" color-interpolation-filters="sRGB"><feGaussianBlur stdDeviation="1.484"/></filter><filter id="i" color-interpolation-filters="sRGB" x="-.032" y="-.019" width="1.064" height="1.038"><feGaussianBlur stdDeviation=".495"/></filter><filter id="B" x="-.225" y="-.157" width="1.451" height="1.314" color-interpolation-filters="sRGB"><feGaussianBlur stdDeviation=".769"/></filter><filter id="y" color-interpolation-filters="sRGB" x="-.028" y="-.021" width="1.056" height="1.042"><feGaussianBlur stdDeviation=".105"/></filter><filter id="l" color-interpolation-filters="sRGB" x="-.008" y="-.019" width="1.017" height="1.038"><feGaussianBlur stdDeviation=".777"/></filter><radialGradient id="d" cx="-203.61" cy="504.83" r="134.36" gradientTransform="matrix(.61396 0 0 .4055 -80.677 281.38)" gradientUnits="userSpaceOnUse" xlink:href="#b" spreadMethod="reflect"/><radialGradient id="g" cx="-203.01" cy="425.49" r="116.33" gradientTransform="matrix(1.7028 0 0 .8297 133.04 81.388)" gradientUnits="userSpaceOnUse" xlink:href="#b"/><radialGradient id="h" cx="-77.912" cy="449.03" r="14.368" gradientTransform="matrix(8.5296 4.9246 -10.596 19.387 5435.4 -7953.7)" gradientUnits="userSpaceOnUse" xlink:href="#b"/><radialGradient id="k" cx="-134.53" cy="527.34" r="105.42" gradientTransform="matrix(1 0 0 .48228 0 248.48)" gradientUnits="userSpaceOnUse" xlink:href="#c" spreadMethod="reflect"/><radialGradient id="n" cx="-96.422" cy="473.51" r="17.506" gradientTransform="matrix(-5.6922 0 0 8.9068 -502.38 -4130.5)" gradientUnits="userSpaceOnUse" xlink:href="#b" spreadMethod="reflect"/><radialGradient id="q" cx="12.052" cy="11.712" r="13.568" gradientTransform="matrix(2.4597 -1.4201 1.0598 1.8356 -30.52 10.792)" gradientUnits="userSpaceOnUse" xlink:href="#b"/><radialGradient id="r" cx="-87.203" cy="397.72" r="13.396" gradientTransform="matrix(-3.801 0 0 1.9727 -310.34 -796.02)" gradientUnits="userSpaceOnUse" xlink:href="#b"/><radialGradient id="s" cx="-70.922" cy="439.94" r="12.549" gradientTransform="matrix(3.2449 0 0 2.2167 159.21 -537.66)" gradientUnits="userSpaceOnUse" xlink:href="#b"/><radialGradient id="A" cx="-96.422" cy="473.51" r="17.506" gradientTransform="matrix(-2.9615 .81849 .97917 3.7692 -697.59 -1650.6)" gradientUnits="userSpaceOnUse" xlink:href="#b" spreadMethod="reflect"/><linearGradient id="c"><stop stop-color="#fff" offset="0"/><stop stop-color="#f6d480" stop-opacity="0" offset="1"/></linearGradient><linearGradient id="b"><stop stop-color="#594c06" offset="0"/><stop stop-color="#908200" offset=".467"/><stop stop-color="#ffca2f" offset=".585"/><stop stop-color="#ffc44a" offset=".746"/><stop stop-color="#cda942" offset="1"/></linearGradient><linearGradient id="a"><stop stop-color="#1a1a1a" offset="0"/><stop stop-color="#1a1a1a" stop-opacity="0" offset="1"/></linearGradient><linearGradient id="e" x1="-309.62" x2="-248.42" y1="782.6" y2="502.25" gradientUnits="userSpaceOnUse" xlink:href="#b" spreadMethod="reflect"/><linearGradient id="u" x1="291.07" x2="169.48" y1="135.44" y2="17.392" gradientTransform="matrix(.905 0 0 .92952 29.126 .934)" gradientUnits="userSpaceOnUse" xlink:href="#c"/><linearGradient id="w" x1="-335.08" x2="-312.3" y1="474.47" y2="481.77" gradientTransform="matrix(.64719 .197 -.28471 .71149 22.011 198.52)" gradientUnits="userSpaceOnUse" xlink:href="#a"/><linearGradient id="x" x1="-377.49" x2="-275.28" y1="482.85" y2="496.5" gradientTransform="matrix(-.9771 0 0 1.0668 -57.786 -452.26)" gradientUnits="userSpaceOnUse" xlink:href="#b" spreadMethod="reflect"/><linearGradient id="z" x1="-328.27" x2="-321.51" y1="473.78" y2="473.78" gradientTransform="matrix(.97625 0 0 1.0085 -7.815 -3.94)" gradientUnits="userSpaceOnUse" xlink:href="#a"/></defs><g fill-rule="evenodd"><path d="M-326.88 472.98c-11.419 9.783 1.288 24.934 8.295 34.921 5.556 7.919 46.615 51.894 115.81 56.945 71.022 5.184 129.95-33.369 129.95-81.189 0-6.21-12.688-27.856-.835-39.418 2.195-2.141 3.806-2.547 6.533-7.646 2.824-5.279 1.689-14.498 1.689-14.498s-7.256-1.32-10.854-1.237c-6.82.157-13.063 3.421-14.703 4.968-2.442 9.595.172 21.226-7.198 29.402-9.998 11.091-45.913 51.857-106.84 48.223-54.327-3.24-99.493-46.369-121.84-30.471z" fill="url(#d)" transform="matrix(-.95888 0 0 .95888 -61.819 -401.476)"/><path transform="matrix(.93047 0 0 .85912 301.731 -340.32)" d="M-307.06 450.81c-1.323.586-2.231 17.606 2.594 35.938s27.882 66.648 108.47 60.656c56.226-4.18 93.388-48.475 107.84-66.312-19.88 18.796-57.634 45.576-108 46.969-71.82 1.986-97.237-46.388-110.91-77.25z" fill="url(#e)" filter="url(#f)"/><path d="M-90.928 426.05c-1.956 9.43.152 20.515-6.917 28.417-10.013 11.194-45.987 52.333-107.01 48.665-48.417-2.91-95.404-39.704-113.83-32.571-2.08.805-5.242 3.943-5.128 4.298 5.165 16.071 50.417 58.43 114.79 61.105 101.1 4.203 111.74-58.303 120.81-94.586.693-2.772-1.077-8.55-2.723-15.328z" fill="url(#g)" transform="matrix(-.95888 0 0 .95888 -61.819 -401.476)"/></g><path d="M-71.282 421.28c1.14.149 2.171.31 3.011.438.374.06.863.137 1.156.187.2.033.546.071.67.094-.038 3.587-.356 10.736-2.282 14.594-2.546 5.098-4.035 5.515-6.083 7.656-1.654 1.925-2.718 4.439-3.346 7.281-.009.032-.022.062-.03.094-.012.052-.02.104-.031.156-.104.402-.196.81-.274 1.219-.002.01.002.021 0 .031a21.47 21.47 0 0 0-.213 1.375c-.053.433-.092.874-.121 1.313-.003.03.002.062 0 .093a25.94 25.94 0 0 0-.03.563c-.013.29-.028.582-.031.875-.002.23-.004.456 0 .687-.274 9.531 2.391 20.367 3.832 25.47-2.012-5.603-7.513-16.366-19.224-12.782a21.13 21.13 0 0 0-.121-.719c-2.633-12.832-8.06-6.544-8.943-8.562 2.295-2.46 4.165-4.597 5.505-6.125 7.174-8.176 4.62-19.811 6.996-29.406.998-.967 3.76-2.588 7.3-3.719 3.72.017 6.702.05 7.453.031 1.333-.032 3.127-.408 4.806-.843z" fill="url(#h)" filter="url(#i)" transform="matrix(-.95888 0 0 .95888 -61.819 -401.476)"/><path transform="matrix(-.94092 0 0 .94677 -54.52 -393.593)" d="M-294.23 482.63c22.329 12.679 58.548 27.041 103.16 24.704 38.291-2.006 71.262-15.827 92.683-35.457-6.564 34.837-32.611 55.642-82.148 60.628-71.626 7.209-106.48-39.31-111.51-47.118-.6-.931-1.434-1.8-2.175-2.756z" fill="#f5cc68" fill-rule="evenodd" filter="url(#j)"/><path transform="matrix(-1.00174 0 0 1.00174 -65.519 -424.228)" d="M-88.193 436.68c2.458 47.2-52.241 96.545-109.23 91.947-46.778-6.917-77.186-11.527-110.48-55.082 22.901 10.648 78.787 33.385 113.26 35.197 35.522-.404 103.95-27.306 104.05-76.65-.228-4.252 2.16 4.944 2.392 4.588z" fill="url(#k)" fill-rule="evenodd" filter="url(#l)" opacity=".247"/><path d="M-86.541 437.78c-.358 1.745-6.61 22.482-6.61 22.482-5.564 17.948-18.023 79.397-119.03 72.614-31.842-2.829-51.565-11.896-77.154-24.882 18.759 13.627 46.314 24.747 80.368 27.034 101.01 6.784 109.57-51.368 120.13-81.875.295-.855 2.658-17.117 2.3-15.372z" fill="#f8e2a9" fill-opacity=".888" fill-rule="evenodd" filter="url(#m)" transform="matrix(-.95888 0 0 .95888 -61.819 -401.476)"/><path d="M6.172 2.481c1.654.418 3.421.777 4.734.809 2.51.06 4.656.383 6.982.869 3.51.728 6.37 1.777 7.282 2.667 2.26 9.2-.173 20.357 6.652 28.197a258.74 258.74 0 0 0 5.304 5.903c-1.581.24-2.885 1.074-4.255 2.037-2.438 1.713-3.617 4.033-4.046 6.832C17.29 46.36 11.87 56.68 9.887 62.051c1.384-4.768 3.877-14.608 3.776-23.642v-.06c.098-2.462-.125-4.881-.81-7.162-.622-2.604-1.643-4.912-3.205-6.682-2.019-2.053-3.486-2.452-5.993-7.342C1.757 13.464 1.445 6.61 1.407 3.17c.663-.117 2.517-.404 4.765-.69zm3.625 59.84c-.465 1.59-.839 2.757-.839 2.757s.254-1.123.84-2.757z" fill="none"/><path transform="matrix(.98928 0 0 .78014 .013 12.185)" d="M11.5 59.656c-.36 2.287-.385 4.675-.313 7.031 2.242-7.054 3.612-17.164 11.47-19.906 2.231-.771 6.083.397 7.437-.625-15.495-9.747-16.533 5.038-18.594 13.5z" fill="url(#n)" filter="url(#o)" opacity=".309"/><path transform="translate(.72 2.06) scale(.95888)" d="M18.5 1.313c-.375 3.2 1.103 12.026 2.5 22.125 1.689 12.202 15.656 42.28 15.656 42.28S28.4 44.049 24.937 32.345c-2.861-9.67-4.048-25.47-5.188-30.594a28.988 28.988 0 0 0-1.25-.438z" fill="#e6d7b3" fill-opacity=".89" filter="url(#p)"/><g fill-rule="evenodd"><path transform="translate(.72 2.06) scale(.95888)" d="M11.094 0c-.244-.006-.539.025-.813.031-1.748.08-3.83.305-5.656.531C4.4.595 4.217.625 4 .656a139.46 139.46 0 0 0-3.75.594c-.005.037-.06.463-.093.781-.024.229-.037.217-.063.563-.008.104.008.072 0 .187C.065 3.19.016 3.636 0 4.156c-.003.103.003.174 0 .282-.012.52-.015 1.064 0 1.656.074 2.77.517 6.16 2.031 8.625 2 3.254 3.444 4.454 4.907 5.53 2.266-.105 4.606.23 6.562-1.468 3.616-1.907 7.743-.162 11.406-1.656a85.979 85.979 0 0 0 2.219-1.813c-.254-3.535-.51-7.064-1.344-10.344C24.154 3.434 18.008.203 11.251 0c-.054-.002-.104 0-.157 0z" fill="url(#q)" opacity=".596"/><path transform="translate(.72 2.06) scale(.95888)" d="M9.969 1.063c-2.108.002-4.198.23-6.281.5-1.243.2-3.833.04-3.063 1.843C2.243 7.821 6.56 7.83 6.56 7.83s1.417 2.639 6.035 4.077c1.038 1.117 3.119-.185 4.437-.406 1.068.89 2.216 1.345 3.47 1.188.67-1.26 2.155-3.563 2.155-3.563s1.808-.108 1.625-1.312c-.332-1.2-.968-2.51-2.062-3.407-3.659-2.035-7.942-3.22-12.25-3.343z" fill="url(#r)"/><path d="M3.938 4.034c-.363.03-.615.22-.67.672-.093.749 1.517 1.79 3.136 3.013 1.708.602 1.168 1.402 2.418 1.738 3.295.886 6.404 2.78 8.643.51 2.273-3.657-.839-4.399-4.285-4.542l-1.916.208-1.34-.463-2.73-.046c-1.105-.436-2.46-1.153-3.256-1.09z" fill="#fadf9f"/><path transform="matrix(-1.0865 0 0 1.03914 -70.872 -435.021)" d="M-65.787 424.39c.393 5.58-1.168 11.967-5.942 15.341-4.081 1.762-8.473-.105-12.599-.704-2.21-.308-6.739-2.973-5.091-4.953 2.602 1.647 5.251 2.54 8.584 2.495 3.305.236 7.06 2.553 9.885.06 3.772-2.855 5.121-7.696 5.163-12.24z" fill="url(#s)" filter="url(#t)" opacity=".8"/></g><path transform="matrix(1.16974 0 0 .83097 -63.424 24.852)" d="M215.41 107.25c-.421 3.167 2.663 6.962 10.55 3.356 13.658-6.244 45.144-58.015 36.435-54.95 0 0-45.081 37.287-46.984 51.594z" fill="url(#u)" filter="url(#v)"/><path d="M-320.7 470.05c.639.045.555.792.712 1.166.16.897.406 2.097-1.021 2.45-1.535.338-.17 1.287-.31 1.975-1.19.793-1.431 2.057-2.165 3.07-.658.646-1.97-.709-2.692.19-.981.502-1.016 1.555-1.577 2.165-.695-.972-1.615.362-2.444-.238-.66-1.171-.204-3.186.247-4.36.293-1.153 1.454-1.363 1.609-2.54.45-.806 2.325-1.508 2.917-2.238.77-.623 1.983-.663 2.66-1.381.985-.06 1.069-.115 2.064-.259zm-7.858 3.902c.024.006-.008.02 0 .024-.046-.002-.088-.01 0-.024z" fill="url(#w)" transform="matrix(-.95888 0 0 .95888 -61.819 -401.476)"/><path transform="translate(.72 2.06) scale(.95888)" d="M255.19 49.219c-.955.467-1.342 1.73-.906 2.719.307.911.902 1.682 1.562 2.344.165 1.93 1.143 3.77 2.594 4.968 1.244-.035 2.715.014 3.531 1.157.035.822 1.398 1.26 1 .156-.336-.847-1.045-1.862-2.031-1.719-1.148.548-2.424-.258-3-1.312-.57-.9-.91-1.92-1.375-2.875.08-1.684-2.034-2.47-1.812-4.188.027-.466.331-.81.437-1.25z" fill="url(#x)" filter="url(#y)"/><path d="M-323.42 471.4c-.504.144-.758.961-1.39.626-.712-.265-1.112.415-1.612.761-.541.275-.726.75-1.113 1.121.062.741-.902.833-.722 1.59-.214.89.78.97 1.39.824.695.28.973-.864 1.662-.592.683.354 1.193-.356 1.68-.704.507-.27.62-.78 1.067-1.043-.035-.77.838-.89.747-1.643.19-.884-.714-1.011-1.34-.86-.133.02-.242-.107-.37-.08z" fill="url(#z)" transform="matrix(-.95888 0 0 .95888 -61.819 -401.476)"/><path transform="matrix(.95888 0 0 .84909 .72 6.25)" d="M35.625 39.969c-5.913.009-5.095 5.326-5.219 8.719.064 1.02.328 2.044.625 3.031.39-3.308-.005-7.804 3.781-10.094 1.077-.647 3.19-.685 3.782-1.313-1.142-.237-2.125-.344-2.97-.343z" fill="url(#A)" filter="url(#B)" opacity=".238"/></svg>