<svg width="466.524" height="397.449" xmlns:xlink="http://www.w3.org/1999/xlink" xmlns="http://www.w3.org/2000/svg"><defs><filter id="y" color-interpolation-filters="sRGB" x="-.015" y="-.01" width="1.03" height="1.019"><feGaussianBlur stdDeviation=".16"/></filter><filter id="u" x="-.015" y="-.01" width="1.03" height="1.02"><feGaussianBlur stdDeviation=".197"/></filter><filter id="w" x="-.015" y="-.01" width="1.029" height="1.02"><feGaussianBlur stdDeviation=".189"/></filter><filter id="r" x="-.007" y="-.008" width="1.013" height="1.015"><feGaussianBlur stdDeviation="1.255"/></filter><filter id="n" x="-.292" y="-.222" width="1.585" height="1.445"><feGaussianBlur stdDeviation="7.513"/></filter><filter id="k" x="-.223" y="-.169" width="1.446" height="1.339"><feGaussianBlur stdDeviation="5.64"/></filter><filter id="t" x="-.003" y="-.004" width="1.007" height="1.008"><feGaussianBlur stdDeviation=".636"/></filter><filter id="i" x="-.145" y="-.238" width="1.289" height="1.476"><feGaussianBlur stdDeviation="16.141"/></filter><filter id="g" x="-.207" y="-.286" width="1.414" height="1.572"><feGaussianBlur stdDeviation="13.435"/></filter><filter id="p" x="-.051" y="-.022" width="1.102" height="1.044"><feGaussianBlur stdDeviation=".121"/></filter><filter id="A" x="-.521" y="-.188" width="2.041" height="1.377"><feGaussianBlur stdDeviation="5.036"/></filter><filter id="z" x="-.125" y="-.065" width="1.251" height="1.129"><feGaussianBlur stdDeviation="2.006"/></filter><radialGradient id="m" cx="-343.3" cy="317.48" r="73.611" gradientTransform="matrix(1.6342 .51539 -.93804 2.8726 1031.839 -523.038)" gradientUnits="userSpaceOnUse" xlink:href="#c" spreadMethod="reflect"/><radialGradient id="j" cx="-292.75" cy="258.76" r="210.16" gradientTransform="matrix(.70282 0 0 .77565 -9.451 71.176)" gradientUnits="userSpaceOnUse" xlink:href="#c" spreadMethod="reflect"/><radialGradient id="x" cx="-78.735" cy="416.24" r="13.558" gradientTransform="matrix(.29434 .08017 -.144 .5885 534.52 86.422)" gradientUnits="userSpaceOnUse" xlink:href="#d" spreadMethod="reflect"/><radialGradient id="h" cx="-282.37" cy="408.33" r="57.599" gradientTransform="matrix(1.6637 4.5233 -4.4452 1.1911 2461.439 205.322)" gradientUnits="userSpaceOnUse" xlink:href="#c" spreadMethod="reflect"/><radialGradient id="e" cx="-282.72" cy="277.48" r="210.16" gradientTransform="matrix(1.108 0 0 .94024 536.629 -118.713)" gradientUnits="userSpaceOnUse" xlink:href="#b" spreadMethod="reflect"/><radialGradient id="q" cx="-381.75" cy="462.11" r="224.02" gradientTransform="matrix(1 0 0 .86732 0 41.864)" gradientUnits="userSpaceOnUse" xlink:href="#b" spreadMethod="reflect"/><radialGradient id="o" cx="-292.75" cy="258.76" r="210.16" gradientTransform="matrix(.78419 0 0 .76902 380.089 -75.971)" gradientUnits="userSpaceOnUse" xlink:href="#d" spreadMethod="reflect"/><radialGradient id="s" cx="237.84" cy="241.48" r="228.43" gradientTransform="matrix(1 0 0 .86794 -.861 -10.723)" gradientUnits="userSpaceOnUse" xlink:href="#c"/><linearGradient id="a"><stop stop-color="#1a1a1a" offset="0"/><stop stop-color="#1a1a1a" stop-opacity="0" offset="1"/></linearGradient><linearGradient id="c"><stop stop-color="#fff" offset="0"/><stop stop-color="#fff" offset=".4"/><stop stop-color="#fff" stop-opacity="0" offset="1"/></linearGradient><linearGradient id="d"><stop stop-color="#f2c26d" offset="0"/><stop stop-color="#7f6c43" offset="1"/></linearGradient><linearGradient id="b"><stop stop-color="#f4ca43" offset="0"/><stop stop-color="#ffca2b" offset=".5"/><stop stop-color="#d4a100" offset="1"/></linearGradient><linearGradient id="l" x1="-460.08" x2="-476.47" y1="232.47" y2="265.07" gradientTransform="translate(536.629 -175.388) scale(1.108)" gradientUnits="userSpaceOnUse" xlink:href="#b"/><linearGradient id="f" x1="66.779" x2="214.71" y1="366.77" y2="150.93" gradientTransform="matrix(-.7532 .1813 .99686 .57612 269.339 56.05)" gradientUnits="userSpaceOnUse" xlink:href="#c" spreadMethod="reflect"/><linearGradient id="v" x1="-36.85" x2="-30.523" y1="358.43" y2="432.73" gradientTransform="matrix(.98124 0 0 1.0178 483.77 -81.721)" gradientUnits="userSpaceOnUse" xlink:href="#d"/></defs><path d="M199.139 1.36c-63.45.223-123.58 23.184-159.03 78.376-35.11 9.337-52.921 33.54-29.5 67.344 4.98 15.87-34.322 137.36 105.59 209.34 77.84 50.34 250.04 64.75 300.12-24.344 15.458-27.5 34.9-5.946 49.25-63.688-4.577-49.36-3.62-50.913-6.764-60.644-2.326-7.196-8.594-24.91-9.705-45.17C435.893 72.762 312.24.965 199.13 1.355z" fill="url(#e)" style="fill:url(#e)"/><path d="M340.549 183.332c-4.18.02-8.234.23-11.97.656-40.842 4-66.163 18.44-79.124 33.156-18.19 18.9-31.6 40.51-12.125 61.344 7.563 7.343 21.279 16.588 43.438 17.625 10.996-7.31 11.588-18.03 33.625-21.938 32.8-7.296 39.644-23.123 49.062-36.438 10.268-14.037 19.85-28.404 20.219-43.406-4.78-7.394-25.015-11.087-43.125-11z" fill="url(#f)" filter="url(#g)" opacity=".534" style="fill:url(#f)"/><path d="M202.759 104.772c-.822-.004-1.615.018-2.438.03-13.417.216-26.926 2.829-40.468 8.626-68.186 45.54 88.432 88.907 144.08 100.45 34.333 12.457 2.476 53.395 42.447 53.672 23.983.166 46.142-7.027 63.25-27.812 8.109-35.458-36.53-49.06-65.842-64.64-45.008-21.017-89.261-70.047-141.03-70.33z" fill="url(#h)" filter="url(#i)" style="fill:url(#h)"/><path transform="matrix(1.0143 0 0 1.0597 487.869 -136.875)" d="M-73.515 403.43c-15.365 10.574-30.006 24.968-37.781 45.625-6.11 11.086-14.834 20.298-17.781 33.844 6.46 2.613 12.638-7.463 18.375-11.312 8.684-8.22 14.824-19.884 22.594-29.25 6.984-8.136 24.56-16.055 18.406-31.344-1.209-2.575-2.714-4.898-3.813-7.563z" fill="url(#j)" filter="url(#k)" opacity=".15" style="fill:url(#j)"/><path d="M42.108 76.672a169.646 169.646 0 0 0-2 3.063c-35.11 9.337-52.921 33.54-29.5 67.343 1.073 3.42.083 11.766-.72 23.438 2.7-35.51 14.159-58.203 23.595-76.312a246.306 246.306 0 0 1 7.47-14.875c.405-.892.783-1.775 1.155-2.656z" fill="url(#l)" style="fill:url(#l)"/><path d="M175.199 2.767c-52.7 5.439-101.02 27.457-132.44 71.594-8.953 15.249-16.462 31.929-22.188 49.844-12.162 38.056-14.468 76.208-8.47 110.41.017.068.017.12.032.187 3.373 14.66 8.998 30.107 18.062 45.5 3.27-63.566 29.876-138.14 77.344-204.09 20.923-29.07 43.944-53.722 67.656-73.438z" fill="url(#m)" style="fill:url(#m)"/><path d="M376.829 181.362c2.18 2.136 4.508 4.292 6.875 6.469-1.79-2.264-4.033-4.435-6.875-6.47zm6.875 6.469c15.763 19.937-4.98 47.475 13.375 59.53 6.102 5.06 14.328 9.57 18.438 15.126 7.87.02 11.528-7.582 19.969-3.656 5.805-.841 1.238-6.055 2-8.5-2.25-7.533-12.122-13.762-19.312-20.344-4.82-15.97-20.67-29.467-34.47-42.156z" fill="#dcaa0d" filter="url(#n)"/><path d="M5.858 101.362c-.67 4.735-1.74 7.976-2.72 7.813-.372-.063-.68-.612-.937-1.532a27.505 27.505 0 0 0-1.718 6.875c3.195-.515 5.718-4.786 5.718-10a15.49 15.49 0 0 0-.343-3.156z" color="#000" fill="url(#o)" filter="url(#p)" style="fill:url(#o)"/><path transform="matrix(1 0 0 .98208 484.239 -114.715)" d="M-284.52 121.22c-16.552 13.668 15.145 6.255 0 0zm5.23.03c.351 15.84 21.238-5.02 0 0zm-24.061.74c-15.97-4.676-6.469 11.732 0 0zm40.309 0c5.813 17.63 20.058-4.046 0 0zm-59.14 2.276c-20.76-1.654 3.944 15.541 0 0zm83.94.708c-1.594 15.448 17.858-3.502 0 0zm-95.786 1.538c-14.615-2.983-1.977 11.617.1.306zm84.279.185c-14.121 8.75 16.54 12.217 0 0zm-17.662.062c-13.721 10.233 15.946 10.956 0 0zm-79.541 3.015c-12.134 2.356-21.821 25.728-2.64 14.198 15.64 5.938-6.465-12.066 9.02-7.212 4.992-3.945-2.688-8.095-6.38-6.986zm133.45.277c-9.296 18.833 19.31-.2 0 0zm-91.356 1.785c-1.51 7.199-22.817 22.64-4.488 18.934 3.236-4.284 14.41-15.413 4.488-18.934zm77.879 1.138c-18.15 10.802 16.659 9.885 0 0zm-91.418.123c-16.335 9.481 15.554 12.591 0 0zm-15.385.893c-13.187 11.53 14.18 5.473 0 0zm45.755.184c-15.437 12.027 17.256 9.559 0 0zm14.8 2.154c-20.373 7.884 13.56 9.68 0 0zm23.662.123c-11.422 14.394 19.523 10.26 0 0zm59.663 1.662c-18.016 9.715 14.45 14.95 0 0zm-25.508.4c-16.598 12.754 16.564 8.602 0 0zm13.908 3.57c-15.714 12.237 16.872 8.764 0 0zm-178.62 1.353c-22.206 8.395 7.508 13.202 0 0zm117.02 1.908c-12.833 9.394 15.047 12.9 0 0zm-39.355 1.6c-21.704 10.448 15.694 10.418 0 0zm73.602.246c-11.146 13.512 20.466 9.46 0 0zm-6.893.861c-13.717 8.736 13.414 8.496 0 0zm-12.462.831c-16.05 11.93 16.73 8.205 0 0zm-117.73.585c-13.298 8.83 15.844 12.018 0 0zm95.233 1.538c-17.614 14.03 19.318 6.194 0 0zm-77.633.647c-18.577 12.573 18.637 7.505 0 0zm11.908.061c-14.244 9.386 14.66 10.327 0 0zm11.631 1.785c-16.246 9.155 13.61 13.122 0 0zm35.94 1.723c-23.629 11.13 15.565 10.896 0 0zm-102.68.154c-13.584 9.73 15.56 9.82 0 0zm233.42 1.046c-12.679 9.01 13.866 12.934 0 0zM-198 158.544c-13.813 10.295 14.796 15.198 0 0zm-60.217.954c-24.774 11.135 20.273 8.745 0 0zm-20.339.092c-14.609 9.679 14.75 12.161 0 0zm64.31.123c-9.051.645-20.786 13.105-5.437 11.537-.24-4.949 21.379-4.44 5.436-11.537zm39.508.554c-13.132 14.824 19.882 5.472 0 0zm-135.63.677c-13.532 8.317 13.712 9.4 0 0zm164 .339c-14.519 8.729 14.031 11.419 0 0zm-93.449 2c-11.24 11.383 16.397 6.862 0 0zm110.28.984c-12.343 11.983 16.724 7.692 0 0zm-258.25.77c-11.7 13.307 18.33 8.979 0 0zm116.99.307c-15.312 8.745 16.468 8.462 0 0zm-133.2.708c-11.708 5.155-15 22.762.064 9.46 6.223-2.055 8.031-7.784-.064-9.46zm244.04 0c-17.84 11.326 17.562 9.284 0 0zm-186.93.338c-12.72 13.767 18.785 10.127 0 0zm141.54.954c-14.952-.202-11.327 28.954-4.128 16.944 1.525-7.933 27.282 14.097 19.997-3.55-10.583.56-13.523-7.577-13.5-13.086l-2.369-.307zm-42.032.954c-15.465 9.618 15.28 11.717 0 0zm-39.54.4c-12.454 9.149 15.396 8.812 0 0zm93.05 1.016c-17.804 11.232 17.28 8.292 0 0zm16.984.4c-23.937 4.526 1.315 18.69 9.381 4.545-.84-4.083-6.333-3.284-9.38-4.545zm-193.21 1.692c-12.548 5.505 10.433 25.169 3.265 6.231 2.372-3.05.942-6.745-3.265-6.231zm252.78.154c-5.968 3.482-14.81 14.947-1.215 9.983 7.1-1.405 10.191-7.007 1.215-9.983zm-240.78 1.477c-16.544 12.667 18.921 6.244 0 0zm124.83.338c-12.266 11.36 16.32 10.387 0 0zm-61.509 1.447c-16.317 11.626 14.175 8.523 0 0zm155.7 0c-15.75 9.031 14.881 10.048 0 0zm-146.68 3.077c-16.47 13.12 17.412 7.883 0 0zm-36.216.43c-18.029 15.683 17.211 7.366 0 0zm47.294.431c-19.36 12.633 14.944 10.064 0 0zm124.4.462c-19.223 10.862 16.418 9.296 0 0zm-256.78.369c-12.734 10.409 14.296 12.332 0 0zm144.16 1.323c-18.036 11.695 13.402 10.11 0 0zm85.541.092c-16.527 11.96 17.141 8.951 0 0zm-73.94.308c-14.446 12.632 16.451 6.99 0 0zm123.11.83c-15.822 3.437 6.265 26.456 1.481 8.597 2.647-3.096 4.593-7.793-1.48-8.596zm-212.9 1.047c-18.122 11.263 16.395 10.882 0 0zm201.94.738c-16.444 9.127 12.86 15.354 0 0zm-222.31.739c-11.909 11.934 22.084 6.123 1.734.262l-1.191-.18zm65.51.523c-14.853 13.879 14.798 9.9 0 0zm184.62 1.939c-16.54 10.109 15.85 9.843 0 0zm-282.41.615c-16.79 9.319 15.778 10.788 0 0zm226.87.185c-11.629 11.052 19.627 4.443 0 0zm-57.694.153c-13.893 10.83 19.71 7.247.263.05zm-87.479.462c-11.225 11.985 18.94 5.458 0 0zm106.06.092c-13.93 9.766 14.936 11.314 0 0zm-67.233.585c-15.119 12.114 14.961 8.67 0 0zm-151.7.123c-15.65 11.334 14.533 10.59 0 0zm241.98.462c-13.985 5.863 12.902 10.339 0 0zm-234.01.092c-13.826 9.255 16.758 12.853 0 0zm265.48.338c-12.524 9.12 12.873 7.203 0 0zm-83.418.031c-18.86 12.283 15.357 9.473 0 0zm-86.433 2.215c-15.918 9.853 15.742 10.908 0 0zm128.4 1.016c-16.293 9.929 13.83 14.108 0 0zm-187.36.985c-13.636 14.864 20.154 4.883 0 0zm284.68.307c-12.727 14.173 19.505 5.662 0 0zm-147.7.677c-14.578 12.756 14.567 9.987 0 0zm29.14 1.693c-14.715 9.347 14.526 14.68 0 0zm-40.74 1.261c-16.063 9.651 15.377 10.383 0 0zm126.5.923c-30.27 7.697 21.004 24.54 14.822 3.459-8.35-1.32-11.19 8.583-14.823-3.459zm-78.772 1.108c-9.022 13.326 21.67 5.275 1.165.124zm-99.357.43c-14.199 12.708 14.452 10.49 0 0zm-45.694.093c-14.63 14.414 14.547 9.34 0 0zm196.84.585c-15.088 9.743 16.243 11.242 0 0zm71.356.123c-20.107 19.622 16.99 13.127 0 0zm-328.81.307c-11.237 14.261 14.915 9.885 0 0zm83.787 0c-10.835 12.37 21.276 3.232 13.76 17.626 18.828 5.58-3.853-24.643-13.76-17.626zm158.99.093c-20.255 13.252 19.774 7.623 0 0zm-106.5.03c-17.577 9.844 16.434 10.752 0 0zm55.11 1.785c-19.952 10.625 18.336 7.177 0 0zm-171.57.739c-14.149 13.326 15.226 9.173 0 0zm147.02 2.646c-13.415 6.784 12.77 9.38 0 0zm146.34.215c-10.72 11.204 20.155 9.107 1.995.244l-1.196-.146-.8-.098zm-266.65.647c-13.61 9.087 15.281 9.725 0 0zm106.99.246c-12.03 13.36 15.962 11.164 0 0zm131.63.184c1.238-.117-1.355 1.563 0 0zm-107.73.308c-13.668 11.788 14.222 5.867 0 0zm125.7.77c-14.737 10.77 12.901 6.98 0 0zm-73.603.645c-21.576 11.885 18.945 8.61 0 0zm-109.66.093c-15.895 7.852 14.84 12.473 0 0zm82.341 1.138c-17.2 10.436 17.005 8.225 0 0zm-120.43.339c-12.919 9.19 13.982 9.032 0 0zm252.84.123c-12.654 12.664 15.37 8.689 0 0zm-362.41.707c-13.93 16.904 19.031 3.683 0 0zm322.93 1.508c-23.832 10.79 15.442 10.732 0 0zm-311.36.031c-16.967 13.17 15.03 10.195 0 0zm360.38.677c-10.795 8.687 15.496 10.605 0 0zm-127.63.03c-16.388 7.938 14.383 11.093 0 0zm-214.41 1.016c-16.002 12.327 17.74 7.755 0 0zm275.88.216c-14.858 12.11 17.331 9.811 0 0zm-141.39.892c-17.698 11.383 18.146 7.183 0 0zm-106.06.03c-23.14 9.953 19.057 8.335 0 0zm225.42.278c-22.482 10.524 20.368 7.845 0 0zm68.186.4c-23.013 9.89 19.37 8.609 0 0zm-16.554.03c-12.76 12.798 14.261 9.612 0 0zm-245.21.677c-25.837 12.243 19.574 7.316 0 0zm104.06.37c-16.8 4.09-6.373 20.979 3.263 6.38 2.305-2.662.317-6.608-3.263-6.38zm-123.08.215c-18.719 12.207 17.108 7.366 0 0zm103.08 1.077c-12.474 9.9 13.848 13.486 0 0zm-19.57 1.23c-13.31 6.38 12.294 9.445 0 0zm-114.4.832c-10.46 13.705 19.052 7.836 0 0zm329.15.276c-22.495 1.683 4.973 19.175 2.634.958zm-162.1.031c-8.846 1.46-17.169 15.82-2.41 10.85 3.332-1.812 9.359-9.113 2.41-10.85zm51.171.216c-12.999 13.225 18.4 10.936 0 0zm-133.85 2c-12.874 11.792 19.817 6.337 0 0zm-47.047.83c-13.512 7.13 12.93 10.012 0 0zm302.62.37c-2.454 10.008 9.905 7.75 0 0zm-49.109 1.23c-16.28 10.23 15.271 10.167 0 0zm-102.06.216c-18.084 8.42 14.641 9.183 0 0zm-63.725 1.23c-15.176 2.411-5.328 23.4 1.483 8.693 5.915-2.86 5.225-8.213-1.483-8.692zm15.416 0c-14.812 12.618 15.811 7.665 0 0zm-174.87.155c-18.3 10.277 16.405 10.325 0 0zm51.201 3.354c-12.136 12.699 15.183 4.781 0 0zm155.39 0c-14.05 13.148 20.033 6.645 0 0zm-121.97.061c-18.068 12.821 14.673 9.419 0 0zm55.294.246c-14.516 10.908 20.462 9.302 0 0zm230.53.37c-15.814 9.982 14.966 10.663 0 0zm-79.97.276c-12.155 9.99-.928 36.226 6.25 15.314 7.25-8.689-14.694.681-3.166-9.827 1.6-2.147.153-6.15-3.085-5.487zm-52.002.062c-12.722 10.646 16.454 12.145 0 0zm-175.6.215c-16.496 9.973 15.898 10.818 0 0zm-38.893 1.046c-13.963 12.75 18.693 2.267 0 0zm-42.032.216c-7.823 9.779-5.812 26.167 1.264 6.992 1.327-2.322.637-5.288-1.264-6.992zm375.21 0c-20.202 11.249 16.302 13.335 0 0zm-256.35.338c-14.018 9.25 15.812 5.79 0 0zm82.648.739c-19.485 10.985 17.325 11.564 0 0zm82.741.215c-17.008 12.496 18.582 8.68 0 0zm-256.31.4c-15.627 13.306 17.695 6.916 0 0zm162.65 1.231c-14.77 6.76 14.217 11.672 0 0zm-182.28.37c-15.873 10.892 23.91 8.628 4.455 1.91l-1.417-.47zm53.017.153c-5.358 2.95-23.142 8.63-6.861 9.558 5.181-.205 17.16-4.15 6.861-9.558zm299.05.954c-14.348 8.878 15.856 5.906 0 0zm-220.04.308c-13.079 9.118 13.091 13.082 0 0zm94.587 0c-14.773 13.104 17.348 8.126 0 0zm101.36.584c-12.188 8.386 13.702 8.266 0 0zm-70.34.37c-14.05 9.094 14.695 12.372 0 0zm135.42.4c-10.119 8.93 12.833 12.418 0 0zm-14.185 1.292c-19.434 16.107 20.414 4.863 0 0zm-134.96.738c-14.28 12.627 14.854 9.956 0 0zm97.264.154c-18.51 12.773 18.328 8.111 0 0zm-129.3.893c-16.652 8.862 16.686 6.41 0 0zm74.28.215c-11.977 12.872 15.76 9.298 0 0zm-220.01.77c-18.773 10.09 14.781 9.017 0 0zm-37.879.584c-13.253 5.022 7.484 24.057 4.746 5.36.627-2.765-1.897-5.667-4.746-5.36zm-15.785.308c-14.642 11.322 25.967 12.062 4.985 3.107l-2.11-2.214-2.875-.894zm304.29.092c-11.962 12.628 15.65 9.342 0 0zm-95.233.277c-15.283 13.092 15.023 9.72 0 0zm-21.385.707c-12.27 2.048-14.21 14.106-.394 7.154 6.867-.279 7.327-5.096.394-7.154zm-27.324.37c-14.55 12.36 14.851 10.79 0 0zm-20.954.369c-21.529 12.644 20.143 9.77 0 0zm201.91.615c-14.79 13.396 17.912 7.177 0 0zm-122.96.37c-18.567 11.976 13.542 11.216 0 0zm-118.5.215c-23.1 9.562 16.368 10.474 0 0zm166.47.185c-21.462 11.324 19.372 6.917 0 0zm-187.05 1.538c-16.62 7.97 19.962 8.93 0 0zm296.25.03c-13.743 9.325 12.911 9.427 0 0zm-17.324 1.14c-10.467 14.96 23.113 6.25 0 0zm-293.27.707c-14.875 11.725 16.2 8.521 0 0zm-29.139.923c-12.515 11.642 16.1 10.334 0 0zm82.987.585c-13.544 7.044 11.806 14.214 0 0zm192.59.646c-12.533 9.16 15.665 4.933 0 0zm-323.52.462c-18.339 11.119 16.683 8.658 0 0zm207.24.646c-15.945.31-9.41 15.175 2.98 6.448 5.984-2.674 1.682-6.603-2.98-6.448zm125.76.584c-12.756 9.322 15.537 11.831 0 0zm-170.44.431c-11.515 10.598 18.584 10.972 1.96.36l-1.186-.218zm85.85.062c-12.7 12.084 14.986 5.394 0 0zm12.77.461c-13.59 11.99 19.937 5.713 0 0zm-253.08.062c-11.122 15.408 32.085 2.396 8.912 1.558-2.84 2.103-6.445-.374-8.913-1.558zm208.96 1.046c-14.289 14.46 19.735 4.131 0 0zm127.67.092c-19.138 9.262 14.665 10.784 0 0zm-32.617 2.031c-12.58 9.092 12.941 7.126 0 0zm-276.44.37c-15.693 12.311 17.664 7.793 0 0zm140.96.368c-19.51 12.05 18.731 10.593 0 0zm182.37.985c-20.824 12.023 19.081 10.35 0 0zm-223.21.154c-11.999 13.823 15.598 10.257 0 0zm-153.36.338c-12.054 11.721 19.02 8.776.625.2zm249.21.277c-13.705 12.882 18.436 8.826 0 0zm144.65.585c-6.405 5.796-6.21 24.98 2.108 10.931.787-3.184 2.596-9.735-2.108-10.931zm-95.08.954c-20.193 8.448 10.844 12.649 0 0zm-167.67.308c-17.223 13.669 15.951 8.615 0 0zm282.65.553c-9.585 12.812 19.892 6.736.926.126zm-244.5.185c-12.22 13.738 15.094 9.523 0 0zm174.68.43c-13.178 1.518-3.67 25.2.348 8.617 4.379-1.238 5.241-8.815-.348-8.616zm-120.86.34c-13.032 10.006 16.463 9.715 0 0zm-114.93.922c-14.002 10.694 12.885 6.474 0 0zm159.33.708c-2.779 11.247-35.175 21.242-10.236 22.134 2.227 3.745-4.36 23.666 10.188 19.252-5.847-6.78-3.739-17.437 5.496-19.27-16.473 6.464 8.072 24.724 2.093 6.534 14.078.397 17.628-33.12 5.885-21.242.442 8.305-6.612-11.353-13.427-7.408zm-199.24 1.477c-15.973 13.571 18.762 7.133 0 0zm239.82.062c-15.367 14.613 18.587 5.72 0 0zm-210.96.83c-20.062 10.681 16.197 8.81 0 0zm82.956.062c-13.899 13.03 19.654 7.383 0 0zm-142.28.77c-11.802 10.943 16.56 8.457 0 0zm367.27.43c-12.85 10.456 18.505 7.973.108.025zm-318.53.061c-22.21 13.948 18.37 8.28 0 0zm-71.448.277c-13.005 10.27 19.142 8.244 0 0zm341.49.247c-17.664 6.21 13.05 12.832 0 0zm-103.51.369c-17.674 8.794 15.501 11.483 0 0zm-49.078.554c-19.06 12.802 14.888 9.087 0 0zm36.77.061c-15.869 8.873 14.99 8.012 0 0zm-215.33.216c-15.555 10.034 9.297 18.67 3.632 1.897l-1.598-1.4zm348.63.215c-16.628 9.625 14.483 14.64 0 0zm-235.14.123c-15.54 12.161 15.814 8.532 0 0zm15.631 2.585c-17.264 9.85 17.73 10.289 0 0zm111.57.03c19.79.502-14 19.594.597 1.62zm-74.094.093c-14.254 13.543 14.341 13.008 0 0zm113.82 1.384c-11.255 10.708 17.028 7.704 0 0zm20.401.585c-24.726 10.926 19.023 8.748 0 0zm-29.57 2.554c-18.502 8.132 17.762 9.527 0 0zm-192.59.492c-12.756 7.152 12.331 9.315 0 0zm-49.109.616c-22.21 9.473 15.513 9.299 0 0zm114.56.646c-13.164 8.108 13.327 9.335 0 0zm-47.755.338c-17.204 8.387 14.648 10.808 0 0zm-52.709.37c-10.847 12.757 16.75 8.165 0 0zm312.53.03c-13.695 8.774 15.815 12.96 0 0zm34.093.062c-23.123 8.377 18.192 8.614 0 0zm-75.448.615c-20.734 9.01 13.525 15.374 0 0zm17.293.8c-18.555 14.943 18.901 5.83 0 0zm-262.62.093c-16.269 9.563 15.581 13.08 0 0zm298.93 1.077c-19.933 2.41 5.645 30.625 1.091 10.692 14.397-2.91 12.228-5.586-1.09-10.692zm-178.16.4c-19.554 11.802 17.411 9.776 0 0zm-217.3.83c-26.998 19.015 16.454 9.267 0 0zm316.65.985c-14.437 10.07 20.027 7.36 0 0zm-173.73 1.385c-11.566 9.922 15.528 7.811 0 0zm-53.325.984c-16.95 8.78 15.268 11.143 0 0zm-69.017.154c-12.956 6.912 12.528 9.256 0 0zm13.908 0c-21.133 11.601 18.44 8.812 0 0zm13.54.154c-16.639 13.324 14.731 11.741 0 0zm62.278.123c-19.626 11.447 16 9.585 0 0zm181.42.431c-14.293 7.727 13.857 10.368 0 0zm-58.309.462c-18.559 14.563 16.712 9.071 0 0zm73.356 1.353c-17.06 10.022 16.134 10.584 0 0zm-105.14.4c-15.819 12.764 16.07 8.821 0 0zm-196.04.77c-12.827 8.628 12.505 7.264 0 0zm371.12.03c-11.375 10.994 24.178 18.048 5.2 5.242-2.047-1.27-4.734-2.555-5.2-5.241zm-48.094.062c-16.233 12.138 15.874 9.107 0 0zm96.372.985c-15.534 11.124 12.437 12.09 0 0zm-63.786.246c-12.906 11.593 16.326 10.235 0 0zm-114.37 1.723c-12.84 9.677 14.263 13.04 0 0zm-149.51 1.2c-11.903 13.254 16.35 10.749 0 0zm89.633.185c-13.42 9.062 11.552 8.496 0 0zm160.37.184c-17.802 10.45 16.49 9.135 0 0zm57.971.492c-14.076 8.965 14.425 12.965 0 0zm-330.99.154c-12.845 12.95 14.444 9.354 0 0zm210.34.4c-13.583 13.756 13.911 10.343 0 0zm52.771.339c-15.537 6.604 16.13 12.642 0 0zm-164.56.954c-12.52 10.35 15.16 12.29 0 0zm-59.232.738c-25.482 11.816 20.2 9.268 0 0zm23.078.708c-17.064 9.753 15.99 10.497 0 0zm-96.34.4c-19.247 13.392 18.723 7.424 0 0zm257.18 1.2c-14.587 14.06 14.587 9.482 0 0zm-135.33.092c-18.02 11.185 16.197 8.654 0 0zm-155.42.031c-14.936 11.647 17.76 4.412 0 0zm308.93.123c-14.27 10.837 17.02 5.298 0 0zm-298.87.092c-13.045 14.514 27.678 8.083 7.863 4.75-3.072.365-3.993-6.476-7.864-4.75zm312.72.431c-18.707 14.898 18.29 6.204 0 0zm-268.65.523c-15.152 13.574 20.11 7.25 0 0zm160.04 1.354c-13.873 10.69 13.712 6.361 0 0zm152.07.523c-16.962 10.314 16.672 9.097 0 0zm44.708.985c-14.729 12.91 13.572 12.145 0 0zm-205.39.615c-19.984 10.252 16.526 10.577 0 0zm-131.36.431c-20.859 11.884 17.917 8.86 0 0zm171.42.462c-15.314 9.071 15.182 7.73 0 0zm-12.954.43c-20.164 10.836 18.628 9.053 0 0zm153.79.031c-17.889 10.926 15.537 9.765 0 0zm-68.802 1.693c-17.678 13.143 20.492 7.263 0 0zm104.99.553c-10.879 8.537 11.986 8.362 0 0zm-341.55.37c-12.805 12.56 15.21 8.672 0 0zm90.126.338c-13.25 8.175 14.232 9.47 0 0zm161.94.739c-12.908 11.909 15.781 5.677 0 0zm-229.14.184c-17.56 11.395 17.7 8.833 0 0zm172.07.277c-17.934 9.897 16.32 9.984 0 0zm-83.418.154c-13.437 8.848 16.82 4.919 0 0zm110.9.37c-9.993 13.57 20.19 5.292.661.099l-.66-.1zm52.863.03c-14.784 7.688 13.652 10.756 0 0zm-320.96.308c-16.73 8.292 14.528 8.342 0 0zm106.19 2.984c-24.197 12.726 19.763 8.457 0 0zm-82.556.924c-17.504 8.88 15.147 11.512 0 0zm309.98.677c-18.974 13.593 19.403 7.794 0 0zm-351.92.092c1.906 21.967-19.264 14.143-28.698 3.118-2.891 5.67-.025 15.175 2.408 19.925 11.84-3.968 41.194 2.098 30.625-20.718l-1.925-1.637zm197.54.861c-17.488 13.12 14.02 10.618 0 0zm-98.526.062c-16.236 7.8 15.876 9.408 0 0zm-109.05.677c-19.526 10.776 17.915 10.532 0 0zm154.9 0c-16.744 10.36 16.097 10.246 0 0zm264.62.277c-7.146 10.998 9.928 16.494 1.106 2.324l-.138-1.693zm-242.47.061c-13.7 7.282 13.197 9.463 0 0zm209.94.37c-13.404 8.978 17.165 12.082 0 0zm-103.08.861c-11.91 2.553-22.804 17.017-6.185 21.366-14.794 5.808 5.655 8.633 12.22 7.021 7.984 10.99 19.237-13.843 5.494-4.38-12.89-.847-3.033-11.241-.663-13.943-2.874-4.592-30.715 10.32-15.399.124 7.258-.711 12.085-4.882 4.534-10.188zm-42.647.185c-14.547 14.019 14.855 9.083 0 0zm103.48.461c-16.577 7.785 13.906 11.291 0 0zm-268.68.646c-14.499 11.81 19.574 6.048 0 0zm114.62.647c-15.72 12.25 14.508 9.5 0 0zm109.7.923c-14.866 5.748 21.797 20.75 7.816 4.395-2.016-2.098-4.532-4.85-7.816-4.395zm-262.59.738c-24.22 11.854 19.821 8.09 0 0zm218.5.339c-12.598 13.163 14.148 9.733 0 0zm74.587.061c-18.213 10.927 9.217 18.65 1.97.525zm-168.99.985c-16.658.71-9.945 32.46-2.458 11.246 2.817-2.737 9.642-8.544 2.458-11.246zm245.15.338c-16.179 9.849 15.466 11.1 0 0zm-45.909.246c-11.894 13.856 18.17 6.242 0 0zm-314.81 2.954c-9.282 10.47 17.665 12.541 22.992 15.014 2.164-17.554-15.9-11.208-22.992-15.014zm190.44 1.2c-17.72 13.965 17.398 13.446 0 0zm-15.877.246c-12.08 12.347 19.823 5.483.829.114zm-145.11.247c-15.904 13.652 14.092 11.386 0 0zm43.417.215c-10.504 13.037 21.012 7.206 1.418.221l-1.19-.185zm21.847.83c-11.09 11.23 17.15 7.592.699.081l-.699-.08zm42.74.308c-13.949 10.56 15.705 11.048 0 0zm117.17.431c-16.806 8.515 14.866 12.298 0 0zm-101.45.431c-14.154 8.755 16.194 12.626 0 0zm149.36.37c-13.522 7.725 13.371 9.141 0 0zm-244.93.153c-18.598 11.576 16.05 9.347 0 0zm-82.495.739c-16.112 11.472 18.391 7.385 0 0zm230.84.677c-13.702 2.047-9.917 10.22-1.848 11.182 7.349 17.689 8.503-10.338 1.848-11.182zm-83.91 2.307c-12.9 13.311 14.633 9.955 0 0zm251.82.431c-12.063 11.621 17.351 8.036 0 0zm-54.925.154c-14.674 10.635 15.316 11.327 0 0zm-83.572.37c2.4 1.641-3.015 2.01 0 0zm-241.98.43c-18.03 11.933 18.525 5.756 0 0zm-46.524.677c-11.195 12.82 19.104 6.026.784.14zm87.356.585c-17.19 9.708 12.818 8.212 0 0zm313.3.03c-21.75 10.455 20.371 8.242 0 0zm-68.648 1.477c-18.879 10.704 16.321 9.962 0 0zm-184.56.647c-18.27 11.625 14.64 10.37 0 0zm200.68.307c-13.672 11.052 13.891 6.477 0 0zm-113.05 1.17c-17.675 10.308 16.574 9.494 0 0zm-98.003.953c-14.192 9.558 14.666 11.73 0 0zm-73.294.493c-13.67 9.025 15.664 13.05 0 0zm38.278.123c-12.029 14.576 18.58 10.21 0 0zm287.05.4c-15.602 8.412 15.966 6.76 0 0zm-260.35 1.077c-23.82 10.455 14.267 11.498 0 0zm29.601.984c-20.669 11.1 16.044 8.774 0 0zm-138.4.031c-14.578 7.949 17.39 13.174 0 0zm386.16.154c-13.748 10.561 15.816 6.936 0 0zm-157.7.031c-18.058 11.868 18.35 7.787 0 0zm-255.61 1.323c-14.403 5.435 14.287 11.96 0 0zm53.725.246c-13.556 13.304 13.557 11.1 0 0zm34.247.123c-15.684 12.683 13.586 11.972 0 0zm37.047.154c-21.069 11.371 8.318 16.811 2.758.664zm254.07.4c-15.455 11.53 13.013 9.678 0 0zm-184.31.092c-14.358 12.127 16.131 7.487 0 0zm144.65 1.324c-16.106 8.963 16.448 5.874 0 0zm-15.047 1.846c-13.739 6.558 12.731 9.707 0 0zm-262.13.707c-13.608 11.394 25.3 9.35 5.512.51-2.043 4.81-2.917-1.11-5.512-.51zm141.51.216c-18.583 12.579 16.922 8.553 0 0zm76.31 0c-13.114 10.42 16.477 10.12 0 0zm-100.65.03c-14.286 8.756 14.358 11.67 0 0zm47.94.493c-14.95 8.288 16.316 6.522 0 0zm22.74.523c-19.838 11.821 16.102 9.287 0 0zm100.86.062c-12.723 10.805 17.097 11.039 0 0zm10.276.492c-14.254 8.843 16.893 12.6 0 0zm65.263.277c-17.685 11.898 17.34 8.307 0 0zm-126.37 1.23c-20.604 11.864 17.842 9.965 0 0zm14.923.031c-14.766 7.246 15.684 6.981 0 0zm-166.77.524c-13.21 8.973 13.361 11.865 0 0zm-133.27.246c-18.324 11.114 17.327 10.963 0 0zm424.23.954c-11.412 3.334 7.365 13.046 0 0zm-396.56.492c-12.899 11.938 16.965 11.226 0 0zm55.848.061c-16.349 9.968 15.824 9.697 0 0zm159.05.831c-23.015 12.728 20.692 7.564 0 0zm13.385.216c-19.049 8.542 14.333 9.63 0 0zm-57.386.553c-14.106 11.337 18.921 7.656 0 0zm-76.894.647c-13.554 8.927 15.608 6.122 0 0zm-76.864 1.261c-16.88 8.286 14.507 12.297 0 0zm99.787.216c-13.86 11.353 19.123 8.908 0 0zm271.24 1.169c-12.15 12.878 15.005 10.89 0 0zm-89.11.646c-8.89 10.914 17.466 12.999 22.926 18.922 1.555-5.375 22.64-9.51 10.942-14.125-10.3 2.487-25.857 5.127-33.867-4.797zm44.832 1.17c-11.038 13.006 17.873 7.104 0 0zm13.908.153c-12.747 13.65 18.447 9.745 0 0zm-106.74.062c-6.12 11.893-15.662-7.127-18.6 9.567-6.285 13.125 10.178-7.495 9.228 5.036 6.3 3.444 16.347-10.849 9.373-14.604zm32.032 0c-15.058 8.123 14.834 11.199 0 0zm-205.24.862c-12.579 14.637 23.943 4.804 0 0zm-42.186.861c-13.719 8.604 15.628 6.026 0 0zm96.064.154c-15.187 10.646 14.488 6.065 0 0zm134.31.492c-15.462 11.223 16.375 9.958 0 0zm-101.17 1.754c-14.895 12.334 15.17 8.648 0 0zm-172.87.03c-10.493 14.792 22.774 6.322 0 0zm154.16.093c-13.89 12.89 26.918 6.257 5.003 2.139l-1.456.01-3.547-2.148zm225.98 1.385c-13.713 8.458 18.71 12.947 0 0zm-153.42.708c-13.695 6.443 12.64 9.87 0 0zm-201.54.492c-19.013 14.812 18.008 6.754 0 0zm373.43 2.062c-12.707 1.927-11.073 19.152.807 8.13 3.898-2.23 4.82-7.78-.807-8.13zm-421.4.184c-17.568 11.073 17.165 9.18 0 0zm229.54.339c-12.658 13.463 22.377 4.775 0 0zm-105.23 1.23c-17.393 10.393 16.838 9.03 0 0zm43.817.031c-12.556 11.071 15.72 12.17 0 0zm-12.893.77c-19.627 8.522 21.288 10.3 0 0zm-63.356.4c-12.312 12.144 16.096 10.882 0 0zm217.82 2.738c-13.93 9.055 14.855 10.267 0 0zm-272.96.215c-15.118 11.903 17.475 9.302 0 0zm300.47.247c-13.61 12.99 14.274 9.506 0 0zm-57.294 1.23c-13.782 8.916 14.288 10.778 0 0zm18.4.031c-16.08 9.816 15.467 9.9 0 0zm25.94.43c-6.209 4.015-3.511 12.483-9.588 16.204 6.646 4.518 32.731-2.187 12.686-11.173l-2.113-2.251-.986-2.78zm-268.59.032c-12.905 9.555 16.563 10.844 0 0zm291.05.461c-15.66 10.287 15.338 13.101 0 0zm-276.19.493c-14.71 12.18 14.996 8.733 0 0zm72.77 1.292c-10.575 15.808 17.953 8.895 0 0zm215.54.123c-13.675 9.066 14.723 12.48 0 0zm-339.06.03c-18.885 15.464 18.493 7.19 0 0zm408.13.832c-4.68 2.301-21.233 7.16-8.076 9.444 5.162-.735 6.936-4.972 8.076-9.444zm-425.73.307c-9.639 6.967 12.733 11.447 0 0zm77.418.739c-16.462 8.621 20.04 8.03 0 0zm297.49.584c-10.88 9.519-9.66 28.33 9.746 22.524 9.433 1.75 9.465-12.204 16.235-1.053 10.228-5.592-12.496-23.14-10.978-7.915-3.096-15.503-8.828-2.991-13.103 1.37-7.777-5.767 8.588-11.08-1.9-14.926zm31.11 0c-14.96 8.031 16.128 11.048 0 0zm-357.95.708c-14.938 12.182 15.22 8.994 0 0zm143.97.77c-17.104 7.237 17.075 12.23 0 0zm-87.51.43c-12.17 8.37 13.48 8.452 0 0zm76.032.216c-12.757 13.693 14.023 9.816 0 0zm85.141.338c-15.257 6.357 15.054 12.782 0 0zm-57.602.277c-18.255 8.838 14.255 9.257 0 0zm-41.94.954c-14.036 4.964 8.052 6.066-.037 13.617 12.892 4.377 13.487-14.338.037-13.617zm-73.14.646c-14.515 8.72 14.76 13.096 0 0zm196.04.646c-12.214 10.647 16.16 7.948 0 0zm-10.83.339c-15.048 12.036 16.867 7.466 0 0zm-207.61.8c-13.378 12.399 18.847 7.383 0 0zm162.68.43c-15.387 12.91 13.784 12.132 0 0zm-76.619.677c-14.649 8.932 16.343 10.727 0 0zm-94.833.339c-22.63 12.06 20.267 7.962 0 0zm-22.062.523c-13.064 13.838 21.71 5.44 0 0zm300.47.554c-13.588 8.88 15.313 9.738 0 0zm-256.59.03c-10.718 12.645 17.034 9.834 0 0zm273.27.308c-14.026 10.847 17.437 4.666 0 0zm-55.509.585c-15.526 12.133 16.032 7.99 0 0zm-103.51 1.108c-17.782 8.754 13.923 8.984 0 0zm-66.094 1.015c-17.764 9.306 15.926 11.126 0 0zm-24.155.154c-14.336 8.612 15.998 5.543 0 0zm311.98.061c-11.824 6.737 2.913 14.993 0 0zm-231.51 1.231c-14.373 13.553 13.515 10.548 0 0zm71.294.308c-15.92 11.817 16.403 8.878 0 0zm-245.88.092c-14.772 11.847 16.386 8.648 0 0zm14.831 0c-13.542 13.156 14.792 9.947 0 0zm39.91 1.908c-12.233 14.015 14.513 10.334 0 0zm9.292.061c-12.297 12.847 15.198 10.844 0 0zm-27.878.985c-13.841 11.813 16.226 9.76 0 0zm263.3.308c-19.457 11.539 18.959 8.208 0 0zm-150.4.523c-15.258 7.472 13.748 10.508 0 0zm165.24.923c-17.783 8.267 18.629 9.505 0 0zm-43.017.123c-13.455-1.337-13.667 11.846-.301 9.072 18.496.355 11.59-5.046.301-9.072zm-108.99.308c-17.855 6.283 18.054 20.628 3.579 5.557-.373-2.218-.127-6.103-3.579-5.557zm162.22 1.354c-15.506 10.255 16.045 12.183 0 0zm-243.02.061c-14.965 13.781 14.869 9.532 0 0zm320.44 2c-10.813.773-.64 12.756 0 0zm-10.185.708c-12.869-2.961-17.449 13.748-.966 7.885 6.696-.07 7.608-6.881.966-7.885zm-41.909.615c-17.766 7.823 14.92 10.763 0 0zm-247.05.954c-16.669 12.482 20.329 5.198 0 0zm-56.155.37c-13.266 14.83 14.819 11.478 0 0zm147.14.461c-15.949 9.592 15.228 14.623 0 0zm18.985.338c-13.044 9.54 16.535 10.26.49.199zm-33.509.216c-12.474 8.271 13.174 9.476 0 0zm108.77.092c-19.306 12.542 15.921 9.022 0 0zm-57.54.031c-11.041 10.79 14.287 6.805 0 0zm-221.91.43c-19.806 9.676 19.048 7.044 0 0zm234.78.093c-16.489 12.94 16.613 8.578 0 0zm89.695.123c-17.287 10.084 15.908 10.73 0 0zm-268.72.062c-14.024 8.699 16.212 5.973 0 0zm75.141.307c-23.918 12.48 17.004 10.353 0 0zm16.4 2.339c-14.336 12.258 14.865 10.899 0 0zm158.87.37c-15.424 13.14 17.157 7.761 0 0zm-189.14.368c-14.226 6.732 12.484 9.248 0 0zm146.03.093c-14.158 12.5 16.865 7.597 0 0zm30.401.43c-15.005 7.436 13.627 10.273 0 0zm-192.62 2.093c-11.592 9.254 17.978 23.113 6.328 4.666-.823-2.688-3.478-4.75-6.328-4.666zm-90.618.8c-16.02 11.944 17.521 8.462 0 0zm351.15 1.077c-14.124 8.34 16.128 5.937 0 0zm-196.53.123c-14.668 9.215 16.937 11.06 0 0zm-114.46.738c-15.915 9.104 17.425 7.523 0 0zm281.39.123c-13.514 7.136 12.611 8.927 0 0zm14.862.4c-13.306 12.637 18.839 6.353 0 0zm-109.79.37c-10.289 5.095-.94 26.086 2.003 8.296 1.776-2.865 3.507-8.394-2.003-8.296zm-171.85 1.107c-21.183 10.62 19.416 8.548 0 0zm87.787.277c-13.784 6.724 12.717 9.96 0 0zm22.678.862c-15.019 12.75 13.373 12.224 0 0zm44.34.123c-18.644 12.184 13.971 10.745 0 0zm39.909.215c-14.744 8.66 14.656 9.374 0 0zm28.647.247c-14.406 10.915 14.854 7.813 0 0zm-85.695.338c-9.705 12.265 20.255 4.495 1 .123zm-111.33.154c-23.285 8.742 15.323 10.712 0 0zm99.726.308c-14.621 12.322 20.78 5.7 0 0zm82.525.615c-9.42 12.306 19.755 4.758.914.135zm-245.11 1.385c-13.485 10.438 14.608 5.304 0 0zm289.18.276c-13.052 13.121 17.28 10.743 0 0zm-17.385 1.939c-12.199 11.366 20.234 5.994 1.22.173l-1.193-.17zm-256.65.37c-13.804.52-8.611 22.26-.163 7.475 6.66-1.285 7.851-6.579.163-7.476zm113.6.522c-16.702 11.108 16.954 9.017 0 0zm-84.956.77c-11.705 6.586-17.591 25.059-1.797 11.737 3.388 4.31 9.4-13.001 1.797-11.737zm180.71.984c-19.706 11.113 15.946 9.423 0 0zm-198.65.8c-17.119 9.923 16.293 10.006 0 0zm65.848 0c-20.99 13.075 19.632 7.626 0 0zm220.68.339c-14.092 11.084 15.795 9.916 0 0zm-130.5 1.415c-8.749-.28-27.612 11.036-9.163 9.35 14.54-4.793-4.946 17.81 11.66 7.4 4.816-4.76 5.526-14.958-2.497-16.75zm-129.82.615c-15.052 8.764 16.995 11.001 0 0zm274.35.216c-17.211 12.436 15.318 5.124 0 0zm-336.5 1.754c6.964 11.448 14.266.986 0 0zm213.21.646c-14.295 10.502 16.002 10.533 0 0zm76.279.862c-14.342 11.37 17.42 10.23 0 0zm-165.39.03c-9.454 12.226 19.568 5.003.807.134zm-10.8.277c-11.404 13.173 17.231 7.986 0 0zm-84.341.123c-17.599 14.107 15.92 9.097 0 0zm199.48.923c-17.417 10.966 16.551 7.952 0 0zm-25.17.124c-15.36 12.32 14.398 11.033 0 0zm48.247 2.215c-16.937 9.704 15.384 10.873 0 0zm15.847.4c-12.976 11.099 18.437 7.048 0 0zm42.278 1.2c-14.651 12.437 17.233 8.068 0 0zm-209.7.8c-19.861 9.669 14.355 9.667 0 0zm54.371.154c-12.622 11.172 19.411 5.768 0 0zm-95.233.892c-13.934 8.678 13.445 8.782 0 0zm270.65.185c-13.276 8.462 9.888 9.614 0 0zm-90.372.215c-14.041 9.575 17.212 6.922 0 0zm-118.25.246c-15.005 10.653 14.461 8.469 0 0zm58.432.216c-14.976 12.752 14.652 9.938 0 0zm-41.632 1.107c-12.406 11.392 19.883 8.097 0 0zm-28.462.431c-9.944 13.958 18.732 6.932 0 0zm177.51.37c-19.364 11.868 16.47 9.68 0 0zm-206.22 1.876c-14.044 9.029 17.553 12.247 0 0zm141.27.277c-10.074 14.624 23.343 6.174 0 0zm31.293.123c-11.666 8.089 4.398 43.288 4.828 19.006-.574-6.736 14.615-9.568.381-12.493-4.836-.26-1.081-6.777-5.21-6.512zm-86.987.585c-13.474 8.812 16.292 11.91 0 0zm-128.56.339c-19.423 11.566 16.143 8.372 0 0zm14.862.646c-15.816 12.637 17.993 8.781 0 0zm154.62.338c-12.76 7.376 12.653 9.317 0 0zm89.972.923c-12.862 8.035 13.101 9.572 0 0zm23.047 1.908c-16.477 9.267 14.431 10.306 0 0zm-46.494.185c-14.981 12.229 14.629 10.6 0 0zm-206.37.184c-19.011 8.189 14.534 11.034 0 0zm113.82.062c-16.137 8.737 14.863 10.818 0 0zm56.525.861c-19.834 11.244 20.344 6.048 0 0zm-103.17.616c-12.571 7.385 12.465 9.268 0 0zm175.51 1.415c-18.232 9.1 3.03 19.46 3.9 1.729l-1.37-1.073zm-197.05 1.723c-11.361 11.43 16.484 7.047 0 0zm14 .339c-17.467 9.606 15.623 9.99 0 0zm-75.356.215c-18.023 10.59 18.196 9.41 0 0zm92.126.154c-19.032 11.32 16.147 8.62 0 0zm59.879.77c-21.456 8.235 14.383 11.913 0 0zm79.602.676c-20.105 16.013 20.6 4.069 0 0zm-185.02.37c-15.825 13.9 14.84 9.022 0 0zm147.05 1.292c-14.126 11.466 13.961 11.903 0 0zm-21.324.8c-24.493 12.25 20.458 8.404 0 0zm-66.279.092c-16.499 12.4 17.932 7.025 0 0zm18.216.277c-12.828 8.52 14.605 9.28 0 0zm16.708.585c-18.193 3.42-9.37 31.095 1.361 15.024-11.695-8.025 6.504-3.848 1.372-14.084zm100.8.338c-22.6 13.938 18.795 8.226 0 0zm-25.57.892c-23.711 10.215 23.422 8.399 0 0zm-193.27.4c-14.133 8.515 16.016 12.327 0 0zm205.36 3.139c-15.45 10.584 15.842 8.412 0 0zm28.308 2.4c-9.071-.452-17.726 13.116-5.386 3.831-.477-.38 9.02-3.444 5.386-3.83zm-102 1.016c-16.483 8.798 15.064 10.425 0 0zm9.662.061c-17.115 9.11 13.347 9.03 0 0zm20.185.4c-18.91 12.948 19.017 7.013 0 0zm35.478.062c-15.307 11.657 13.499 6.867 0 0zm-185.57.676c-15.546 8.71 16.458 6.384 0 0zm49.817.339c-18.632 14.305 16.657 8.095 0 0zm-21.908.246c-13.97 8.38 16.354 12.87 0 0zm57.355 3.416c-17.68 12.186 15.003 11.123 0 0zm114.8.892c-10.245 4.386-13.577 15.446.784 6.243 5.678-1.196 4.137-6.354-.784-6.243zm-36.093 2.123c-13.15 12.313 20.177 5.262 0 0zm-150.56.37c-16.16 8.089 14.786 11.117 0 0zm101.76.092c-19.865 13.113 16.3 10.103 0 0zm-50.032 1.538c-16.65 8.46 15.187 10.96 0 0zm68.156.03c-16.46 10.256 15.98 9.87 0 0zm-33.94 1.416c-21.782 11.804 18.049 7.913 0 0zm83.388.277c-14.776 12.117 16.72 5.997 0 0zm-41.386 2.954c-2.897 7.797-32.148 5.598-13.933 13.493 5.006 1.207 25.647-8.681 13.933-13.493zm18.985 3.139c-23.632 11.413 18.915 7.713 0 0zm-53.417.061c-13.435 12.964 16.943 9.502 0 0zm41.355 1.2c-14.596 10.66 15.855 10.276 0 0zm-63.417 7.139c-13.512 4.593 13.519 2.71 0 0z" fill="url(#q)" filter="url(#r)" opacity=".3" style="fill:url(#q)"/><path d="M208.449 1.927c-9.198 5.965 13.664 1.636 0 0zm-30.812.406c-8.28-3.481-2.85 5.795 0 0zm45.28 0c2.647 10.92 14.184-1.673 0 0zm-23.061.125c-10.3 7.734 6.59 6.47 0 0zm-42.844 2.625c-10.144 4.059 10.53 4.15 0 0zm91.469.5c-4.062 9.365 10.455-1.81 0 0zM146.73 7.177c-10.923-1.47.675 6.312 0 0zm70.25 1.78c-8.345 6.336 8.68 7.129 0 0zm17 0c-5.02 7.188 8.826 2.936 0 0zm-100.28 1.72c-11.958 1.734 1.999 11.094 0 0zm140.19.28c-9.021 7.389 7.503 4.744 0 0zm-135.22 1.345c-9.257 5.29 9.995 3.15 0 0zm39.844 1.844c-5.613 8.733 8.247 5.987 0 0zm78.906 1.156c-8.176 4.68 7.83 4.405 0 0zm-92.406.094c-9.854 7.367 8.213 5.69 0 0zm-15.375.906c-8.832 4.675 8.007 4.799 0 0zm46.156.25c-8 6.22 9.462 4.986 0 0zm-66 .625c-9.151 6.029 8.34 5.794 0 0zm80.312 1.53c-12.66 5.313 9.527 4.54 0 0zm24.875.095c-4.963 9.559 11.816 6.952 0 0zm60.75 1.687c-11.664 5.849 6.984 9.49 0 0zm-159.28.25c-9.602 6.38 8.53 5.338 0 0zm133.16.157c-9.41 6.078 8.576 5.359 0 0zm-94.938 1.75c-10.43 5.258 9.765 3.267 0 0zm-50.72.156c-9.224 5.292 9.526 3.33 0 0zm159.84 1.719c-8.251 6.27 7.49 5.58 0 0zm-182.12 2.312c-8.626 3.364.278 5.344 0 0zm67.189.875c-9.153 5.318 8.85 4.738 0 0zm51.75.125c-5.833 8.674 8.85 5.714 0 0zm-40.156 1.656c-10.425 6.044 8.84 5.028 0 0zm75.156.282c-3.337 10.414 12.938 4.686 0 0zm-6.97.843c-8.768 5.253 8.845 5.215 0 0zm-12.343.813c-7.944 4.694 7.397 4.342 0 0zm-120.16.625c-6.502 7.705 10.174 5.064 0 0zm97.53 1.53c-10.656 5.417 10.049 4.524 0 0zm-79.78.689c-6.187 5.837 9.266 2.087 0 0zm12.53.062c-8.465 6.202 8.799 6.573 0 0zm12.157 1.78c-9.832 7.018 6.377 6.174 0 0zm36.156 1.783c-11.12 3.556 5.162 7.285 0 0zm-104.12.187c-7.368 5.978 8.475 5.61 0 0zm236.81 1c-5.385 6.542 6.475 6.799 0 0zm-39.97 2.094c-6.89 6.493 6.412 9.42 0 0zm-62.061 1.062c-9.74 4.502 8.497 3.287 0 0zm-19.844.063c-8.906 7.458 7.886 5.795 0 0zm64.812.156c-12.4 5.98 11.67 3.496 0 0zm40.78.53c-6.377 7.22 11.305 2.67 0 0zm-138.25.72c-8.77 6.276 8.546 6.247 0 0zm166.91.313c-9.084 6.894 7.242 5.39 0 0zm-80.405 1.562c-3.16 9.61 12.683 2.25 0 0zm-14.75.53c-4.97 7.096 9.888 2.908 0 0zm112.97.845c-7.966 5.14 7.616 4.983 0 0zm-263 .875c-5.85 9.275 11.196 4.959 0 0zm118.66.375c-10.215 5.025 9.074 3.89 0 0zm-135.38.688c-8.157 7.485 10.79 3.255 0 0zm247.59 0c-8.4 5.887 9.1 4.155 0 0zm-189.34.312c-5.1 7.949 9.459 4.126 0 0zm143.5 1c-11.31 5.035 11.98 2.66 0 0zm-42.5.938c-9.453 7.19 9.018 5.878 0 0zm-40.938.468c-4.472 7.017 9.43 2.398 0 0zm94.812 1c-9.03 5.647 10.108 3.55 0 0zm17.5.407c-10.765 5.003 4.69 8.394 0 0zm-234.69.218c-8.404 3.572 5.455 6.193 0 0zm240.75 1.157c-8.114 4.674 8.104 3.47 0 0zm56.156.062c-7.774 6.404 8.178 7.92 0 0zm-259.09.313c-7.12 5.736 9.48 1.323 0 0zm188.28.78c-8.7 6.12 8.336 6.31 0 0zm-24.938.47c-4.915 8.93 20.52 4.082 0 0zm-150.81.375c-6.884 6.56 11.26 1.463 0 0zm127.62.312c-6.43 6.617 7.382 7.055 0 0zm18.844.875c-9.61 8.443 7.487 6.878 0 0zm-81.562.594c-9.09 7.126 6.125 5.549 0 0zm157.59.03c-7.487 5.298 7.556 5.255 0 0zm-277.31.064c-6.783 1.99 1.966 3.518 0 0zm294.16.593c-9.306 5.508 9.534 5.192 0 0zm-77.438 1.72c-6.728 8.133 12.47 1.23 0 0zm-87.688.718c-9.247 5.38 7.474 5.21 0 0zm-85.28.219c-6.43 8.766 9.854 5.67 0 0zm48.5.218c-9.787 5.728 6.817 5.85 0 0zm48.218.407c-11.65 4.774 5.457 8.606 0 0zm125.25.53c-9.945 5.906 9.53 3.887 0 0zm-260.28.313c-6.52 6.425 7.313 8.668 0 0zm219.62.594c-8.866 5.463 7.027 5.026 0 0zm-21.344.188c-7.418 5.605 7.304 5.728 0 0zm-51.47.593c-11.775 6.52 5.367 8.125 0 0zm86.657.094c-9.072 6.588 7.984 5.22 0 0zm-74.906.313c-7.443 4.656 7.367 4.403 0 0zm124.25.937c-9.987 5.368 8.469 4.8 0 0zm-216 1c-9.593 6.022 8.09 5.613 0 0zm205.5.688c-9.762 5.83 5.723 9.232 0 0zm-225.59.78c-6.05 9.897 15.98.374 0 0zm66.375.532c-8.31 7.873 6.74 6.736 0 0zm187.06 2.03c-8.644 5.826 8.676 5.239 0 0zm-286.78.595c-8.261 5.522 7.572 4.984 0 0zm231.25.156c-7.391 6.215 12.095 1.743 0 0zm-59.562.188c-7.328 9.586 13.262 1.2 0 0zm-88.125.437c-5.69 6.906 11.428 2.97 0 0zm107.53.094c-8.164 6.55 7.75 6.874 0 0zm-68.28.594c-8.117 6.075 6.542 5.25 0 0zm90.937.625c-8.213 4.668 7.86 4.856 0 0zm-237.62.093c-6.854 8.566 11.32 5.394 0 0zm290.72.157c-4.062 9.242 11.76-.77 0 0zm-298.16.156c-8.346 4.257 6.272 5.079 0 0zm277.72 0c-8.094 4.942 7.632 4.625 0 0zm-85.188.063c-10.195 5.76 8.516 5.304 0 0zm-87.625 2.25c-7.308 5.8 7.367 5.47 0 0zm130.78 1c-9.938 7.94 6.627 7.1 0 0zm-190.12 1c-6.91 7.406 11.65 1.913 0 0zm288.91.312c-5.137 7.892 10.767 1.45 0 0zm-149.94.688c-8.423 7.17 6.932 6.436 0 0zm29.406 1.656c-6.67 6.382 6.422 8.427 0 0zm-41.562 1.375c-7.528 5.306 6.826 5.303 0 0zm128.28.937c-8.285 7.006 7.937 7.038 0 0zm-79.22 1.094c-2.354 9.82 14.979 2.393 0 0zm72.939.219c-11.162 4.338 9.928 3.02 0 0zm-174.06.219c-7.621 6.134 6.442 7.63 0 0zm-46.344.093c-7.655 7.768 5.92 6.845 0 0zm199.66.625c-7.485 5.783 7.58 5.53 0 0zm72.438.125c-8.091 5.562 8.944 3.867 0 0zm-333.44.25c-4.815 6.524 5.874 7.396 0 0zm84.53.063c-8.856 5.577 7.883 5.015 0 0zm161.59.094c-9.968 5.408 9.178 4.164 0 0zm-108.53.062c-9.277 5.366 9.153 5.532 0 0zm162.97 0c-13.727 5.08 11.538 3.468 0 0zm-208.06 1.156c-8.267 6.048 10.989 1.487 0 0zm101.12.625c-9.114 4.38 8.407 3.238 0 0zm-173.78.719c-7.481 6.365 7.043 6.862 0 0zm80.72 1.75c-6.65 7.142 7.165 8.868 0 0zm192.41.03c-9.114 5.74 8.835 5.47 0 0zm-7.812.595c-7.782 4.226 7.66 4.447 0 0zm-116.56.375c-8.375 5.088 8.24 5.275 0 0zm149.09.156c-3.2 9.8 15.133 3.454 0 0zm13.156.03c-7.176 4.992 7.667 4.03 0 0zm-284.56.689c-5.163 6.373 8.034 2.99 0 0zm109.25.219c-5.576 9.009 8.65 6.02 0 0zm24.53.468c-8.446 4.897 7.752 4.649 0 0zm127.44.782c-8.692 4.69 6.455 4.76 0 0zm-75.343.687c-9.881 5.623 9.333 3.609 0 0zm-111.31.094c-9.697 6.287 8.955 5.785 0 0zm83.406 1.156c-6.317 5.839 8.773 1.553 0 0zm-122.31.375c-5.268 6.949 8.488 3.044 0 0zm257.75.063c-6.876 5.525 7.475 6.439 0 0zm-367.75.968c-8.235 7.268 10.075 2.362 0 0zm11.219 1.313c-10.581 7.734 7.307 6.544 0 0zm315.94 0c-11.821 3.419 5.249 7.036 0 0zm-197.38.062c-6.926 7.628 10.097 5.083 0 0zm117.22.688c-9.134 5.479 8.257 4.943 0 0zm129.91 0c-6.81 8.487 13.194 1.536 0 0zm-347.53 1.03c-5.601 5.789 8.59 2.274 0 0zm280.16.22c-5.79 7.389 9.76 3.39 0 0zm-251.62.937c-11.972 4.79 11.016 3.67 0 0zm108.5 0c-10.606 4.505 9.086 4.33 0 0zm120.81.282c-12.542 5.662 10.983 3.175 0 0zm53 .406c-6.601 6.684 6.492 6.303 0 0zm16.688.03c-13.191 2.499 7.48 5.263 0 0zm-266 .689c-14.083 4.86 8.283 5.037 0 0zm105.84.343c-9.117 6.674 8.442 5.77 0 0zm-125.22.25c-8.564 4.056 7.05 3.64 0 0zm104.81 1c-4.74 6.764 5.716 7.47 0 0zm-20.344 1.344c-8.228 5.105 7.86 4.936 0 0zm-115.38.813c-4.2 7.938 10.209 3.735 0 0zm333.56.312c-10.701 5.868 7.284 6.07 0 0zm-164.69.03c-8.867 5.758 8.575 5.299 0 0zm52.28.22c-5.588 9.244 10.817 4.55 0 0zm-72.25.75c-7.075 7.598 13.35.91 0 0zm177.5.719c-8.73 6.478 8.354 6.624 0 0zm-241.38.562c-5.492 9.323 13.05 1.38 0 0zm-47.968.844c-8.104 5.656 8.513 6.06 0 0zm309.28.813c-2.236 4.52 7.885 4.75 0 0zm-185.88.03c-5.018 8.599 11.927 2.626 0 0zm134.28.782c-8.333 5.762 7.74 5.056 0 0zm-103.94.219c-9.372 5.15 8.773 3.255 0 0zm-48.344 1.219c-8.147 5.577 7.972 4.79 0 0zm-16.25.03c-11.14 5.448 12.39 3.057 0 0zm-161.97.157c-8.037 4.777 7.815 4.374 0 0zm52.625 3.375c-6.335 6.252 8.64 2.678 0 0zm34.344.032c-10.651 4.685 5.26 8.246 0 0zm123.22 0c-5.135 7.036 11.032 1.83 0 0zm-67.188.312c-8.378 6.324 10.736 4.342 0 0zm233.47.375c-7.201 5.806 6.623 5.453 0 0zm-81.031.28c-9.961 9.062 6.41 7.504 0 0zm-52.656.032c-6.204 6.822 8.212 7.27 0 0zm-178.75.282c-8.63 5.553 8.575 5.002 0 0zm-37.875 1.03c-11.93 4.555 10.677 3.512 0 0zm337.56.157c-11.271 4.924 5.027 8.41 0 0zm-206.25.219c-11.296 5.305 12.204 3.278 0 0zm-54.562.219c-9.406 4.992 9.094 3.16 0 0zm83.938.718c-10.234 5.676 7.207 5.58 0 0zm83.344.22c-5.51 6.706 9.505 2.273 0 0zm-259.41.405c-7.905 4.552 8.09 4.249 0 0zm164.34 1.25c-8.713 5.438 9.184 5.742 0 0zm-185 .375c-9.42 5.943 9.884 5.888 0 0zm-8.47.157c-5.542 4.718 1.686 3.113 0 0zm62.345 0c-9.931 5.41 7.26 5.733 0 0zm304.22 1c-9.68 4.16 8.86 3.34 0 0zm-351.47.25c-7.755 5.056 7.979 3.652 0 0zm127.56 0c-6.116 6.034 6.412 8.307 0 0zm96.719 0c-8.9 5.605 9.327 5.983 0 0zm102.12.656c-6.502 6.916 9.51 3.95 0 0zm-71.125.344c-8.177 6.473 8.21 6.97 0 0zm138.47.312c-6.403 4.695 7.544 7.033 0 0zm-357.16.563c-8.421 7.016 11.802 1.149 0 0zm343.12.812c-11.524 3.093 6.54 6.06 0 0zm-138.03.75c-8.017 6.317 7.038 7.136 0 0zm61.406.094c-8.455 5.905 7.976 5.646 0 0zm37.156.094c-8.906 5.222 8.486 4.22 0 0zm-43.781.53c-6.364 7.17 6.738 10.057 0 0zm-88.188.376c-9.224 5.967 12.469 1.58 0 0zm76.5.187c-7.64 6.747 9.062 8.525 0 0zm-223.94.813c-9.994 4.855 6.656 4.842 0 0zm-78.97.03c-6.65 5.768 2.873 3.85 0 0zm40.376.595c-10.368 5.814 9.912 3.88 0 0zm-15.656.312c-7.982 6.04 9.167 4.5 0 0zm309.28.032c-6.715 6.766 7.84 7.242 0 0zm-96.906.28c-9.108 7.51 7.344 6.155 0 0zm-21.22.782c-7.96 4.878 7.314 4.58 0 0zm-28.187.313c-6.675 6.285 5.26 7.476 0 0zm-21.188.375c-10.024 5.244 8.072 5.205 0 0zm205.06.625c-7.082 5.228 7.78 4.035 0 0zm-125.12.406c-11.02 4.704 4.873 8.667 0 0zm-121.12.219c-11.895 5.84 9.706 4.793 0 0zm-95.281.093c-6.39 7.08 12.274 1.754 0 0zm264.84.125c-12.48 4.817 9.679 3.492 0 0zm-87.25.22c-9 4.122 6.683 4.097 0 0zm106.72 1.25c-7.14 7.51 11.738 1.48 0 0zm-209.91.062c-9.247 6.52 13.176 1.095 0 0zm301.38.03c-7.664 5.809 7.318 5.31 0 0zm-17.25 1.126c-3 9.843 14.193 2.668 0 0zm-297.84.719c-8.254 5.638 7.876 5.112 0 0zm-49.75.156c-9.23 5.867 9.087 5.687 0 0zm20.344.78c-7.706 6.35 8.533 8.055 0 0zm83.812.564c-6.046 5.67 5.443 7.489 0 0zm195.47.718c-7.018 6.673 10.339 1.293 0 0zm-328.78.5c-8.761 5.355 9.438 3.454 0 0zm211.69.625c-13.007 4.994 10.362 3.633 0 0zm126.56.594c-5.95 8.024 9.332 5.084 0 0zm-173 .469c-3.053 10.008 11.85 2.656 0 0zm87.844 0c-7.95 5.476 8.29 4.116 0 0zm-49.844.344c-9.025 5.69 8.927 5.77 0 0zm-194.25.187c-6.604 7.066 10.52 1.415 0 0zm256.19 0c-5.371 8.858 12.922-.738 0 0zm-243.84.125c-12.336 1.927 6.84 5.965 0 0zm199.88.938c-8.1 7.495 11.176 1.347 0 0zm128.72.125c-8.655 4.198 6.643 3.947 0 0zm-32.406 2.03c-8.103 5.005 7.515 4.395 0 0zm-281.22.407c-5.877 6.037 9.567 2.867 0 0zm143.84.344c-9.412 5.56 7.59 5.453 0 0zm185.22 1c-9.87 5.313 7.336 5.266 0 0zm-226.62.156c-5.565 6.506 6.77 7.19 0 0zm-156.59.375c-3.928 9.039 12.563 3.05 0 0zm253.22.313c-4.777 7.455 10.224 2.864 0 0zm147.19.562c-5.69 6.116 6.944 6.426 0 0zm-96.906.969c-12.458 5.137 4.85 7.852 0 0zm-169.78.28c-10.283 6.833 7.597 5.95 0 0zm287.12.564c-2.642 9.38 12.19 2.318 0 0zm-248.09.187c-6.554 5.78 7.163 8.147 0 0zm176.81.469c-12.784 3.704 7.576 6.85 0 0zm-122.19.312c-8.107 5.66 8.624 6.632 0 0zm-116.97.938c-7.747 4.212 6.094 3.9 0 0zm161.66.78c-8.948 6.028 8.727 5.974 0 0zm-202.66 1.47c-5.606 6.857 10.09 2.6 0 0zm244.44 0c-9.33 5.313 9.35 4.828 0 0zm-36.094.312c-10.29 5.4 7.805 4.93 0 0zm-179.31.594c-9.605 5.115 9.08 3.363 0 0zm84.375.063c-3.733 7.952 10.886 1.41 0 0zm106.22.312c-8.128 5.232 8.106 3.816 0 0zm-250.59.469c-4.591 7.966 10.204 3.552 0 0zm372.97.437c-5.158 7.738 12.012 2.323 0 0zm-323.31.063c-9.89 4.893 8.027 5.162 0 0zm-73.094.28c-3.877 8.72 12.306 2.096 0 0zm346.88.25c-8.402 4.979 7.579 4.367 0 0zm36.25 0c-8.932 4.296 7.566 3.57 0 0zm-141.28.376c-8.83 5.48 8.895 5.202 0 0zm-48.656.53c-13.44 6.794 6.804 8.084 0 0zm36.562.095c-8.5 4.683 8.325 3.438 0 0zm-218.72.219c-4.817 6.405 7.853 2.869 0 0zm319.09 0c-5.81 5.494 5.685 8.002 0 0zm35.188.219c-9.86 8.193 7.817 6.863 0 0zm-238.62.093c-8.733 6.005 7.289 5.156 0 0zm125.41 1.25c-8.176 4.755 7.379 4.325 0 0zm14.28 1.25c-5.27 6.088 8.864 2.447 0 0zm-124.78.157c-6.527 6.614 10.227 2.505 0 0zm39.032.093c-7.284 7.599 6.234 9.743 0 0zm94.594.406c-9.145 6.212 8.558 6.077 0 0zm20.156 1.032c-2.765 8.214 10.349 1.738 0 0zm20.719.593c-13.085 4.996 10.525 4.102 0 0zM43.54 164.3c-8.874 5.18 8.295 3.212 0 0zm256.41 1.22c-9.505 5.262 9.133 5.102 0 0zm-20.25.093c-7.577 6.615 11.323 1.77 0 0zm40.875.156c-12.608 5.28 10.598 3.596 0 0zm-195.84.5c-7.425 5.16 7.268 5.73 0 0zm-50.25.625c-11.942 5.22 9.537 4.116 0 0zm231.75.03c-9.672 5.014 8.438 4.878 0 0zm-33.125.47c-9.364 5.745 8.974 5.404 0 0zm-81.781.156c-8.182 6.286 8.386 5.689 0 0zm-48.938.344c-7.52 4.529 7.037 4.27 0 0zm-52.656.344c-4.137 7.02 8.349 3.45 0 0zm316.62.062c-6.887 8.125 10.482 5.328 0 0zm34.438.063c-12.02 4.229 10.548 3.57 0 0zm-148.5.312c-9.336 4.166 8.45 3.202 0 0zm72.562.313c-13.453 6.967 5.398 8.724 0 0zm17.938.78c-10.143 5.124 8.749 4.413 0 0zm-266.94.095c-9.524 7.297 8.435 6.086 0 0zm303.34 1.156c-8.086 7.69 6.874 5.9 0 0zm-181.09.375c-9.107 4.823 8.18 4.866 0 0zm46.53.469c-3.08 7.68 11.083 1.37 0 0zm-267.31.375c-8.83 5.24 8.383 4.127 0 0zm408.94.562c-9.444 5.309 8.23 4.636 0 0zm-125.69.22c-9.142 5.62 9.162 5.373 0 0zm38.5.218c-6.265 6.912 11.593.972 0 0zm74.845 1.062c-5.734 8.125 10.26 6.973 0 0zm-251.25.344c-4.973 6.472 9.108 2.928 0 0zm-54.47 1c-8.516 5.319 8.22 5.204 0 0zm-69.968.156c-7.714 5.2 7.852 5.273 0 0zm14.156 0c-9.85 4.517 8.81 4.402 0 0zm14.094.157c-10.172 8.755 7.565 7.286 0 0zm62.969.093c-10.023 6.13 8.086 5.502 0 0zm184.31.47c-8.286 5.285 7.606 5.02 0 0zm-18.906.312c-7.672 7.869 7.449 6.886 0 0zm-39.531.125c-12.675 6.32 7.147 7.953 0 0zm-244.03.343c-7.175 5.866 7.248 4.138 0 0zm317.62 1.063c-8.98 5.795 8.68 5.3 0 0zm-106.25.375c-8.947 6.629 7.503 5.453 0 0zm-199.16.78c-8.34 4.623 6.898 4.344 0 0zm260.88.095c-8.613 6.28 7.665 5.397 0 0zm67.188 0c-9.125 6.22 7.39 5.467 0 0zm48.625 0c-9.586 5.773 9.15 5.84 0 0zm49.688.937c-10.365 5.114 5.354 8.308 0 0zm-35.22.063c-6.554 5.777 7.36 5.83 0 0zm4.97.094c-9.063 7.392 6.632 6.014 0 0zm-34.72.156c-6.53 5.978 7.9 5.76 0 0zm-116.97 1.75c-5.671 8.333 7.793 6.408 0 0zm-151.31 1.25c-5.481 8.773 9.062 5.718 0 0zm91.063.156c-8.21 4.978 5.724 5.193 0 0zm88.28.094c-8.811 4.94 8.187 4.915 0 0zm74.25.125c-8.377 4.5 7.32 4.289 0 0zm59.282.469c-8.23 6.33 7.382 6.885 0 0zm-336.09.156c-6.827 7.02 6.743 5.88 0 0zm213.62.406c-7.368 8.376 5.929 6.6 0 0zm99.125.125c-4.494 7.01 9.316 3.219 0 0zm-46.188.25c-7.724 5.375 8.045 4.366 0 0zm-166.38.938c-6.91 6.255 7.874 7.868 0 0zm90.28.687c-3.89 9.318 16.033 1.377 0 0zm-151.53.094c-10.813 5.632 9.56 3.81 0 0zm23.876.75c-8.852 5.1 8.668 5.437 0 0zm-97.562.375c-9.036 5.163 8.453 3.997 0 0zm261.47 1.187c-8.18 7.795 6.364 6.608 0 0zm-138.06.125c-8.62 5.145 8.563 3.469 0 0zm-157.28.032c-9.192 5.573 11.356 2.595 0 0zm313.19.125c-7.16 7.26 11.839 1.166 0 0zm-303.59.093c-3.202 9.453 12.32 1.773 0 0zm318.16.407c-8.43 5.132 7.6 4.84 0 0zm-273.34.562c-5.15 7.332 11.538 2.217 0 0zm163.03 1.344c-8.646 4.977 7.764 4.714 0 0zm-196.84.469c-8.74 6.965 7.19 5.687 0 0zm351 .093c-8.067 4.295 7.84 4.292 0 0zm45.656 1c-8.162 8.306 6.006 7.53 0 0zm-209.38.625c-7.911 5.044 7.773 3.606 0 0zm-133.03.438c-9.236 4.315 8.083 4.327 0 0zm173.78.469c-6.17 5.809 8.966 1.439 0 0zm-12.812.468c-10.527 4.744 8.839 4.39 0 0zm156.06 0c-7.71 4.918 6.807 4.246 0 0zm-69.312 1.72c-10.095 6.367 12.05 4.035 0 0zm106.88.53c-7.74 4.58 7.437 4.4 0 0zm-346.94.375c-6.975 5.464 7.248 6.36 0 0zm90.469.407c-5.576 6.425 8.85 2.765 0 0zm165.78.687c-8.431 4.827 8.193 3.986 0 0zm-233.41.219c-8.7 4.869 8.685 4.41 0 0zm174.5.312c-8.742 4.83 7.764 4.48 0 0zm-84.625.125c-8.841 6.28 11.955 1.098 0 0zm113.06.344c-3.198 10.235 13.613 1.945 0 0zm53.094.063c-7.694 4.996 7.677 5.48 0 0zm-325.88.312c-9.086 4.298 8.199 3.408 0 0zm107.75 3.094c-11.233 5.062 8.286 4.15 0 0zm-84 .875c-8.986 5.515 8.275 5.33 0 0zm315.34.688c-9.18 5.814 9.424 4.037 0 0zm-357.19.062c-5.663 8.845 11.42 4.66 0 0zm200.62.875c-10.475 5.726 5.355 8.396 0 0zm-100.59.156c-9.541 4.88 9.055 3.228 0 0zm-110.81.625c-9.036 5.615 8.877 4.177 0 0zm157.47 0c-8.942 5.78 8.437 5.322 0 0zm269.34.219c-4.852 8.624 5.113 6.623 0 0zm-246.97.156c-8.707 5.8 8.96 5.25 0 0zm-197.53.25c-10.811 5.517 8.56 4.773 0 0zm410.62.094c-5.184 7.937 10.359 4.27 0 0zm-104.47.875c-7.31 7.798 6.467 6.407 0 0zm-42.781.156c-7.754 6.602 6.272 7.225 0 0zm104.22.5c-7.716 5.56 7.433 4.963 0 0zm-272.31.625c-7.533 6.895 12.458 1.696 0 0zm116.84.657c-9.496 5.442 5.948 7.104 0 0zm112.41 1.03c-12.55 1.702 6.234 6.472 0 0zm-25.281.438c-12.732 5.233 11.206 3.492 0 0zm-243.16.25c-11.825 4.867 9.486 4.019 0 0zm222.53.313c-6.226 6.1 6.11 7.425 0 0zm74.875.093c-9.944 5.575 6.62 5.51 0 0zm-321.34.313c-13.52 5.942 5.112 9.373 0 0zm150.22.687c-9.046 5.588 8.62 5.24 0 0zm-179.44.313c-2.688 8.6 11.509 2.216 0 0zm428.28.062c-9.404 6.12 9.27 5.568 0 0zm-46.25.188c-5.12 7.145 10.575 2.6 0 0zm62 .406.15.96zm-116.59.625c-5.782 6.496 6.173 7.623 0 0zm-17.094.125c-6.19 6.535 10.069 2.956 0 0zm-303.25 1.375c-7.883 6.546 7.92 6.688 0 0zm54.906.53c-6.535 6.769 10.792 2.236 0 0zm110.66.783c-11.038 5.24 9.967 3.387 0 0zm117 .28c-8.16 5.093 7.814 4.642 0 0zm-34.25.157c-11.292 4.767 9.17 4.135 0 0zm-178.72.03c-11.056 5.895 13.01 3.03 0 0zm163.12.158c-6.046 8.692 13.08 1.18 0 0zm-147.62.28c-9.028 8.245 6.133 7.7 0 0zm44.125.188c-3.078 10.262 14.657 2.516 0 0zm211.66.125c-8.837 4.927 8.42 4.392 0 0zm-334.81.032c-5.752 7.494 10.684 2.015 0 0zm7.812.375c-6.61 5.752 7.87 5.302 0 0zm137.53.312c-4.816 8 10.602 2.805 0 0zm145.97 0c-8.708 5.708 7.934 4.894 0 0zm-102.5.313c-8.758 7.746 8.342 6.529 0 0zm-203 .156c-9.234 5.803 9.372 6.198 0 0zm71.53.062c-12.13 5.27 10.178 3.363 0 0zm249.72.25c-9.32 5.858 9.555 5.9 0 0zm-103.06.438c-7.318 8.148 11.164 4.902 0 0zm152.12.375c-8.997 5.776 8.3 5.597 0 0zm-248.91.156c-8.342 4.75 7.025 4.407 0 0zm176.56.156c-9.561 5.153 7.805 4.259 0 0zm-259.94.625c-8.9 5.466 9.135 3.34 0 0zm233.81.688c-6.987 7.477 9.305 4.474 0 0zm-15.655.25c-9.251 5.765 8.819 5.337 0 0zm9.188 1.156c-9.79 7.412 8.569 6.35 0 0zm-184.91.53c-5.274 10.493 14.025.17 0 0zm106.94.345c-6.58 6.308 6.699 7.624 0 0zm-14.531.063c-7.395 6.85 6.402 5.75 0 0zm270.38.375c-6.928 6.838 12.02 2.39 0 0zm-56.188.156c-7.035 5.839 7.104 6.772 0 0zm-330.53.844c-9.731 5.258 9.78 2.853 0 0zm248.25.187c-12.754 5.344 11.01 4.383 0 0zm-295.19.469c-4.888 8.59 12.085 2.562 0 0zm88.719.594c-10.716 3.17 5.032 6.454 0 0zm317.5.093c-10.741 5.15 10.725 3.254 0 0zm-96.438 1c-5.828 7.784 10 5.645 0 0zm26.656.47c-8.353 4.587 7.653 4.42 0 0zm-50.906.374c-4.707 7.96 10.794 2.464 0 0zm-135.78.25c-10.751 4.554 6.036 8.244 0 0zm203.59.313c-9.58 5.819 9.06 5.3 0 0zm-89.812.656c-7.167 7.627 9.984 4.54 0 0zm-26 .562c-6.023 5.875 8.902 2.06 0 0zm64.062.532c-6.06 6.77 11.114 1.023 0 0zm-162.59.406c-8.936 7.386 8.22 6.004 0 0zm-75.094.53c-6.783 8.569 10.139 5.469 0 0zm39.656.095c-6.69 9.252 12.022 6.39 0 0zm291.06.469c-10.625 5.132 9.7 3.028 0 0zm-264.5 1.062c-12.708 4.772 5.317 7.368 0 0zm30.188 1c-10.828 5.466 8.14 4.806 0 0zm-141.03.03c-5.311 7.23 9.606 3.16 0 0zm392.28.158c-6.285 6.776 10.94 2.967 0 0zm-160.44.03c-5.54 7.123 10.045 1.21 0 0zm-259.03 1.345c-8.874 2.933 4.839 5.045 0 0zm55.094.218c-6.714 6.38 5.09 8.684 0 0zm34.53.157c-9.325 8.444 6.404 7.339 0 0zm37.032.156c-6.355 6.042 9.7 1.437 0 0zm259.03.375c-9.254 5.584 4.518 7.706 0 0zm-187.28.094c-8.272 5.009 7.925 4.915 0 0zm146 1.375c-8.645 5.558 11.523 1.47 0 0zm-15.125 1.875c-8.678 5.36 8.39 5.209 0 0zm-266.16.718c-8.084 5.324 8.706 5.617 0 0zm221.97.188c-8.131 5.908 8.565 7.326 0 0zm-102.41.03c-8.854 6.49 7.676 5.859 0 0zm24.312 0c-8.506 4.714 8.36 4.647 0 0zm-137.16.126c-4.55 8.134 10.08 5.38 0 0zm160.56.406c-7.79 6.125 11.677 1.532 0 0zm-107.81.063c-11.065 5.482 10.396 3.238 0 0zm131.28.469c-10.324 5.253 8.84 4.818 0 0zm103.09.03c-6.534 6.71 8.66 6.6 0 0zm9.562.532c-5.037 7.482 9.07 3.144 0 0zm66.688.313c-9.376 5.88 9.748 3.756 0 0zM321.92 246.3c-9.22 5.205 8.822 4.575 0 0zm14.812.125c-9.035 6.138 12.517 1.047 0 0zm-168.78.407c-6.868 5.835 6.75 6.997 0 0zm-135 .25c-10.36 6.772 8.506 5.778 0 0zm430.47 1c-8.09 1.816 6.112 6.843 0 0zm-402.06.469c-6.065 6.503 7.57 6.354 0 0zm56.03.093c-8.476 5.269 8.14 4.836 0 0zm161.5.844c-11.593 5.424 10.815 3.579 0 0zm13.376.219c-10.854 4.99 8.94 4.22 0 0zm-58.156.562c-5.91 8.078 11.285 1.369 0 0zm-78.125.688c-6.753 5.753 9.492 1.563 0 0zm-78.22 1.25c-9.262 5.673 9.344 5.636 0 0zm101.72.218c-4.783 6.95 9.975 2.873 0 0zm276.06 1.157c-5.63 6.347 6.308 7.19 0 0zm-91.03.718c-9.214 4.644 8.225 4.938 0 0zm45.625 1.157c-4.81 8.966 11.325 4.169 0 0zm14.344.125c-6.066 8.256 10.58 5.296 0 0zm-108.88.03c-9.387 4.284 6.048 7.136 0 0zm32.625.063c-8.435 4.783 7.623 4.82 0 0zm-45.656.22c-5.047 7.918 11.364 2.954 0 0zm-162.47.624c-5.282 10.37 14.485.305 0 0zm-43.47.938c-7.316 5.962 10.375 1.31 0 0zm98.407.093c-9.54 4.859 7.805 4.197 0 0zm136.19.5c-9.112 6.254 8.79 5.64 0 0zm39.875.25c-4.913 7.719 11.18 2.887 0 0zm28.5 0c-10.226 5.113 8.357 4.605 0 0zm-9.844.938c-10.735 5.94 12.008 3.23 0 0zm-161.22.594c-8.68 6.378 7.505 5.29 0 0zm-175.56.03c-3.172 9.27 13.425 2.073 0 0zm156.03.126c-7.718 4.938 8.099 5.393 0 0zm173.22.812c-9.52 4.473 7.876 4.312 0 0zm-165.97.375c-6.784 6.52 10 2.49 0 0zm222.16.22c-4.382 7.274 9.715 3.166 0 0zm-155.91.718c-8.45 5.328 8.577 5.3 0 0zm-203.81.469c-10.536 4.954 7.505 5.116 0 0zm219.62.218c-8.232 4.798 8.313 4.539 0 0zm10.906.438c-11.053 5.557 11.31 3.253 0 0zm148.28 1.469c-9.004 5.352 8.656 5.549 0 0zm-428.03.187c-8.492 4.74 8.227 4.582 0 0zm355.5.063c-4.774 8.249 11.19 3.62 0 0zm-121.59.25c-7.078 6.88 12.676 1.727 0 0zm-107.69 1.28c-8.271 4.317 7.915 4.295 0 0zm45.125 0c-7.182 6.573 8.395 8.413 0 0zm-13.688.813c-11.077 4.958 13.055 3.717 0 0zm-64 .375c-6.21 7.006 8.228 7.602 0 0zm328.06 1.688c-10.395 5.08 9.438 3.339 0 0zm-107.59 1.156c-7.356 7.663 10.19 4.365 0 0zm-276.31.156c-9.465 5.887 9.31 6.145 0 0zm305.06.25c-7.201 6.169 6.133 6.905 0 0zm-58.47 1.25c-7.643 5.964 7.329 6.877 0 0zm18.532.063c-8.137 5.623 7.686 5.608 0 0zm25.844.437c-9.857 6.704 8.217 5.586 0 0zm-271.94.032c-6.335 5.79 8.11 5.06 0 0zm295.62.437c-8.994 7.729 7.918 6.509 0 0zm-280.5.5c-8.537 6.255 7.346 5.363 0 0zm73.97 1.313c-5.914 9.652 11.613 7.677 0 0zm-125.41.125c-10.67 6.016 8.377 5.273 0 0zm343.91 0c-7.68 6.394 8.264 7.26 0 0zm-362.38 1.25c-8.247 8.37 7.732 5.846 0 0zm431.69.593c-3.74 1.08 1.23 8.176 0 0zm-352.78.125c-10.34 5.965 13.845 3.007 0 0zm301.59.594c-8.13 4.853 8.283 5.03 0 0zm32 0c-8.52 5.046 8.82 4.864 0 0zm11.28.219c-10.49 5.907 8.35 5.42 0 0zm-374.47.469c-8.154 6.15 7.017 5.586 0 0zm279.97.562c-11.388 6.075 8.26 5.423 0 0zm-135.34.28c-6.076 7.549 11.33 2.135 0 0zm-87.906.408c-6.54 6.845 9.143 4.366 0 0zm78 .156c-6.701 7.845 5.845 6.496 0 0zm85.562.406c-7.754 5.439 8.04 4.269 0 0zm-58.312.28c-10.152 4.788 8.267 4.165 0 0zm124.5.939c-9.935 3.814 4.224 7.442 0 0zm-166.88.062c-13.077 4.587 10.36 3.523 0 0zm-74.406.625c-8.444 6.309 8.729 7.356 0 0zm297.62.47c-12.548 4.53 6.14 8.342 0 0zm-98.53.218c-5.53 7.466 9.83 2.767 0 0zm27.968.094c-10.803 8.137 7.55 6.532 0 0zm79.625.156c-7.65 6.428 7.03 7.324 0 0zm-118.66.062c-5.607 6.154 8.958 2.384 0 0zm-211.19.813c-3.384 7.827 11.784 1.78 0 0zm165.91.437c-8.906 8.85 6.567 7.334 0 0zm-77.75.719c-9.392 5.504 9.388 5.815 0 0zm16.78.156c-9.042 5.88 9.14 5.329 0 0zm201.72.063c-10.051 5.172 9.427 5.01 0 0zm-315.12.093c-10.72 4.768 9.1 4.573 0 0zm-22.468.532c-5.31 10.5 14.99-.243 0 0zm45.22.53c-5.565 8.392 9.517 6.543 0 0zm259.72.064c-5.014 6.39 8.072 2.754 0 0zm17.218.312c-7.934 7.018 11.71.984 0 0zm-56 .563c-7.433 4.517 7.084 4.31 0 0zm-105.5 1.156c-10.225 4.489 6.914 4.023 0 0zm189.72.687c-10.15 7 7.067 7.327 0 0zm-219.59.157c-8.25 5.383 8.373 5.789 0 0zm-37.438.218c-9.133 5.1 8.643 4.86 0 0zm-24.594.157c-7.912 5.537 10.85 1.343 0 0zm317.06.03c-5.778 3.96.72 8.89 0 0zm-21.25.844c-4.362 8.285 11.2 2.689 0 0zm-213.34.375c-8.022 8.014 5.387 7 0 0zm205.94.063c-12.975 5.043 4.847 8.626 0 0zm-133.66.25c-9.048 5.855 8.17 5.26 0 0zm-249.66.094c-8.254 5.814 7.872 5.374 0 0zm15.125 0c-7.2 6.402 6.745 7.334 0 0zm347.38.375c-9.406 5.985 9.605 4.017 0 0zm7.813 1.062c-9.81 6.9 8.684 5.945 0 0zm-314.56.469c-5.968 6.546 6.268 8.587 0 0zm9.5.094c-5.88 6.392 6.524 7.01 0 0zm-28.406 1c-8.334 5.837 8.88 6.674 0 0zm266.91.375c-10.188 5.279 9.327 3.557 0 0zm-153.03.5c-8.112 5.082 7.925 4.95 0 0zm168.25.968c-12.508 5.533 10.668 3.743 0 0zm-43.938.094c-9.558 5.604 9.19 3.88 0 0zm-110.5.313c-10.502 4.584 6.204 7.902 0 0zm102.91.468c-10.592 4.473 9.334 4.523 0 0zm61.25.907c-7.7 8.306 11.212 4.86 0 0zm-245.94.03c-8.045 6.916 6.369 7.15 0 0zm200.03.845c-10.616 4.906 9.172 3.839 0 0zm124.22 1.218c-5.387-.218.33 6.997 0 0zm-10.094.72c-10.347 5.294 10.325 3.317 0 0zm-42.375.624c-8.403 4.622 7.352 4.46 0 0zm33.188.375c-7.576 6.882 11.922 1.567 0 0zm-283.75.594c-9.415 7.255 13.533 1.105 0 0zm-56.562.344c-6.267 7.187 6.313 9.383 0 0zm120.97.156c-8.084 5.224 8.319 3.69 0 0zm28.344.313c-9.673 8.372 8.09 6.264 0 0zm18.53.375c-4.725 8.337 10.17 3.435 0 0zm-33.718.218c-6.124 5.969 7.26 5.743 0 0zm52.625.094c-6.133 5.75 7.76 5.417 0 0zm58.75 0c-11.903 4.297 6.499 7.694 0 0zm-284.62.469c-10.095 4.409 8.638 3.29 0 0zm238.78.062c-9.217 6.763 8.09 5.076 0 0zm90.625.157c-9.333 6.009 8.49 5.357 0 0zm-272.72.093c-9.007 5.089 10.937 2.97 0 0zm76.53.28c-13.826 4.938 7.062 7.848 0 0zm16.845 2.345c-6.495 6.148 5.315 7.614 0 0zm161.44.375c-9.562 5.868 8.989 5.346 0 0zm-192.97.407c-7.98 4.495 7.739 4.47 0 0zm149.25.062c-7.74 5.283 7.796 4.543 0 0zm30.03.469c-7.903 4.993 7.672 4.747 0 0zm-195.06 2.094c-4.832 8.7 11.312 3.18 0 0zm-92.061.843c-7.605 4.994 7.718 4.068 0 0zm355.91 1.094c-7.274 5.547 11.233 1.477 0 0zm-198.91.156c-9.064 5.6 9.423 5.579 0 0zm-116.19.75c-11.391 4.95 9.814 3.53 0 0zm285.25.094c-7.445 4.379 7.587 4.739 0 0zm15.625.375c-6.227 6.882 10.32 1.807 0 0zm-111.44.375c-7.747 6.24 6.626 6.652 0 0zm-175.12 1.156c-10.181 5.72 10.468 3.424 0 0zm89.125.313c-8.603 5.416 8.557 5.492 0 0zm23.469.844c-8.46 8.478 6.124 7.3 0 0zm45.156.093c-9.71 3.977 4.174 7.647 0 0zm40.25.25c-8.228 5.169 7.8 4.737 0 0zm29.438.219c-8.043 5.756 7.709 4.758 0 0zm-86.781.344c-4.522 9.39 13.592-.042 0 0zm-114.38.187c-13.031 5.572 10.076 4.637 0 0zm102.19.313c-9.324 7.879 14.128.97 0 0zm-86.312.469c-7.165 5.494 8 4.258 0 0zm170.5.125c-3.926 9.796 12.424-.39 0 0zm-248.97 1.406c-8.786 4.419 7.92 4.397 0 0zm293.31.312c-6.808 8.835 10.772 5.744 0 0zm-17.562 1.938c-6.443 9.805 14.388.13 0 0zm-66.531.25c-9.6 6.214 8.194 5.68 0 0zm-194.81.156c-11.325 5.12 11.21 2.856 0 0zm115.88.53c-8.053 4.767 7.986 4.54 0 0zm-86.344.814c-13.021 2.867 8.047 5.185 0 0zm183.34.969c-8.573 4.085 6.329 3.957 0 0zm-201.72.843c-8.13 4.95 7.803 4.487 0 0zm66.938 0c-10.103 5.22 9.957 3.632 0 0zm224.41.344c-7.121 5.907 8.357 5.312 0 0zm-132.97 1.438c-5.695 5.79 8.736 2.189 0 0zm-175.12.25c-9.724 5.32 8.485 5.044 0 0zm43.75.375c-9.013 5.093 8.922 5.489 0 0zm278.88.156c-7.585 4.534 7.576 4.646 0 0zm-152.88.719c-10.466 3.744 5.056 7.229 0 0zm-137.56.906c-9.672 5.373 10.87 3.196 0 0zm128.5.062c-8.313 6.469 7.14 5.82 0 0zm-177.59.313c4.792 8.763 4.586-.913 0 0zm213.34.5c-5 7.289 9.11 3.082 0 0zm-89.656.844c-3.09 9.497 12.286.103 0 0zm167.16 0c-4.895 7.962 10.175 2.97 0 0zm-178.12.28c-5.401 7.807 10.275 4.537 0 0zm-85.406.095c-9.695 4.57 5.557 7.41 0 0zm201.78 1c-8.7 5.242 9.422 3.274 0 0zm-24.938.093c-7.946 7.662 5.127 6.618 0 0zm-8.47.53c-15.353 6.235 9.958 6.643 0 0zm-153.91.408c-8.428 5.913 7.78 4.905 0 0zm210.78 1.375c-9.255 5.563 8.815 5.48 0 0zm16.126.375c-5.82 7.876 11.855 2.703 0 0zm43.594 1.187c-7.37 5.03 7.53 4.368 0 0zm-213.22.844c-11.065 3.195 5.386 6.433 0 0zm55.125.156c-6.481 7.58 12.756 1.808 0 0zm-97 .938c-9.028 5.642 8.924 5.108 0 0zm275.28.125c-10.45 7.85 7.559 5.145 0 0zm-91.78.25c-8.798 5.158 9.785 3.17 0 0zm-120.03.219c-8.53 5.649 7.17 5.34 0 0zm59.343.218c-8.926 7.384 7.006 6.265 0 0zm9.688.97c-8.18 4.875 7.184 4.405 0 0zm-51.75.155c-5.335 6.432 9.692 2.743 0 0zm-28.938.438c-4.333 7.442 10.29 3.467 0 0zm179.69.406c-9.166 4.917 7.128 4.849 0 0zM154.44 343.8c-4.904 7.497 9.173 3.194 0 0zm144.19.25c-3.166 9.959 13.282 1.573 0 0zm31.875.157c-5.737 6.129 6.733 8.564 0 0zm-89.125.593c-5.75 7.926 9.57 3.61 0 0zm-130.44.344c-9.91 4.648 8.783 4.27 0 0zm15.125.688c-5.928 6.536 9.179 2.746 0 0zm157.06.312c-7.382 5.272 7.694 5.94 0 0zm91.375.938c-7.372 5.723 8.094 6.705 0 0zm23.188 1.937c-8.09 4.886 7.782 4.653 0 0zm-46.438.156c-7.618 7.229 5.44 6.332 0 0zm-210.34.219c-11.357 4.919 8.09 4.278 0 0zm115.66.063c-7.65 5.218 7.736 5.846 0 0zm57.844.875c-11.502 4.922 11.853 2.75 0 0zm-105.09.625c-7.128 5.28 7.428 5.839 0 0zm129.31.187c-7.788 4.712 7.7 4.492 0 0zm-6.282.03c-11.67 4.878 4.192 9.482 0 0zm55.47 1.22c-7.405 5.289 8.14 3.924 0 0zm-200.19 1.78c-5.025 7.033 10.16 3.004 0 0zm14 .314c-8.375 4.648 7.142 4.508 0 0zm-76.157.218c-8.574 5.403 8.846 3.64 0 0zm93.22.157c-9.011 4.61 7.32 4.4 0 0zm61.06.78c-15.493 4.643 7.139 7.669 0 0zm82.157.72c-11.632 1.923 6.444 5.965 0 0zm-188.97.312c-9.088 7.837 6.54 5.978 0 0zm210.59 1c-9.944 4.234 7.818 3.724 0 0zm-61.5.313c-6.741 6.409 6.566 7.623 0 0zm-22.094.843c-10.324 4.7 9.216 4.44 0 0zm-66.844.094c-7.72 5.29 9.293 3.478 0 0zm17.906.28c-5.286 6.44 8.956 3.07 0 0zm17.938.564c-10.93 4.427 6.33 7.67 0 0zm62.75.062c-9.085 5.6 8.393 4.999 0 0zm39.062.313c-10.517 5.363 8.448 4.963 0 0zm-25.78.906c-13.338 5.136 11.5 3.676 0 0zm-196.84.406c-6.481 7.955 9.732 3.738 0 0zm209.09 3.188c-7.195 4.66 7.199 4.06 0 0zm-97.095.75c-7.075 8.79 10.82 5.636 0 0zm72.22 1.406c-10.654 4.487 8.496 3.527 0 0zm51.28.469c-1.805 1.236-1.072.734 0 0zm-101.69.844c-8.632 5.107 8.879 5.654 0 0zm10.03.062c-8.773 4.284 6.33 4.142 0 0zm20.689.406c-8.525 5.205 8.985 3.274 0 0zm36.47 0c-9.504 5.082 6.374 5.216 0 0zm-188.91.782c-11.21 4.952 11.16 3.399 0 0zm51.25.28c-12.633 6.064 7.014 6.867 0 0zm-23.407.282c-5.93 7.588 10.088 4.604 0 0zm189.56.03c-10.67 3.318 3.933 2.5 0 0zm-117.75 1.564c-8.882 5.812 8.04 4.917 0 0zm6.407.562c-10.733 5.172 9.554 3.918 0 0zm-19.531 1.313c-10.134 7.712 7.503 6.06 0 0zm116.69.906c-9.171 4.79 8.318 3.62 0 0zm-37.062 2.156c-5.131 8.966 13.356-.653 0 0zm-152.94.407c-8.093 6.537 7.466 7.472 0 0zm103.56.062c-9.83 5.692 7.104 5.763 0 0zm-51 1.563c-8.171 5.313 8.13 5.57 0 0zm69.469.062c-8.744 5.572 8.21 4.983 0 0zm61.78 1.156c-13.905 4.68 8.645 1.412 0 0zm-96.405.25c-9.875 4.416 7.747 3.65 0 0zm85.406.25c-9.08 6.003 9.22 6.482 0 0zm-42.97 3.063c-9.197 4.996 8.099 4.349 0 0zm-33.937 3.187c-6.09 6.16 7.1 6.022 0 0zm53.344 0c-10.248 4.26 8.896 4.373 0 0zm-12.22 1.22c-5.49 8.197 8.57 6.723 0 0zm-22.25.624c-13.452 4.153 7.264 6.592 0 0zm7.688.469c-9.856 5.335 8.74 4.908 0 0zm-49.625 6.219c-5.486 1.174 6.485 1.315 0 0z" fill="url(#s)" filter="url(#t)" opacity=".35" style="fill:url(#s)"/><path d="M457.16 299.66a9.027 9.027 0 0 0-4.094 1.063c-11.894 4.96-19.136 18.885-18.188 31.844-.009 6.58 4.802 13.768 11.656 13.656 6.74-.534 11.922-7.456 15.062-12.781 5.183-7.55 4.957-17.147 3.969-26.156-.174-4.925-4.219-7.714-8.406-7.625z" fill="#805a0f" filter="url(#u)" transform="translate(-.861 -42.608)"/><path d="M457.81 300.94a7.95 7.95 0 0 0-2.594.438c-12.967 4.322-21.057 18.672-19.75 32 .115 6.12 4.943 12.466 11.406 12.375 6.9-.731 11.584-6.807 15-12.312 5.395-7.57 4.853-17.324 3.969-26.062-.545-3.917-4.276-6.46-8.031-6.438z" fill="url(#v)" filter="url(#w)" style="fill:url(#v)" transform="translate(-.861 -42.608)"/><path d="M457.97 304.09c-.235 0-.457.015-.688.031-6.464.466-11.458 7.09-14.343 13.062-3.383 6.368-6.005 14.946-2.22 21.75 4.06 4.567 10.386.822 13.532-3.156 4.436-5.26 7.01-12.213 8.344-19.125.117-7.294-9.491-10.925-13.625-5.281-4.603 5.717-9.087 14.137-6 21.844 2.833 6.175 10.186 2.143 12.562-2.406 3.068-4.6 5.947-13.922.062-17.188-8.253-2.853-14.768 11.249-8 16.969 6.215 4.195 12.922-8.393 6.25-11.906-6.466-4.484-9.803 11.75-2.281 7.843-1.7-.977-5.479-2.217-2.469-5.843 5.564-6.481 9.875 5.815 3.656 8.656-6.122 4.474-9.507-6.21-5.625-10.625 3.147-7.368 13.62-4.17 10.812 4.219-1.09 6.468-6.824 16.003-13.562 10.719-3.765-4.133-1.143-10.666.75-15.188 2.27-4.092 5.684-9.283 10.594-8.72 7.166 1.402 6.883 10.372 3.719 15.72-2.552 6.56-7.129 13.599-14.062 14.562-7.216-.847-6.833-11.4-4.156-16.812 2.683-7.41 6.95-15.252 14.125-18.094 7.828-1.69 11.12 8.557 8.094 15.125-2.245 9.587-7.645 18.81-15.906 23.188-.132 2.583 6.066-3.313 7.5-4.875 6.73-7.476 10.758-18.455 9.53-28.97-.554-2.414-2.119-4.655-4.405-5.28a10.793 10.793 0 0 0-2.188-.22z" color="#000" fill="url(#x)" filter="url(#y)" style="text-indent:0;text-transform:none;fill:url(#x)" transform="translate(-.861 -42.608)"/><path d="M445.69 209.38c-31.59 1.445-35.41 64.023-27.969 71.688 10.206 9.228 31.992-5.216 34.969-19.25 1.33-6.273-5.397-34.44-7-52.438z" color="#000" fill="#d6a302" filter="url(#z)" opacity=".554" transform="translate(-.861 -42.608)"/><path d="M424.31 230.78a42.305 42.305 0 0 0-9.156 26.344c0 16.543 9.448 30.872 23.219 37.844-1.65-16.914-1.506-18.606-3.25-23.344-1.554-4.22-5.758-14.589-6.5-26.469-.818-4.881-2.292-9.7-4.313-14.375z" fill="#e3b00f" filter="url(#A)" opacity=".142" transform="translate(-.861 -42.608)"/></svg>