<svg viewBox="0 0 256 256" xmlns:xlink="http://www.w3.org/1999/xlink" xmlns="http://www.w3.org/2000/svg"><defs><linearGradient id="a"><stop stop-color="#282828" offset="0"/><stop stop-opacity="0" offset="1"/></linearGradient><linearGradient id="c"><stop stop-color="#fff" offset="0"/><stop stop-color="#fff" stop-opacity="0" offset="1"/></linearGradient><linearGradient id="b"><stop stop-color="#efb362" offset="0"/><stop stop-color="#e27709" offset=".5"/><stop stop-color="#b64c00" offset="1"/></linearGradient><linearGradient id="d"><stop stop-color="#ffcf4e" offset="0"/><stop stop-color="#774213" offset="1"/></linearGradient><linearGradient id="j" x1="-789.75" x2="-731.56" y1="628.64" y2="847.81" gradientTransform="matrix(.90741 0 0 .96637 -60.594 24.991)" gradientUnits="userSpaceOnUse" xlink:href="#c"/><linearGradient id="q" x1="-689.29" x2="-728.64" y1="747.23" y2="615.81" gradientTransform="matrix(4.7507 .78558 -.47515 2.8734 3097.5 -679.56)" gradientUnits="userSpaceOnUse" xlink:href="#c"/><linearGradient id="u" x1="-989.46" x2="-881.68" y1="511.33" y2="600.58" gradientUnits="userSpaceOnUse" xlink:href="#b"/><linearGradient id="w" x1="-752.05" x2="-503.91" y1="711.13" y2="711.13" gradientTransform="matrix(.47909 0 0 .55118 -376.3 277.33)" gradientUnits="userSpaceOnUse" xlink:href="#a"/><linearGradient id="y" x1="-596.25" x2="-569.94" y1="654.09" y2="654.09" gradientTransform="matrix(.84355 0 0 .82386 -106.6 115.17)" gradientUnits="userSpaceOnUse" xlink:href="#d"/><linearGradient id="z" x1="-573.04" x2="-566.16" y1="652.35" y2="652.35" gradientTransform="matrix(.84355 0 0 .82386 -107.17 115.2)" gradientUnits="userSpaceOnUse" xlink:href="#d"/><linearGradient id="A" x1="-651.7" x2="-616.29" y1="648.79" y2="648.79" gradientTransform="matrix(.84355 0 0 .82386 -104.41 115.29)" gradientUnits="userSpaceOnUse" xlink:href="#d"/><linearGradient id="B" x1="-658.85" x2="-634.64" y1="646.52" y2="646.52" gradientTransform="matrix(.84355 0 0 .82386 -103.9 115.4)" gradientUnits="userSpaceOnUse" xlink:href="#d"/><linearGradient id="C" x1="-698.91" x2="-658.04" y1="631.35" y2="631.35" gradientTransform="matrix(.84355 0 0 .82386 -102.89 116.03)" gradientUnits="userSpaceOnUse" xlink:href="#d"/><linearGradient id="D" x1="-683.07" x2="-641.12" y1="641.75" y2="641.75" gradientTransform="matrix(.84355 0 0 .82386 -103.35 115.59)" gradientUnits="userSpaceOnUse" xlink:href="#d"/><linearGradient id="E" x1="-698.91" x2="-663.17" y1="625.51" y2="625.51" gradientTransform="matrix(.84355 0 0 .82386 -102.79 116.29)" gradientUnits="userSpaceOnUse" xlink:href="#d"/><linearGradient id="F" x1="-695.61" x2="-663.17" y1="620.85" y2="620.85" gradientTransform="matrix(.84355 0 0 .82386 -102.89 116.48)" gradientUnits="userSpaceOnUse" xlink:href="#d"/><linearGradient id="G" x1="-550.96" x2="-537.35" y1="630.98" y2="630.98" gradientTransform="matrix(.84355 0 0 .82386 -108.16 116.04)" gradientUnits="userSpaceOnUse" xlink:href="#d"/><linearGradient id="H" x1="-552.35" x2="-530.89" y1="640.98" y2="640.98" gradientTransform="matrix(.84355 0 0 .82386 -108.26 115.61)" gradientUnits="userSpaceOnUse" xlink:href="#d"/><linearGradient id="I" x1="-567.73" x2="-543.78" y1="649.79" y2="649.79" gradientTransform="matrix(.84355 0 0 .82386 -107.68 115.35)" gradientUnits="userSpaceOnUse" xlink:href="#d"/><linearGradient id="J" x1="-611.99" x2="-589.24" y1="652.98" y2="652.98" gradientTransform="matrix(.84355 0 0 .82386 -105.84 115.12)" gradientUnits="userSpaceOnUse" xlink:href="#d"/><linearGradient id="K" x1="-629.13" x2="-601.74" y1="652.81" y2="652.81" gradientTransform="matrix(.84355 0 0 .82386 -105.21 115.13)" gradientUnits="userSpaceOnUse" xlink:href="#d"/><linearGradient id="L" x1="-585.9" x2="-448.66" y1="610.95" y2="543.27" gradientUnits="userSpaceOnUse" xlink:href="#d"/><linearGradient id="M" x1="-599.22" x2="-586.16" y1="676.25" y2="618.72" gradientUnits="userSpaceOnUse" xlink:href="#d" spreadMethod="reflect"/><linearGradient id="N" x1="122.4" x2="-1103.7" y1="66.496" y2="606.24" gradientTransform="matrix(.43998 -.1421 .21544 .63411 -557.99 148.2)" gradientUnits="userSpaceOnUse" xlink:href="#b"/><linearGradient id="O" x1="122.4" x2="-1103.7" y1="66.496" y2="606.24" gradientTransform="matrix(.37616 -.15154 .18419 .67623 -584.92 123.1)" gradientUnits="userSpaceOnUse" xlink:href="#b"/><filter id="v" x="-.069" y="-.134" width="1.139" height="1.269" color-interpolation-filters="sRGB"><feGaussianBlur stdDeviation="6.245"/></filter><filter id="Y" x="-.142" y="-.008" width="1.285" height="1.016" color-interpolation-filters="sRGB"><feGaussianBlur stdDeviation="2.138"/></filter><filter id="V" color-interpolation-filters="sRGB" x="-.028" y="-.008" width="1.056" height="1.017"><feGaussianBlur stdDeviation="2.138"/></filter><filter id="aa" color-interpolation-filters="sRGB" x="-.031" y="-.012" width="1.062" height="1.024"><feGaussianBlur stdDeviation="1.331"/></filter><filter id="k" color-interpolation-filters="sRGB" x="-.03" y="-.019" width="1.06" height="1.038"><feGaussianBlur stdDeviation="2.342"/></filter><filter id="m" color-interpolation-filters="sRGB" x="-.018" y="-.009" width="1.037" height="1.018"><feGaussianBlur stdDeviation="2.55"/></filter><filter id="r" x="-.07" y="-.194" width="1.14" height="1.389" color-interpolation-filters="sRGB"><feGaussianBlur stdDeviation="18.733"/></filter><filter id="o" color-interpolation-filters="sRGB" x="-.015" y="-.012" width="1.031" height="1.025"><feGaussianBlur stdDeviation="2.155"/></filter><filter id="s" x="-.106" y="-.033" width="1.211" height="1.066" color-interpolation-filters="sRGB"><feGaussianBlur stdDeviation="4.554"/></filter><filter id="t" x="-.413" y="-.025" width="1.826" height="1.051" color-interpolation-filters="sRGB"><feGaussianBlur stdDeviation="5.352"/></filter><filter id="R" color-interpolation-filters="sRGB" x="-.018" y="-.009" width="1.036" height="1.017"><feGaussianBlur stdDeviation="2.284"/></filter><filter id="T" color-interpolation-filters="sRGB" x="-.018" y="-.009" width="1.037" height="1.017"><feGaussianBlur stdDeviation="1.813"/></filter><filter id="P" x="-.067" y="-.15" width="1.133" height="1.3" color-interpolation-filters="sRGB"><feGaussianBlur stdDeviation="5.742"/></filter><filter id="x" x="-.096" y="-.161" width="1.191" height="1.322" color-interpolation-filters="sRGB"><feGaussianBlur stdDeviation="4.123"/></filter><filter id="h" color-interpolation-filters="sRGB" x="-.01" y="-.015" width="1.019" height="1.029"><feGaussianBlur stdDeviation="2.45"/></filter><filter id="ae" x="-.058" y="-.021" width="1.116" height="1.041"><feGaussianBlur stdDeviation="1.573"/></filter><filter id="ac" x="-.023" y="-.008" width="1.046" height="1.016"><feGaussianBlur stdDeviation=".626"/></filter><radialGradient id="e" cx="-704.71" cy="1051.8" r="448.81" gradientTransform="matrix(.98934 .26509 -.21708 .81015 399.77 324.42)" gradientUnits="userSpaceOnUse" xlink:href="#b" spreadMethod="reflect"/><radialGradient id="l" cx="-781.34" cy="1005" r="165.47" gradientTransform="matrix(1 0 0 2.082 0 -1081.4)" gradientUnits="userSpaceOnUse" xlink:href="#b"/><radialGradient id="n" cx="-1031.7" cy="961.7" r="81.541" gradientTransform="matrix(2.1554 0 0 3.925 1314.6 -3084.5)" gradientUnits="userSpaceOnUse" xlink:href="#c"/><radialGradient id="p" cx="-486.89" cy="933.16" r="90.914" gradientTransform="matrix(2.4042 -.20269 .97106 2.0073 -217.04 -1107)" gradientUnits="userSpaceOnUse" xlink:href="#c"/><radialGradient id="X" cx="-655.52" cy="1014.7" r="29.704" gradientTransform="matrix(1 0 .00003 10.696 -1.043 -10105)" gradientUnits="userSpaceOnUse" xlink:href="#b"/><radialGradient id="Z" cx="-721" cy="927.25" r="61.497" gradientTransform="matrix(1 0 0 3.4083 -4.04 -2229.7)" gradientUnits="userSpaceOnUse" xlink:href="#b"/><radialGradient id="Q" cx="-422.99" cy="960.27" r="143.33" gradientTransform="matrix(1 0 0 2.1875 -6 -1199)" gradientUnits="userSpaceOnUse" xlink:href="#c"/><radialGradient id="S" cx="-677.48" cy="965.34" r="448.81" gradientTransform="matrix(.8065 .23669 -.17696 .72335 230.52 398.5)" gradientUnits="userSpaceOnUse" xlink:href="#b" spreadMethod="reflect"/><radialGradient id="U" cx="-534.05" cy="1018.1" r="96.818" gradientTransform="matrix(1.2947 0 0 3.3274 144.2 -2417.9)" gradientUnits="userSpaceOnUse" xlink:href="#c"/><radialGradient id="W" cx="-568.72" cy="1020.2" r="96.818" gradientTransform="matrix(1 0 0 3.4908 0 -2541.3)" gradientUnits="userSpaceOnUse" xlink:href="#b"/><radialGradient id="g" cx="-227.8" cy="1138.3" r="284.38" gradientTransform="matrix(1 0 0 .71608 0 243.69)" gradientUnits="userSpaceOnUse" xlink:href="#b"/><radialGradient id="i" cx="-908.25" cy="1017.5" r="202.38" gradientTransform="matrix(.9269 0 0 1.6335 -89.377 -638.9)" gradientUnits="userSpaceOnUse" xlink:href="#b"/><radialGradient id="f" cx="71.78" cy="134.5" r="46.469" gradientTransform="matrix(1 0 0 2.0672 0 -138.31)" gradientUnits="userSpaceOnUse" xlink:href="#b"/><radialGradient id="ab" cx="71.78" cy="134.5" r="46.469" gradientTransform="matrix(.70888 0 0 1.9872 35.827 -123.5)" gradientUnits="userSpaceOnUse" xlink:href="#b"/><radialGradient id="ad" cx="71.056" cy="120.11" r="46.469" gradientTransform="matrix(.69801 0 0 1.9655 34.556 -122.2)" gradientUnits="userSpaceOnUse" xlink:href="#c"/></defs><path d="M-746.4 620.6c-52.98 2.295-107.49 2.574-156.75 25.344-122.44 48.995-206.56 173.67-212.31 304.62-1.665 272.76 177.3 447.57 403.34 404.59 72.333-.48 146.07 5.497 217.22-9.969 162.25-39.757 288.87-200.85 276-369.69-6.07-148.42-107.64-296.15-256.09-331.38-50.11-12.532-102.89-12.84-153.56-3.437-39.229-6.894-77.638-20.135-117.84-20.094z" fill="url(#e)" transform="translate(318.13 -154.61) scale(.28501)"/><path transform="translate(.002 -.018) scale(.99999)" d="M109.62 33.531c-53.126.393-87.156 49.576-87.156 101.69 0 .483.026.956.031 1.438v.093c-.01.466-.031.937-.031 1.406 0 35.43 18.176 66.896 46.344 86.781.65.254 1.333.49 2 .72-.238-.424-.485-.825-.719-1.25-25.929-19.973-42.438-50.146-42.438-83.907 0-.47-.01-.94 0-1.406v-.094c-.006-.48 0-.955 0-1.437 0-52.112 34.031-101.29 87.156-101.69.083.03.15.04.219.062.128-.053.247-.104.375-.156-.78-.624-3.601-2.08-5.781-2.25z" fill="url(#f)"/><path d="M-642.18 691.07c-40.488-2.369-79.257-15.492-118.82-22.933 11.154 5.432 33.413 11.926 9.791 4.593-8.817-2.853-31.228-11.06-34.755-9.295 22.616 7.505 46.014 12.631 68.396 20.804-51.716-10.025-102.48-33.29-156.26-26.769 61.68.676 120.38 21.741 180.32 33.59-50.828-7.824-132.08-37.474-180.82-13.469-34.396 18.18-69.736 54.07-86.32 87.663 14.868-28.07 57.574-55.497 85.46-72.746 35.89-24.945 97.608-16.147 139.09-4.518 19.934 3.335 40.245 4.256 60.078 8.064-29.059-1.021-61.638 25.458-86.532 42.276-75.677 62.253-121.8 226.45-123.37 319.97 3.171-62.707 65.141-247.74 111.85-293.45 29.291-28.481 61.614-68.987 102.69-63.22 33.13 6.251 20.444 45.074 19.088 68.244-8.24 96.758-7.844 195.35 14.086 290.4-22.836-112.97-17.619-230.71 9.17-342.51 29.678-20.351 65.582.944 90.307 19.358 30.03 20.755 56.346 46.862 74.045 79.04 27.61 47.427 41.078 102.34 42.233 157 2.469-80.74-43.598-151.23-84.998-216.77-13.132-29.558-47.662-35.264-73.367-49.331 13.321-3.926 38.271 1.911 55.928 2.74 55.014 6.525 112.7 30.385 141.14 80.694 10.972 16.275 22.706 44.772 30.161 55.095-19.752-64.54-71.356-122.49-139.43-135.74-24.23-4.315-49.126-2.767-73.406-6.7 71.007.698 146.85-7.877 212.34 25.889-52.223-35.307-118-28.015-177.71-27.672-9.685.09-32.79-.207-10.125-1.056 44.366-2.737 88.764-5.036 133.11-8.052-44.389-3.099-88.444 6-132.72 6.678 37.636-3.003 75.192-7.118 112.53-12.754-33.273 1.799-66.178 8.233-99.344 10.537 25.726-3.483 51.966-5.834 77.45-11.461-22.473.289-45.04 4.753-67.25 8.514 11.91-1.16 51.417-6.552 46.913-7.952-10.602 1.377-48.484 8.455-17.692 2.15 38.19-7.733-51.965 8.352-10.413.668 12.451-2.273 20.885-4.927 3.167-1.786-12.812 2.276-29.352 5.835-6.363.361 9.235-2.826-37.97 7.26-10.22.753 10.307-3.38-30.255 5.768-20.187 1.124-27.046 4.925-54.12 3.964-82.193 4.052a361.592 361.592 0 0 1-27.043-2.07z" fill="url(#g)" filter="url(#h)" opacity=".586" transform="translate(318.13 -154.61) scale(.28501)"/><path d="M-790.63 648.8c-188.79 1.323-309.77 167.16-309.77 342.82 0 1.626-.022 3.197 0 4.818v.314c-.036 1.57 0 3.13 0 4.714 0 120.17 65.407 226.84 166.57 293.8a431.636 431.636 0 0 0 10.163 5.656c.328.177.586.347.915.523.24.132.47.288.711.42 5.561 3.047 11.397 5.767 17.38 8.17-107.22-66.393-177.34-176.36-177.34-300.71 0-1.584.064-3.145.1-4.714v-.315c-.021-1.621-.1-3.191-.1-4.818 0-175.66 120.98-341.5 309.77-342.82 6.924-.509 112.98 20.3-18.396-7.855z" fill="url(#i)" transform="translate(318.13 -154.61) scale(.28501)"/><path transform="matrix(.33643 0 0 .30507 355.082 -174.633)" d="M-727 699.16c-54.51 15.572-83.619 59.375-110.9 98.811-20.95 31.006-32.943 47.071-73.281 194.32 36.237-109.17 65.321-176.14 119.7-231.1 19.837-24.3 42.277-44.738 67.063-60.277-.858-.583-1.75-1.172-2.58-1.752z" fill="url(#j)" filter="url(#k)" opacity=".24"/><path transform="matrix(.28501 0 0 .2461 319.14 -126.843)" d="M-625.72 654.97c-188.7 1.658-309.66 209.35-309.66 429.38 0 2.037.04 4.063.062 6.094v.375a324.756 324.756 0 0 0-.062 5.937c11.746 65.781 7.546 131.2 78.062 247.22-37.861-69.293-59.656-150.51-59.656-237.38 0-1.984.026-3.972.063-5.937 0-.038-.001-.058 0-.094v-.282c-.023-2.03-.063-4.056-.063-6.093 0-220.03 120.95-427.72 309.66-429.38 9.576 4.156-6.923-8.781-18.406-9.844z" fill="url(#l)" filter="url(#m)"/><path transform="matrix(.32998 0 0 .31143 365.33 -173.895)" d="M-734.41 626.06c-14.353-.126-28.141 1.37-47 1.5-102.92.707-187.15 45.823-245.31 114.25-2.112 14.323-3.219 28.785-3.219 43.312 0 1.72.03 3.442.062 5.156v.313c-.052 1.659-.06 3.325-.062 5 0 56.873 19.013 110.89 53.22 159.56.052.064.133.123.187.187 27.397 32.824 62.04 63.627 102.97 91.812 64.054-64.8 113.87-140.58 144.47-225.16 23.046-63.69 33.604-127.96 32.812-191.06-14.97-3.64-26.728-4.775-38.125-4.875z" fill="url(#n)" filter="url(#o)" opacity=".319"/><path d="M-262.89 846.4c48.757 100.79-9.576 190.74-130.29 200.92-120.71 10.177-258.1-63.277-306.86-164.07-48.757-100.79 9.576-190.74 130.29-200.92 120.71-10.177 258.1 63.278 306.86 164.07z" fill="url(#p)" opacity=".313" transform="translate(318.13 -154.61) scale(.28501)"/><path transform="translate(318.13 -154.61) scale(.28501)" d="M-763.59 684c-67.177 5.102-125.64 29.549-173.16 66.875 60.578 63.719 162.17 123.08 297.62 147.66 59.22 9.793 116.6 12.861 169.69 10.094 61.006 7.87 119.6 8.668 172.91 3.25a979.8 979.8 0 0 1-12.375-1.969c-195.37-32.307-359.47-118.56-454.69-225.91z" fill="url(#q)" filter="url(#r)" opacity=".263"/><path transform="translate(318.13 -154.61) scale(.28501)" d="M-682.59 720.86c-48.674 29.065-65.524 78.843-81.75 123.97-12.274 35.35-17.66 53.611-18.781 206.28 2.679-44.261 6.272-81.535 10.094-114.37 1.282-47.147 8.102-65.593 15.969-88.25 14.222-39.553 28.934-82.72 65.125-112.34a245.128 245.128 0 0 1 12.312-14.25c-.979-.342-2.017-.685-2.969-1.031z" fill="#fff" filter="url(#s)" opacity=".286"/><path transform="translate(318.13 -154.61) scale(.28501)" d="M-616.38 744.53c-.275-.056-.583 1.337-1.156 5.375-8.704 45.927-11.24 96.235-14.781 145-7.69 108.17-9.655 217.35-13.062 326.16.155 9.205-1.641 19.29.5 27.594 3.096-11.792 1.64-26.523 2.687-39.625 2.677-72.935 5.072-145.89 8.094-218.78 3.526-62.162 6.866-124.57 13.125-185.81 1.674-17.778 5.143-35.374 6.125-52.969-.823-2.708-1.073-6.844-1.531-6.937z" fill="#fff" filter="url(#t)" opacity=".35"/><path transform="matrix(.27331 0 0 .2245 310.494 -114.127)" d="M-523.37 705.85c18.281 58.774-37.677 82.886-140.8 37.07-51.898-23.057-82.672-47.383-68.316-87.518l110.33 17.956z" fill="url(#u)" filter="url(#v)"/><path transform="matrix(.24539 0 0 .36022 293.742 -199.248)" d="M-727.24 638.59c-6.878 22.122 7.886 35.51 32.75 48.219 49.405 25.253 76.196 11.958 67.438-20.438l-47.312-17.906-52.875-9.875z" fill="url(#w)" filter="url(#x)" opacity=".586"/><path d="M-589.46 730.09c.299-8.058.664-15.314 1.098-22.141.434-6.827.937-13.223 1.473-19.519.428-4.857.884-9.736 1.33-14.79.447-5.054.884-10.282 1.265-15.779.726-10.892.993-22.282.826-34.63-.072-4.884-.186-9.9-.335-15.107-4.947-1.425-10-2.512-15.16-3.402-.493-.086-.988-.17-1.482-.252.099 5.956.164 11.705.166 17.328a417.2 417.2 0 0 1-.387 18.299 332.093 332.093 0 0 1-1.23 17.423 564.443 564.443 0 0 1-1.928 16.5c-.689 5.29-1.404 10.4-2.09 15.486-1.566 11.844-3.013 23.997-3.943 38.52 2.576.343 5.142.656 7.697.937 4.263.469 8.49.855 12.7 1.127z" fill="url(#y)" transform="translate(318.13 -154.61) scale(.28501)"/><path d="M-585.31 723.73c.384-13.36 1.018-24.575 1.783-35.513.349-4.787.728-9.597 1.1-14.579a941.23 941.23 0 0 0 1.056-15.561c.6-10.745.773-22.015.53-34.306a1258.31 1258.31 0 0 0-.613-20.42c-.971 1.605-1.943 3.204-2.918 4.8.149 5.205.263 10.222.335 15.106.167 12.348-.1 23.738-.826 34.63a828.634 828.634 0 0 1-1.265 15.78c-.446 5.053-.902 9.933-1.33 14.79a903.982 903.982 0 0 0-1.473 19.518c-.434 6.826-.8 14.082-1.098 22.141a398.55 398.55 0 0 1 4.72-6.385z" fill="url(#z)" transform="translate(318.13 -154.61) scale(.28501)"/><path d="M-637.15 725.95c1.22-13.156 3.374-24.453 5.64-35.474 1.08-5.189 2.197-10.4 3.258-15.792 1.061-5.392 2.066-10.967 2.938-16.804a267.914 267.914 0 0 0 1.968-17.697c.471-6.02.763-12.168.939-18.472.115-4.232.196-8.523.267-12.902.026-1.574.05-3.16.075-4.758l-.381.042a637.26 637.26 0 0 0-15.086 1.824c-.15 5.467-.288 10.786-.48 16.012-.235 6.304-.592 12.443-1.16 18.44a219.548 219.548 0 0 1-2.364 17.587c-1.647 9.077-3.737 17.449-5.913 25.541-.601 2.223-1.207 4.428-1.808 6.629-2.906 10.732-5.749 21.729-7.614 34.538 1.783.21 3.587.394 5.411.555 4.7.41 9.48.643 14.31.73z" fill="url(#A)" transform="translate(318.13 -154.61) scale(.28501)"/><path d="M-656.37 724.78c1.865-12.809 4.708-23.806 7.614-34.538.601-2.201 1.207-4.406 1.807-6.629 2.177-8.092 4.267-16.464 5.914-25.54a219.59 219.59 0 0 0 2.364-17.589c.568-5.998.925-12.136 1.16-18.44.192-5.226.33-10.545.48-16.012a551.209 551.209 0 0 1-5.642-5.292c-.197 7.424-.318 14.54-.543 21.485a351.61 351.61 0 0 1-.487 10.389c-.563 8.805-1.533 17.274-3.042 25.468-1.081 5.736-2.357 11.187-3.741 16.445-1.384 5.258-2.874 10.326-4.354 15.366-2.52 8.65-5.03 17.47-7.07 27.275a215.675 215.675 0 0 0 5.54 7.613z" fill="url(#B)" transform="translate(318.13 -154.61) scale(.28501)"/><path d="M-674.13 706.59c2.102-6.022 4.221-11.775 6.305-17.47 2.593-7.054 5.124-14.197 7.206-21.93a152.578 152.578 0 0 0 1.982-8.245c1.127-5.445 1.938-11.076 2.472-16.916.533-5.84.789-11.887.882-18.162.124-8.93.007-18.246.156-28.2-2.997-.528-5.876-.956-8.673-1.228a48.711 48.711 0 0 0-3.293-.216c.285 9.997.83 19.278 1.048 27.983.035 1.459.062 2.904.081 4.335.073 6.106-.067 11.929-.55 17.453-.484 5.524-1.313 10.748-2.489 15.696-.04.172-.08.343-.122.515-.994 4.107-2.191 8.051-3.482 11.906-1.292 3.855-2.673 7.63-4.02 11.454a399.449 399.449 0 0 1-1.95 5.58c-1.512 4.246-3.107 8.596-4.845 12.846 1.165.151 2.054.121 2.505-.039.635.09 1.278.33 2.059 1.074a97.711 97.711 0 0 0 3.849 2.941c.289.208.582.415.88.623z" fill="url(#C)" transform="translate(318.13 -154.61) scale(.28501)"/><path d="M-661.35 717.36c2.038-9.804 4.548-18.625 7.069-27.275 1.48-5.04 2.97-10.107 4.354-15.366 1.384-5.258 2.66-10.709 3.741-16.445 1.51-8.194 2.479-16.663 3.042-25.468.215-3.411.37-6.873.487-10.389.226-6.944.346-14.06.543-21.485a355.54 355.54 0 0 0-3.404-.078c-4.153-.086-8.038-.056-11.691.171-.05 7.894.01 15.396-.096 22.63-.08 5.095-.27 10.033-.637 14.824-.366 4.79-.91 9.434-1.663 13.94-.346 2.08-.735 4.13-1.166 6.155-1.185 5.457-2.63 10.592-4.234 15.521-1.604 4.93-3.363 9.655-5.157 14.338-1.13 2.966-2.277 5.941-3.43 8.958a778.517 778.517 0 0 0-4.838 12.964c.55.29 1.134.592 1.752.912a89.1 89.1 0 0 0 6.71 3.012 120.4 120.4 0 0 0 8.618 3.08z" fill="url(#D)" transform="translate(318.13 -154.61) scale(.28501)"/><path d="M-683.32 702.25c1.738-4.25 3.333-8.6 4.846-12.846a400.952 400.952 0 0 0 1.948-5.58c1.348-3.825 2.73-7.599 4.02-11.455 1.292-3.855 2.489-7.799 3.483-11.906l.122-.515c1.176-4.948 2.005-10.172 2.488-15.696.484-5.524.624-11.347.55-17.453a402.408 402.408 0 0 0-.08-4.335c-.218-8.705-.763-17.986-1.048-27.983a41.29 41.29 0 0 1 2.955-2.643 76.49 76.49 0 0 1 4.598-3.44c-.19 13.169.252 25.127.217 36.388-.01 2.551-.05 5.06-.13 7.529-.154 4.81-.45 9.467-.94 13.982a135.312 135.312 0 0 1-2.054 13.124c-1.768 8.305-4.2 15.82-6.866 23.04a687.31 687.31 0 0 1-2.421 6.387 1788.728 1788.728 0 0 0-3.686 9.713c-.805.114-1.558.25-2.288.387-.987.132-1.868.733-2.738 1.45-.628.766-1.68 1.387-2.976 1.852z" fill="url(#E)" transform="translate(318.13 -154.61) scale(.28501)"/><path d="M-675.41 698.75a1791.89 1791.89 0 0 1 3.686-9.713 689.65 689.65 0 0 0 2.421-6.387c2.666-7.22 5.098-14.736 6.866-23.04.886-4.24 1.566-8.61 2.055-13.125.488-4.514.785-9.172.938-13.982.08-2.468.12-4.977.13-7.529.035-11.26-.405-23.219-.216-36.388a285.958 285.958 0 0 0-5.308-2.983c-.809-.443-1.61-.875-2.405-1.296.066 7.414.358 14.425.667 21.111.31 6.685.632 13.042.778 19.117.018.793.033 1.582.046 2.367.094 6.196-.031 12.101-.505 17.71-.475 5.609-1.298 10.917-2.474 15.954-.221.937-.453 1.863-.693 2.778-1.124 4.325-2.453 8.482-3.852 12.58-1.4 4.099-2.86 8.15-4.262 12.29l-.372 1.14a414.687 414.687 0 0 1-1.5 4.487c.217.107.4.194.542.264.687.586 1.238 1.194 1.885 2.325.492.744 1.001 1.51 1.573 2.32z" fill="url(#F)" transform="translate(318.13 -154.61) scale(.28501)"/><path d="M-561.53 704.59c-.183-5.827-.107-11.377-.026-16.846.068-4.23.149-8.442.196-12.769.047-4.328.061-8.772.025-13.467-.079-9.232-.447-19.237-1.033-30.81l-.144-2.763c-.559-10.83-1.209-22.984-1.733-37.195a83.153 83.153 0 0 0-6.167 2.695c.614 12.872 1.163 24.174 1.563 34.531.446 11.911.587 22.471.428 32.354-.176 10.012-.5 18.935-.693 27.808-.134 6.854-.207 13.82-.057 21.393a786.526 786.526 0 0 1 4.462-2.884 548.892 548.892 0 0 1 3.179-2.048z" fill="url(#G)" transform="translate(318.13 -154.61) scale(.28501)"/><path d="M-558.87 714.27c-.336-1.963-.446-4.15-.436-6.396.01-2.247.14-4.556.317-6.842.177-2.287.402-4.552.63-6.766.229-2.214.46-4.377.67-6.493.393-3.966.703-7.767.884-11.552.215-4.634.25-9.27.143-14.144-.158-7.109-.622-14.705-1.173-23.352-.123-1.914-.25-3.88-.377-5.906-.536-8.528-1.056-18.078-1.324-29.094a15.35 15.35 0 0 0-3.507-1.433 50.437 50.437 0 0 0-8.334-1.669c.417 9.565.774 18.27 1.036 26.418.37 11.948.418 22.6.154 32.607-.283 10.133-.712 19.176-1.007 28.16-.274 8.993-.445 18.19-.239 28.707 2.274-.68 4.506-1.383 6.717-2.112 1.699-.577 3.211-1.053 4.582-1.525.465-.168.828-.231 1.094-.222.243-.056.317.533.17 1.614z" fill="url(#H)" transform="translate(318.13 -154.61) scale(.28501)"/><path d="M-565.53 721.12a292.879 292.879 0 0 1-.587-17.779c-.024-5.568.082-10.848.225-16.057.257-8.725.632-17.449.838-27.2.19-9.613.088-19.902-.277-31.616-.205-6.381-.458-13.163-.728-20.5a57.268 57.268 0 0 0-11.94-3.731 86.841 86.841 0 0 0-3.967-.732c.266 7.153.477 13.914.613 20.42.243 12.29.07 23.56-.53 34.306a940.897 940.897 0 0 1-1.055 15.56c-.373 4.983-.752 9.793-1.1 14.58-.766 10.938-1.4 22.154-1.784 35.513a269.1 269.1 0 0 0 5.447-.562c5.06-.583 9.988-1.254 14.845-2.204z" fill="url(#I)" transform="translate(318.13 -154.61) scale(.28501)"/><path d="M-609.1 727.97c.93-14.523 2.377-26.676 3.943-38.52.686-5.086 1.401-10.196 2.09-15.487a563.67 563.67 0 0 0 1.928-16.499 332.15 332.15 0 0 0 1.23-17.423c.265-5.941.383-12.026.387-18.299a1066.85 1066.85 0 0 0-.166-17.328 455.226 455.226 0 0 0-10.724 3.674c-.012 4.57-.043 9.037-.112 13.436-.104 6.297-.324 12.428-.706 18.426a301.565 301.565 0 0 1-1.636 17.626c-.735 5.812-1.576 11.363-2.456 16.734-.88 5.37-1.8 10.56-2.686 15.726l-.337 2.006c-1.025 6.121-2.008 12.358-2.85 18.967a319.592 319.592 0 0 0-2.01 21.238c1.014-.29 2.028-.584 3.043-.882a521.975 521.975 0 0 0 11.061-3.395z" fill="url(#J)" transform="translate(318.13 -154.61) scale(.28501)"/><path d="M-622.57 732.26a319.494 319.494 0 0 1 2.009-21.238c.842-6.61 1.825-12.846 2.85-18.967l.337-2.006c.886-5.167 1.806-10.356 2.686-15.726.88-5.37 1.72-10.921 2.456-16.734a301.494 301.494 0 0 0 1.636-17.626c.382-5.999.602-12.13.706-18.426.07-4.4.1-8.866.112-13.436a631.529 631.529 0 0 0-6.164-1.983c-2.32-.746-4.63-1.485-6.923-2.22l-.074 4.759a1205 1205 0 0 1-.268 12.902c-.176 6.304-.467 12.452-.94 18.472a267.84 267.84 0 0 1-1.966 17.697c-.873 5.837-1.878 11.412-2.939 16.804-1.061 5.392-2.178 10.603-3.258 15.792-2.266 11.02-4.42 22.318-5.64 35.474 3.676 1.64 7.4 3.219 11.121 4.742a534.59 534.59 0 0 0 4.26 1.72z" fill="url(#K)" transform="translate(318.13 -154.61) scale(.28501)"/><path d="M-634.34 577.25c-2.923.581-5.708 2.2-8.753 1.776-2.325.06-4.77-.618-6.923.565-3.122.974-6.098 2.616-9.443 2.564-2.561.311-5.206.293-7.721.79-1.21.859.128 2.124 1.015 2.545 2.002.92 1.166 1.586-.504 2.178-1.098.144-1.516 1.797-.36 2.17 4.277.763 4.727 2.341 4.244 6.364.84 2.19 5.742.068 5.077 3.004-.38 1.135.116 2.898 1.6 2.517 4.288.636 8.366 2.604 12.81 2.12 2.521 1.188 4.248 5.282 7.456 4.311 4.609-.517 9.23-.923 13.845-1.386 4.433 1.122 8.834 2.527 13.279 3.522 3.742-.923 7.443-2.596 11.23-2.984 5.386.747 10.738 1.842 16.04 2.952 2.163-1.143 2.454-5.406 5.71-3.57 2.922.371 5.779 1.255 8.641 1.803 1.603-.537.477-2.68.677-3.862.347-2.314 4.554.656 6.408-.641 1.226-2.571-2.69-4.488-4.055-6.148-3.344-2.036.08-5.311.094-7.979-1.236-1.637-4.043-.54-5.772-1.273-2.425.22-4.259-.83-5.76-2.59-1.248-.925-2.166-2.454-3.617-3.023-4.394-.32-8.831-.447-13.198-.885-3.727-1.447-7.39-3.15-11.156-4.443-5.82.28-11.645.754-17.463.913-4.467-.43-8.933-.91-13.4-1.31z" fill="url(#L)" transform="translate(318.13 -154.61) scale(.28501)"/><path d="M-667.25 584.31c.03 3.393.114 6.675.219 9.906h-.063c.285 9.997.844 19.264 1.063 27.97.034 1.458.044 2.912.062 4.343.074 6.106-.047 11.944-.531 17.469-.484 5.524-1.324 10.74-2.5 15.688-.04.172-.084.328-.125.5-.995 4.107-2.178 8.05-3.469 11.906-1.291 3.855-2.683 7.644-4.031 11.469a400.285 400.285 0 0 1-1.938 5.594c-1.513 4.245-3.105 8.594-4.843 12.844.066.009.122-.007.187 0-.033.082-.06.168-.093.25.18-.065.33-.148.5-.219.865.07 1.537.037 1.906-.094.635.09 1.281.35 2.062 1.094.724.587 1.547 1.205 2.438 1.875-.668 1.8-1.357 3.59-2.032 5.438.552.29 1.133.586 1.75.906a89.2 89.2 0 0 0 6.72 3.031c2.582 1.039 5.28 1.981 8.062 2.875a213.016 213.016 0 0 0 5.094 7.031c-.024.158-.04.31-.063.47.144.016.294.014.438.03.023.03.04.064.062.094.003-.02-.003-.042 0-.063 1.621.187 3.251.354 4.906.5 4.548.397 9.173.625 13.844.72a387.05 387.05 0 0 0 10.781 4.593c1.214.497 2.445.984 3.657 1.469-.005.085-.027.165-.032.25.126-.036.25-.09.375-.125.095.038.187.087.282.125.004-.064-.004-.124 0-.188.796-.229 1.608-.453 2.406-.687 3.568-1.05 7.15-2.147 10.719-3.281 2.438.322 4.862.608 7.281.875 4.074.447 8.101.823 12.125 1.093v.063c.017-.024.045-.039.062-.063.167.012.334.02.5.032.01-.273.021-.51.032-.782a405.425 405.425 0 0 1 4.03-5.468c1.686-.16 3.357-.342 5.032-.532 5.06-.583 9.987-1.237 14.844-2.187-.14-2.173-.227-4.279-.312-6.344.374-.122.751-.252 1.125-.375 1.699-.577 3.222-1.06 4.593-1.531.434-.157.771-.218 1.032-.219-.165-1.522-.226-3.13-.22-4.781.01-2.247.136-4.558.313-6.844.178-2.286.428-4.567.657-6.781.228-2.214.446-4.353.656-6.469.393-3.967.694-7.778.875-11.562.215-4.634.263-9.282.156-14.156-.157-7.109-.636-14.697-1.187-23.344a3280.75 3280.75 0 0 1-.375-5.906c-.537-8.529-1.045-18.078-1.313-29.094a15.3 15.3 0 0 0-3.5-1.438c-.247-.071-.503-.12-.75-.187-.16-3.646-.323-7.396-.469-11.344a82.82 82.82 0 0 0-6.156 2.687c.124 2.606.226 4.893.344 7.375-.439-.061-.871-.137-1.313-.187.082 1.88.142 3.59.22 5.406a58.041 58.041 0 0 0-6.845-1.812c-1.151-.241-2.31-.432-3.468-.625-.003-.086.003-.165 0-.25-.044.071-.082.146-.125.218l-.375-.062c.008.213.023.412.03.625-.782 1.291-1.558 2.59-2.343 3.875-4.798-1.36-9.69-2.42-14.688-3.281a90.096 90.096 0 0 0-.719-.125c0-.064.001-.124 0-.188-.124.04-.25.084-.375.125l-.375-.062v.187c-3.21 1.058-6.423 2.198-9.656 3.344a639.743 639.743 0 0 0-5.844-1.875c-2.05-.659-4.096-1.319-6.125-1.969v-.094l-.25.032c-.187-.06-.376-.128-.562-.188v.25c-4.926.546-9.731 1.1-14.344 1.719-1.658-1.535-3.276-3.078-4.907-4.625.003-.106-.003-.206 0-.313-.115-.003-.228.003-.343 0-.064-.06-.124-.126-.188-.187-.002.064.002.124 0 .187-.964-.025-1.927-.077-2.875-.093-3.382-.07-6.578-.066-9.625.062.013-1.74.005-3.47.031-5.25-1.477-.26-2.918-.482-4.343-.687 0-2.17-.001-4.325.03-6.563-.061.043-.125.082-.187.125a285.403 285.403 0 0 0-5.218-2.937c-.81-.444-1.61-.86-2.407-1.282zm108.16 128.34c.06.548.13 1.105.219 1.625.147-1.08.086-1.68-.157-1.625z" fill="url(#M)" opacity=".392" transform="translate(318.13 -154.61) scale(.28501)"/><path d="M-741.32 658.97c-38.678 30.04 107.52 119.4 179.12 96.275 159.89-48.276-95.878 12.181-179.12-96.275z" fill="url(#N)" transform="translate(318.13 -154.61) scale(.28501)"/><path transform="matrix(.29365 0 0 .28501 323.633 -155.186)" d="M-756.66 673.16c23.713 64.107 103.03 109.6 164.25 84.938 136.7-51.482-93.079 30.722-164.25-84.938z" fill="url(#O)" filter="url(#P)"/><path transform="matrix(.22932 0 0 .27347 273.42 -138.746)" d="M-534.88 690.16c-5.72-1.45-19.212 1.951-12.719 9.75 3.096 2.748 8.715 1.026 10.125 5.781 5.123 4.878 12.739 1.117 18.906 3.094 71.26 6.448 137.13 47.67 178.31 105.43 54.078 73.582 75.584 168.83 63.349 258.86-11.929 83.899-58.01 163.07-126.78 212.68-17.863 13.386-37.735 23.948-57.728 33.78-4.288 3.264-.937 11.111 4.562 9.469 13.24-2.744 24.851-10.247 37.01-15.905 94.315-50.504 159.31-150.11 169.4-256.45 10.245-97.101-18.216-198.85-81.559-273.47-42.057-49.122-101.96-84.01-166.71-91.11-11.993-1.452-24.093-2.055-36.172-1.908z" fill="url(#Q)" filter="url(#R)" opacity=".341"/><path transform="matrix(.23542 0 0 .27561 278.707 -133.807)" d="M-502.47 679.61c-5.835.934-11.643 2-3.781 5.656 9.551 5.527 21.106 5.956 31.029 10.761 63.42 23.704 114.13 73.414 145.35 132.74 44.784 83.37 55.749 185.18 27.908 275.79-8.476 27.674-21.397 53.897-36.158 78.643-1.977 3.26 1.673 7.502 4.844 4.688 7.07-6.083 10.466-15.231 15.659-22.833 41.439-71.06 53.14-157.64 37.379-238.11-14.751-77.996-54.883-153.01-118.62-201.43-30.386-22.76-65.986-39.626-103.61-45.9z" fill="url(#S)" filter="url(#T)"/><path transform="translate(318.13 -154.61) scale(.28501)" d="M-553.72 733.88c-.746.035-1.532.129-2.406.344-4.126.555-10.702-2.119-5.188 3.094 34.623 45.656 50.657 98.175 62.25 150.12 18.578 91.304 20.103 185.35.469 276.62-12.621 54.545-31.821 109.46-70 156.38-17.261 20.169-39.405 40.96-70.875 46.156-23.06 1.47-46.562.672-69.781 1.375-12.582 1.094-.666 5.557 6 4.156 23.598-.509 47.315-.264 70.844-1.22 31.409-3.911 54.436-23.558 72.188-43.03 38.842-44.78 58.794-97.928 72.344-150.72 21.978-91.247 21.793-185.54 5.063-277.31-10.92-54.69-26.76-110-61.031-158.66-2.378-3.722-4.656-7.557-9.875-7.313z" fill="url(#U)" filter="url(#V)" opacity=".332"/><path transform="translate(318.13 -154.61) scale(.28501)" d="M-563.39 757.46c37.71 60.651 79.766 149.03 79.766 263.07 0 197.66-67.851 331.81-128.84 331.81-18.344 0-34.13.647-47.938.719 15.306.186 33.208-.719 54.531-.719 60.992 0 128.84-134.15 128.84-331.81 0-114.04-36.022-204.44-73.736-265.09-11.271-1.955-53.872-23.19-12.623 2.02z" fill="url(#W)" filter="url(#V)"/><path transform="translate(318.13 -154.61) scale(.28501)" d="M-640.66 738.53c-.014.093-.018.189-.031.281-13.717 112.41-17.211 555.78 3.719 624.75-8.908-188.91-9.447-378.65 9.812-567 2.467-17.309 4.263-35.333 11.375-51.469-7.837-1.692-16.127-3.882-24.875-6.562z" fill="url(#X)" filter="url(#Y)"/><path transform="translate(318.13 -154.61) scale(.28501)" d="M-683.98 718.22c-38.861 25.477-60.34 69.233-73.979 112.29-10.973 32.185-21.311 64.768-22.133 99.052-1.029 19.035-.809 38.106-.481 57.158 4.05-63.814 15.018-128.64 45.562-185.47 14.989-28.105 33.062-54.661 53.844-78.812 2.135-1.659 5.402-3.237.812-4.063-1.175-.272-2.632-1.465-3.625-.156z" fill="url(#Z)" filter="url(#aa)"/><path transform="translate(.002 -.018) scale(.99999)" d="M113.53 41.688c-37.66.377-61.781 47.656-61.781 97.75 0 .464.027.913.031 1.375v.093c-.007.448-.031.893-.031 1.345 0 34.058 12.877 64.322 32.844 83.438.46.244.965.467 1.438.687-.17-.407-.366-.809-.532-1.219-18.38-19.199-30.062-48.202-30.062-80.656 0-.451-.007-.896 0-1.344v-.093c-.004-.463 0-.911 0-1.375 0-50.094 24.122-97.373 61.781-97.75.059.029.108.04.157.062.09-.05.158-.106.25-.156-.554-.6-2.549-1.993-4.094-2.156z" fill="url(#ab)" filter="url(#ac)"/><path transform="translate(.002 -.018) scale(.99999)" d="M111.06 41.188c-37.082.373-60.812 47.141-60.812 96.688 0 .459-.004.886 0 1.344v.094c-.007.442 0 .897 0 1.343 0 33.685 12.683 63.594 32.344 82.5.453.242.91.47 1.375.688-.166-.402-.337-.782-.5-1.188-18.099-18.989-29.594-47.682-29.594-79.78 0-.447-.007-.902 0-1.344v-.063c-.004-.457 0-.916 0-1.375 0-49.546 23.73-96.314 60.812-96.688.058.029.108.04.156.063l.282-.157c-.545-.593-2.541-1.963-4.063-2.125z" fill="url(#ad)" filter="url(#ae)"/></svg>