<svg viewBox="0 0 476.16 496.31" xmlns:xlink="http://www.w3.org/1999/xlink" xmlns="http://www.w3.org/2000/svg"><defs><radialGradient id="g" cx="315.49" cy="113.53" r="153.85" gradientTransform="matrix(1 0 0 .22481 0 99.39)" gradientUnits="userSpaceOnUse" xlink:href="#a"/><radialGradient id="f" cx="260.8" cy="303.51" r="203.56" gradientTransform="matrix(.90146 .0421 -.04736 1.0139 41.611 -13.569)" gradientUnits="userSpaceOnUse" xlink:href="#a" spreadMethod="reflect"/><radialGradient id="m" cx="239.05" cy="136.45" r="177.79" gradientTransform="matrix(1 0 0 .46479 0 73.031)" gradientUnits="userSpaceOnUse" xlink:href="#b"/><radialGradient id="t" cx="255.28" cy="481.61" r="148.55" gradientTransform="matrix(1 0 0 .23766 -12.26 317.32)" gradientUnits="userSpaceOnUse" xlink:href="#b"/><radialGradient id="v" cx="270.17" cy="114.97" r="6.952" gradientTransform="matrix(1.0566 0 0 .22123 -29.06 51.684)" gradientUnits="userSpaceOnUse" xlink:href="#c"/><radialGradient id="p" cx="270.08" cy="251.66" r="222.2" gradientTransform="matrix(.99418 0 0 .47307 -20.263 -22.222)" gradientUnits="userSpaceOnUse" xlink:href="#c" spreadMethod="reflect"/><radialGradient id="x" cx="273.19" cy="117.44" r="7.531" gradientTransform="matrix(2.0115 .51035 -.33771 1.1934 -232.64 -157.46)" gradientUnits="userSpaceOnUse" xlink:href="#c"/><radialGradient id="e" cx="379.72" cy="178.81" r="19.724" gradientTransform="matrix(2.0295 .5438 -.49818 1.8592 -311.74 -346.34)" gradientUnits="userSpaceOnUse" xlink:href="#c" spreadMethod="reflect"/><radialGradient id="s" cx="264.82" cy="88.334" r="10.941" gradientTransform="matrix(.89675 0 0 1.4639 22.975 -39.804)" gradientUnits="userSpaceOnUse" xlink:href="#c"/><radialGradient id="y" cx="183.3" cy="328.82" r="121.19" gradientTransform="matrix(-.31744 1.3991 .51786 .05563 359.86 -33.483)" gradientUnits="userSpaceOnUse" xlink:href="#a"/><filter id="h" x="-.047" y="-.377" width="1.095" height="1.754" color-interpolation-filters="sRGB"><feGaussianBlur stdDeviation="5.493"/></filter><filter id="l" x="-.206" y="-.324" width="1.412" height="1.649" color-interpolation-filters="sRGB"><feGaussianBlur stdDeviation="10.478"/></filter><filter id="j" x="-.097" y="-.26" width="1.194" height="1.519" color-interpolation-filters="sRGB"><feGaussianBlur stdDeviation="11.082"/></filter><filter id="o" x="-.203" y="-.197" width="1.407" height="1.394" color-interpolation-filters="sRGB"><feGaussianBlur stdDeviation="6.791"/></filter><filter id="n" x="-.017" y="-.039" width="1.035" height="1.078"><feGaussianBlur stdDeviation="2.485"/></filter><filter id="u" x="-.029" y="-.137" width="1.058" height="1.274"><feGaussianBlur stdDeviation="3.501"/></filter><filter id="w" x="-.009" y="-.036" width="1.017" height="1.072"><feGaussianBlur stdDeviation=".046"/></filter><filter id="r" x="-.023" y="-.036" width="1.046" height="1.072"><feGaussianBlur stdDeviation=".243"/></filter><filter id="k" x="-.1" y="-.478" width="1.201" height="1.957"><feGaussianBlur stdDeviation="8.513"/></filter><filter id="z" x="-.694" y="-.184" width="2.388" height="1.368"><feGaussianBlur stdDeviation="9.62"/></filter><linearGradient id="c"><stop offset="0"/><stop stop-color="#31370c" offset=".125"/><stop stop-color="#919f20" offset=".365"/><stop stop-color="#535d1b" offset="1"/></linearGradient><linearGradient id="b"><stop offset="0"/><stop stop-opacity="0" offset="1"/></linearGradient><linearGradient id="a"><stop stop-color="#ff4f19" offset="0"/><stop stop-color="#aa260c" offset=".677"/><stop stop-color="#8c2100" offset="1"/></linearGradient><linearGradient id="q" x1="239.01" x2="266.6" y1="99.379" y2="99.379" gradientTransform="matrix(.91304 0 0 .77398 20.733 22.462)" gradientUnits="userSpaceOnUse" xlink:href="#c" spreadMethod="reflect"/><linearGradient id="d" x1="403.35" x2="379.9" y1="178.27" y2="123.22" gradientTransform="matrix(-1.7588 -.49719 -1.3095 .54628 1020.6 157.43)" gradientUnits="userSpaceOnUse" xlink:href="#c" spreadMethod="reflect"/><linearGradient id="i" x1="229.4" x2="230.15" y1="269.55" y2="122.09" gradientTransform="matrix(1 0 0 .87 -9.77 43.411)" gradientUnits="userSpaceOnUse" xlink:href="#a"/></defs><g color="#000"><path d="M188.2 110.89c-5.454.044-14.452.435-23.708 2.184-2.286 8.963-3.513 17.084-3.513 17.084l32.466-19.198s-1.973-.097-5.245-.07z" fill="url(#d)" transform="translate(-12.26 -52.687)"/><path d="M393.3 122.84a961.897 961.897 0 0 0-11.913 1.558l-.322.612 39.447 33.968s-16.224-34.025-27.213-36.138z" fill="url(#e)" transform="translate(-12.26 -52.687)"/><path d="M192.78 113.38c-10.256 3.156-19.818 6.704-28.728 10.607-88.247 38.655-112.52 112.16-113.05 185.39-.794 108.74 89.249 200.72 206.41 200.72 119.3-1.46 197.65-84.092 200.72-200.72 1.86-70.784-18.164-152.01-97.732-186.49-51.592-22.359-113.27-26.233-167.61-9.509z" fill="url(#f)" transform="translate(-12.26 -52.687)"/><path transform="matrix(1.091 0 0 1.2982 -35.836 -67.254)" d="M296.44 110.75c-13.391.114-24.971.781-31.875.781-15.315 0-57.387-1.24-71.781 1.844-28.827 6.175-53.145 17.178-73.062 32.312 9.476-2.062 19.28-3.872 29.406-5.437 5.923-.916 14.631-1.515 24.75-1.907a216.186 216.186 0 0 1 18.906-4.968c14.394-3.084 56.466-1.844 71.781-1.844 17.001 0 62.386-3.92 93.219 5.844 13.643.41 27.524 1.228 40.875 2.687-10.229-8.363-21.972-15.408-35.406-20.75-17.247-6.859-40.619-8.468-60.969-8.562a421.61 421.61 0 0 0-5.844 0z" fill="url(#g)" filter="url(#h)"/><path transform="matrix(1 0 0 1.3635 0 -36.017)" d="M381.66 125.69c-35.343 33.143-82.892 2.7-136.78 3.406-53.906 0-101.92 32.5-138.06-.125 27.954 61.175 78.449 99.156 138.25 99.156 59.917-1.002 109.89-42.898 136.59-102.44z" fill="url(#i)" filter="url(#j)"/><path transform="matrix(.94662 0 0 1.0793 13.129 -11.323)" d="M347.78 121.47c-5.886 3.103-12.249 4.875-19 5.75-21.048 17.523-52.124 29.037-88.062 29.375-39.089 0-72.81-12.327-94.438-32.719-.738-.33-1.462-.632-2.188-1 20.715 25.483 58.122 41.312 102.44 41.312 44.401-.417 81.458-17.917 101.25-42.719z" fill="#fff" filter="url(#k)"/><path d="M364.25 177.78c-33.793 3.076-49.519 4.612-83.312 7.688 25.537 20.98 24.395 68.697 53.344 69.812 33.988-.664 32.918-3.494 66.906-4.157 6.67-31.46-6.445-54.53-36.938-73.344z" fill="#faa" filter="url(#l)" opacity=".8"/><path transform="matrix(1 0 0 1.0648 0 -5.489)" d="M287.66 59.781c-6.222-.008-12.148.153-17.469.313l-27.625 35.905-75.938-29.593a193.074 193.074 0 0 0-9.812 3.218l65.906 32.625-125.16 21.531-27.594 18.47a172.416 172.416 0 0 0-2.75 5.03l32.094-17.906 130.09-11.28s-10.028 13.662-13.094 21.53c-9.045 23.216-14.75 73.5-14.75 73.5s15.504-44.284 28.469-63.344c7.451-10.954 27.656-28.28 27.656-28.28s58.183 13.9 85.938 25c23.372 9.347 67.25 34.78 67.25 34.78s-37.226-33.267-58.938-44.719c-22.934-12.097-73.562-24.375-73.562-24.375s21.62-10.803 64.154-13.776c-3.16-3.221 30.89-10.574 27.376-13.487-43.392.891-99.092 14.481-99.092 14.481z" fill="url(#m)" filter="url(#n)"/><path transform="matrix(1 0 0 -.56529 0 183.823)" d="M391.44 94.562c-35.343 38.095-82.892 62.22-136.78 63.031-53.906 0-101.92-21.749-138.06-59.25 27.954 70.316 78.449 113.97 138.25 113.97 59.917-1.152 109.89-49.314 136.59-117.75z" fill="#601700" filter="url(#j)"/><path d="M145.43 199.31c-16.649 1.768-28.454 13.289-39.031 41.219l-4.969 41.5c.114.089 2.489-.347 49.25-37.469 6.903-4.73 18.152-7.075 30.844-8-13.26-9.855-25.379-22.393-36.094-37.25z" fill="#ff9d97" filter="url(#o)" opacity=".522" transform="translate(-12.26 -52.687)"/><path d="M320.59 25.25c-.648-.048-2.53 2.212-4.25 3.219-24.98 16.703-60.204 18.042-64.257 66.136-11.784-24.773-67.069-40.76-67.069-40.76-10.943 2.17-21.719-1.657-32.829 6.53 0 0 13.725-.332 17.183.056 28.905 6.44 37.701 21.616 49.346 34.694-25.731-10.567-54.151-5.649-121.53 20.53-22.429 8.716-20.721 12.407-40.281 26.242-4.962 6.947 8.357-.111 11.281-2.125 17.825-9.386 14.038-9.39 33.406-14.991 41.348-11.96 127.29-15.647 127.29-15.647-8.472 7.907-25.331 26.938-28 38.379-5.679 20.138-8.91 41.099-10.375 61.938-.218 9.22 4.588-1.568 5.656-5.25 8.297-20.628 29.417-52.871 42.665-70.902 7.418-8.835 13.864-8.557 22.451-16.018 33.182 8.456 66.921 15.629 98.281 29.719 19.297 8.805 37.861 19.477 56.688 29.219 8.148 3.306-.203-5.453-3.125-7.25-23.854-19.353-47.629-40.655-77.53-49.656-14.31-4.998-28.926-9.16-43.626-12.938 38.877-5.256 53.467-32.9 92.714-34.48-15.414-10.917-28.88-7.904-39.75-6.917-30.729 1.915-37.122 21.739-67.589 25.835 6.81-33.593 32.177-39.185 42.72-62.22.84-2.47.919-3.314.53-3.343z" fill="url(#p)"/><path transform="matrix(.79363 0 0 .54067 48.687 45.854)" d="M251 91.281c-3.626-.084-7.22 1.12-8.688 4.188-17.67 20.806 41.476 11.106 14.812-2.782-1.767-.855-3.949-1.355-6.125-1.406z" fill="url(#q)" filter="url(#r)"/><path d="M250.75 71.062c-2.793.077-5.37 1.349-5.813 4.094.008 1.391 1.404 2.75.938 4.094-2.433 7.01-3.714 10.259-6.188 20.375-.245 2.996 6.813 3.331 9.532 2.687 3.148-.263 7.915-1.844 7.78-4.437-1.317-8.855-1.218-9.78-1.218-16.25 0-1.807 3.162-3.876 2.938-5.625-.406-3.168-4.378-5.037-7.97-4.938z" fill="url(#s)" fill-rule="evenodd" style="text-indent:0;text-transform:none"/><path d="M387.44 401.12c-38.301 28.039-87.216 45.417-141.94 46.062-56.51 0-107.27-16.625-146.88-45.594 35.676 37.019 84.833 59.297 140.69 60.75.125.003.25-.003.375 0 1.927.039 3.871.094 5.813.094 56.602-.847 106.2-24.508 141.94-61.312z" fill="url(#t)" filter="url(#u)"/><path transform="matrix(.89675 0 0 .84913 22.975 13.375)" d="M248.53 75.75c-.143.123-.25.26-.281.406-.215 1.002 2.429 2.13 5.906 2.531 3.477.401 6.504-.06 6.719-1.062a.635.635 0 0 0-.063-.375c-.823.727-3.455 1.031-6.437.687-3.089-.356-5.49-1.28-5.844-2.187z" fill="url(#v)" filter="url(#w)" opacity=".8"/><path d="M250.78 70.243c-.278.336-.605.433-.785.876-.355.272-.45-.553-.924-.319-.276-.034-.319.177 0 .16-.35.153.518.135.028.291-.28.012-.514-.619-.785-.318-.262-.17-.43.457-.476.318-.14.309-.512-.336-.589.16-.295-.235-.462.563-.476.159-.274.01-.305.96-.505.398-.248-.07-.698.518-.224.318.206.448-.301-.081-.14.372.581.067.004 1.129 0 .477.426-.367-.337-.225-.42-.557-.257.013-.449-.48-.197 0 .247.42-.625.092-.224.557.406.598-.72.497-.98.77.35.02-.142.903.224.478.533.097-.333.402.252.398.235.057-.074.564.308.504-.516.04.232.675-.252.902-.067.276.327.904.252.292.13-.066.787-.085.364-.212.28.074.722.063.42.291.285.276.476.443.45.796.246.752.847-.285 1.176.425.19.374.277-.458.364 0-.388.21.192.02.225.106.21-.303.627-.275.588.212.37-.57.352.476.729.16.039-.065 1.046-.482 1.037.185.62-.279-.037 1.113.616.451.59-.066 1.14-.421 1.653-.159.543-.13.266-1.194.841-.849.185-.366.403.342.757.212-.017.03-.004.065 0 .08.114.027.445-.098.42.106.126-.176.425-.112.56.053-.505.122.307.484.393 0 .146.542.417-.352.252-.371.205-.425 1.072-.749.813 0 .417.397.434-.73.897-.16.538.08.116-.755.336-1.087-.152-.28-.206-.343-.056-.61.291-.057.237.963.392.503-.129.39.762.34.28 0-.309-.218-.443-.422-.224-.583.392-.165.957.009.981-.637-.234-.142.286-.539-.084-.398.454-.216.064-.61.14-.796-.646-.228.445-.628.617-.902-.298-.133-.197-.489-.56-.24-.367-.088-.25.301-.393.213-.375-.027.709.479 0 .265-.403-.206-.045.545-.477.213-.017-.31-.101-.501.169-.637.043-.307-.18.104-.084-.319-.224.25-.911.24-.56-.345.255-.324-.044-.358-.113-.318.113-.293-.696-.16-.336.133-.079.438-.45-.507-.393.026-.094-.192-.684-.86-.196-.424-.035.386.316-.336 0-.398.343-.244-.284.185-.364-.213-.297.087-.286.012-.308.053-.51-.342-.185.183.084.24.169.892-.715-.725-.897-.133.178-.919-1.26.453-.98-.61.114-.799-.812.244-1.038.132-.264-.228-.133.51-.448.106-.225-.025-.522-.013-.196-.265-.223.059-.756.126-.533-.292-.3.154-.662.293-.224-.08.016-.022.004-.02 0-.026-.103.018-.428.157-.476-.053-.64-.065.481.21-.169.212-.252.168-.42-.067-.532-.292z" fill="#828f1f"/><path d="M263.2 121.44c-.24.305-.52.393-.674.795-.306.247-.388-.502-.795-.29-.236-.03-.273.161 0 .145-.3.14.446.123.024.265-.24.01-.44-.562-.674-.289-.225-.154-.37.415-.41.289-.12.28-.438-.305-.505.144-.253-.212-.396.512-.409.145-.235.009-.262.871-.433.361-.214-.062-.6.47-.193.29.177.406-.259-.075-.12.336.5.06.004 1.025 0 .434.366-.334-.29-.204-.361-.506-.22.012-.386-.436-.169 0 .212.38-.537.083-.193.506.349.542-.62.45-.842.698.301.018-.121.82.192.433.459.09-.285.366.217.362.202.052-.063.512.265.457-.443.037.2.613-.217.819-.057.25.282.82.217.265.111-.06.676-.078.313-.193.24.067.62.058.361.265.245.25.408.401.385.722.213.682.728-.259 1.011.386.164.34.238-.416.313 0-.333.19.165.018.193.096.18-.275.539-.25.506.192.318-.517.302.432.626.145.033-.059.899-.437.89.168.533-.253-.03 1.01.53.41.506-.06.98-.383 1.42-.145.466-.118.229-1.083.723-.77.158-.332.346.31.65.192-.014.028-.004.059 0 .073.098.024.382-.09.361.096.108-.16.365-.102.482.048-.435.11.263.439.337 0 .125.492.358-.32.216-.337.176-.386.92-.679.699 0 .358.36.372-.662.77-.144.463.072.1-.686.289-.988-.131-.254-.177-.31-.048-.553.25-.052.204.874.337.457-.111.353.654.309.24 0-.265-.198-.38-.384-.192-.53.337-.149.822.008.843-.578-.201-.128.246-.488-.073-.36.39-.197.055-.553.12-.723-.554-.207.383-.57.53-.819-.256-.12-.169-.443-.481-.217-.315-.08-.213.273-.337.193-.323-.024.609.434 0 .24-.346-.186-.039.495-.41.193-.015-.28-.087-.454.145-.577.038-.279-.155.095-.072-.29-.192.228-.783.217-.482-.312.22-.295-.037-.326-.096-.29.097-.265-.598-.145-.289.121-.067.398-.386-.46-.337.024-.081-.174-.588-.781-.169-.385-.03.35.272-.305 0-.361.295-.221-.244.168-.313-.193-.255.078-.245.01-.264.048-.438-.31-.16.166.072.217.145.81-.614-.657-.77-.12.152-.834-1.083.411-.843-.554.098-.724-.697.221-.891.12-.227-.206-.115.464-.385.096-.193-.023-.448-.012-.169-.24-.191.053-.649.114-.457-.265-.259.14-.569.266-.193-.073.014-.02.004-.017 0-.024-.088.017-.368.144-.41-.048-.549-.058.415.192-.144.193-.217.153-.361-.06-.457-.265z" fill="url(#x)" transform="translate(-12.26 -52.687)"/><path d="M359.25 172.94c.302 1.072.509 2.166.75 3.25 20.515 30.325 28.28 73.533 20.281 122.12h10.5c6.48-51.843-5.304-96.828-31.531-125.38z" fill="url(#y)" filter="url(#z)"/></g></svg>