<svg width="323.732" height="474.27" xmlns:xlink="http://www.w3.org/1999/xlink" xmlns="http://www.w3.org/2000/svg"><defs><radialGradient xlink:href="#a" id="e" gradientUnits="userSpaceOnUse" gradientTransform="matrix(-.84189 .48008 .34464 .60438 535.016 36.976)" spreadMethod="reflect" cx="64.506" cy="95.518" fx="64.647" fy="58.605" r="185.714"/><radialGradient xlink:href="#b" id="g" gradientUnits="userSpaceOnUse" gradientTransform="matrix(-.89259 0 0 .6826 606.58 56.77)" cx="48.391" cy="113.4" fx="48.391" fy="113.4" r="168.786"/><radialGradient xlink:href="#b" id="h" gradientUnits="userSpaceOnUse" gradientTransform="matrix(2.93536 0 0 2.01912 157.568 -204.876)" cx="81.752" cy="162.465" fx="81.752" fy="162.465" r=".038"/><radialGradient xlink:href="#b" id="i" gradientUnits="userSpaceOnUse" gradientTransform="matrix(2.93536 0 0 8.05038 157.568 -1186.684)" cx="142.523" cy="167.049" fx="142.523" fy="167.049" r=".028"/><radialGradient xlink:href="#b" id="j" gradientUnits="userSpaceOnUse" gradientTransform="matrix(1 0 0 .27444 0 39.789)" cx="536.223" cy="54.839" fx="536.223" fy="54.839" r="47.25"/><radialGradient xlink:href="#c" id="k" gradientUnits="userSpaceOnUse" gradientTransform="matrix(1 0 0 .33333 0 27.803)" cx="23.234" cy="41.705" fx="23.234" fy="66.374" r="40.911"/><radialGradient xlink:href="#d" id="n" gradientUnits="userSpaceOnUse" gradientTransform="matrix(3.29078 0 0 3.29078 -561.241 904.356)" cx="243.931" cy="-387.644" fx="243.931" fy="-387.644" r="17.143"/><radialGradient xlink:href="#d" id="o" gradientUnits="userSpaceOnUse" gradientTransform="matrix(3.8861 1.04128 -2.24104 8.36366 -542.325 1598.302)" cx="178.335" cy="-223.286" fx="178.335" fy="-223.286" r="122.592"/><radialGradient xlink:href="#a" id="q" gradientUnits="userSpaceOnUse" gradientTransform="matrix(.51147 .29166 -.20938 .36718 732.65 12.92)" spreadMethod="reflect" cx="33.73" cy="125.411" fx="33.872" fy="88.498" r="185.714"/><radialGradient xlink:href="#b" id="s" gradientUnits="userSpaceOnUse" gradientTransform="matrix(.54227 0 0 .4147 687.645 23.033)" cx="48.391" cy="113.4" fx="48.391" fy="113.4" r="168.786"/><radialGradient xlink:href="#b" id="t" gradientUnits="userSpaceOnUse" gradientTransform="matrix(1.78332 0 0 1.22667 505.65 -134.012)" cx="81.752" cy="162.465" fx="81.752" fy="162.465" r=".038"/><radialGradient xlink:href="#b" id="u" gradientUnits="userSpaceOnUse" gradientTransform="matrix(1.78332 0 0 4.89084 505.65 -730.49)" cx="142.523" cy="167.049" fx="142.523" fy="167.049" r=".028"/><radialGradient xlink:href="#b" id="v" gradientUnits="userSpaceOnUse" gradientTransform="matrix(.54317 0 0 .13282 707.203 39.171)" cx="54.047" cy="112.424" fx="54.047" fy="112.424" r="73.271"/><radialGradient xlink:href="#b" id="w" gradientUnits="userSpaceOnUse" gradientTransform="matrix(.60753 0 0 .1598 409.923 10.164)" cx="537.341" cy="44.018" fx="537.341" fy="44.018" r="59.053"/><radialGradient xlink:href="#c" id="x" gradientUnits="userSpaceOnUse" gradientTransform="matrix(1 0 0 .33333 0 27.803)" cx="23.234" cy="41.705" fx="23.234" fy="66.374" r="40.911"/><radialGradient xlink:href="#d" id="A" gradientUnits="userSpaceOnUse" gradientTransform="matrix(3.29078 0 0 3.29078 -561.241 904.356)" cx="243.931" cy="-387.644" fx="243.931" fy="-387.644" r="17.143"/><radialGradient xlink:href="#d" id="B" gradientUnits="userSpaceOnUse" gradientTransform="matrix(2.36092 .6326 -1.3615 5.08117 80.445 961.472)" cx="178.335" cy="-223.286" fx="178.335" fy="-223.286" r="122.592"/><radialGradient xlink:href="#d" id="C" gradientUnits="userSpaceOnUse" gradientTransform="matrix(2.40013 0 0 .58586 -555.523 -9.908)" cx="541.55" cy="84.986" fx="541.55" fy="84.986" r="10.363"/><radialGradient xlink:href="#b" id="r" cx="720.15" cy="73.236" fx="720.15" fy="73.236" r="63.89" gradientTransform="matrix(1.14199 0 0 .77727 -102.615 11.312)" gradientUnits="userSpaceOnUse"/><radialGradient xlink:href="#b" id="f" cx="540.744" cy="103.42" fx="540.744" fy="103.42" r="90.308" gradientTransform="matrix(1 0 0 .34172 0 68.079)" gradientUnits="userSpaceOnUse"/><linearGradient id="d"><stop style="stop-color:#292900;stop-opacity:1" offset="0"/><stop style="stop-color:#bcbc00;stop-opacity:1" offset="1"/></linearGradient><linearGradient id="c"><stop style="stop-color:#000;stop-opacity:1" offset="0"/><stop style="stop-color:#000;stop-opacity:0" offset="1"/></linearGradient><linearGradient id="b"><stop style="stop-color:#fff;stop-opacity:1" offset="0"/><stop style="stop-color:#fff;stop-opacity:0" offset="1"/></linearGradient><linearGradient id="a"><stop style="stop-color:#ff7a7a;stop-opacity:1" offset="0"/><stop style="stop-color:#e10000;stop-opacity:1" offset=".111"/><stop style="stop-color:#4e0000;stop-opacity:1" offset="1"/></linearGradient><linearGradient xlink:href="#d" id="l" gradientUnits="userSpaceOnUse" gradientTransform="matrix(1.21083 0 0 1.21083 474.57 8.044)" x1="46.219" y1="-171.182" x2="258.819" y2="-171.182"/><linearGradient xlink:href="#d" id="m" gradientUnits="userSpaceOnUse" gradientTransform="translate(484.873 24.244)" x1="-108.734" y1="-35.411" x2="8.252" y2="-277.554"/><linearGradient xlink:href="#d" id="p" gradientUnits="userSpaceOnUse" x1="525.445" y1="83.45" x2="579.388" y2="51.906"/><linearGradient xlink:href="#d" id="y" gradientUnits="userSpaceOnUse" gradientTransform="matrix(.73562 0 0 .73562 698.239 -4.657)" x1="46.219" y1="-171.182" x2="258.819" y2="-171.182"/><linearGradient xlink:href="#d" id="z" gradientUnits="userSpaceOnUse" gradientTransform="matrix(.60753 0 0 .60753 704.498 5.184)" x1="-108.734" y1="-35.411" x2="8.252" y2="-277.554"/></defs><g transform="translate(-634.206 296.022)"><g transform="matrix(-.44432 0 0 .44432 1122.945 -75.732)"><path d="M371.383 138.402c-.768 62.734 24.733 114.477 78.686 150.24 53.416 30.713 151.008 29.27 198.854-33.586 37.762-49.608 56.73-101.208 39.569-160.579-12.234-34.9-47.815-68.226-83.712-74.655-43.992-10.312-89.832-8.063-134.385-3.212-35.739 5.033-72.546 29.808-86.48 65.446-8.732 19.899-12.756 34.788-12.532 56.346z" style="fill:url(#e);fill-opacity:1;stroke:none"/><path d="M631.052 97.75c-3.505 73.58 4.182 18.577-13.191-13.834-75.901 63.64-148.585 17.124-159.759-.154-2.067-2.743-9.502-8.674-7.244-10.37 30.41 22.79 69.472 33.476 106.09 26.968 22.658-4.045 48.257-14.351 55.31-21.199 19.232-18.671 17.793 7.004 18.794 18.589z" style="fill:url(#f);fill-opacity:1;stroke:none"/><path d="M452.121 121.812c-.169 3.993-33.099 84.104-30.9 73.962.556-1.752-12.254-162.616 30.9-73.962z" style="fill:url(#g);fill-opacity:1;stroke:none"/><path d="M397.429 123.084c.296.204.296.204 0 0z" style="fill:url(#h);fill-opacity:1;stroke:none"/><path d="M575.842 158.022c.36-.536.015.956 0 0z" style="fill:url(#i);fill-opacity:1;stroke:none"/><path d="M489.038 67.806c-1.73-19.883 31.215-27.466 53.32-25.682 16.092.594 39.914 4.123 41.115 18.702-24.147-20.082-79.31-19.99-94.435 6.98z" style="fill:url(#j);fill-opacity:1;stroke:none"/><ellipse transform="matrix(1.63626 0 0 2.07122 503.013 -17.927)" style="fill:url(#k);fill-opacity:1;stroke:none" cx="23.234" cy="41.705" rx="40.911" ry="13.637"/><path d="M772.17-471.537c-3.146.11-5.727 1.276-7 3.48-53.28 77.476-105.534 158.18-138.565 229.908-38.763 85.206-70.434 182.212-90.32 287.573v.037a1252.137 1252.137 0 0 0-4.768 27.017c-3.648.95-6.092 2.636-6.092 4.54 0 2.959 5.854 5.336 13.054 5.336s13.055-2.377 13.055-5.335c0-1.834-2.256-3.462-5.676-4.427 1.12-6.202 2.274-12.397 3.48-18.541v-.038c19.932-101.507 51.312-194.9 89.527-276.827l.227-.53c41.564-88.973 91.15-164.791 144.922-227.901l2.573-3.027c1.809-.54 3.27-1.547 4.124-3.027 2.546-4.41-1.119-11.29-8.173-15.363-3.527-2.036-7.222-2.986-10.368-2.875z" style="color:#000;font-style:normal;font-variant:normal;font-weight:400;font-stretch:normal;font-size:medium;line-height:normal;font-family:Sans;-inkscape-font-specification:Sans;text-indent:0;text-align:start;text-decoration:none;text-decoration-line:none;letter-spacing:normal;word-spacing:normal;text-transform:none;writing-mode:lr-tb;direction:ltr;baseline-shift:baseline;text-anchor:start;display:inline;overflow:visible;visibility:visible;fill:url(#l);fill-opacity:1;fill-rule:evenodd;stroke:none;stroke-width:10;marker:none;enable-background:accumulate"/><path d="M772.17-471.537c-3.146.11-5.727 1.276-7 3.48-53.28 77.476-105.534 158.18-138.565 229.908-38.763 85.206-70.434 182.212-90.32 287.573v.037a1252.137 1252.137 0 0 0-4.768 27.017c-3.648.95-6.092 2.636-6.092 4.54 0 2.959 5.854 5.336 13.054 5.336.64 0 1.24-.04 1.854-.076-6.33-.365-11.238-2.559-11.238-5.26 0-1.904 2.445-3.59 6.092-4.54 1.503-9.05 3.08-18.074 4.768-27.017v-.037c19.887-105.361 51.558-202.367 90.32-287.573 32.519-70.616 82.6-148.937 135.017-225.307.826-1.203.429-3.093 1.255-4.294 1.091-1.891 5.46-3.322 8.007-3.674a15.535 15.535 0 0 0-2.384-.113z" style="color:#000;font-style:normal;font-variant:normal;font-weight:400;font-stretch:normal;font-size:medium;line-height:normal;font-family:Sans;-inkscape-font-specification:Sans;text-indent:0;text-align:start;text-decoration:none;text-decoration-line:none;letter-spacing:normal;word-spacing:normal;text-transform:none;writing-mode:lr-tb;direction:ltr;baseline-shift:baseline;text-anchor:start;display:inline;overflow:visible;visibility:visible;fill:url(#m);fill-opacity:1;fill-rule:evenodd;stroke:none;stroke-width:10;marker:none;enable-background:accumulate"/><circle style="fill:url(#n);fill-opacity:1;stroke:none" transform="matrix(.57907 .33433 -.20895 .36192 553.564 -399.703)" cx="245" cy="-394.781" r="17.143"/><path d="M764.933-465.641a5.2 5.2 0 0 0-.814 2.265c-.502 4.474 3.825 9.913 9.664 12.127 2.17.823 4.224 1.086 5.998.864a14.371 14.371 0 0 1-3.424-.856 17.414 17.414 0 0 1-5.338-3.24c-3.99-2.676-6.624-6.795-6.228-10.326.031-.28.075-.576.142-.834z" style="fill:#ff0;stroke:none"/><path d="M786.252-449.297c-92.437 98.66-151.808 222.378-194.291 345.947a1431.167 1431.167 0 0 0-47.744 179.906l2.877.938c.436-18.961 6.818-41.48 11.51-61.844C598.683-151.993 676.72-325.874 789.4-450.19Z" style="color:#000;font-style:normal;font-variant:normal;font-weight:400;font-stretch:normal;font-size:medium;line-height:normal;font-family:Sans;-inkscape-font-specification:Sans;text-indent:0;text-align:start;text-decoration:none;text-decoration-line:none;letter-spacing:normal;word-spacing:normal;text-transform:none;writing-mode:lr-tb;direction:ltr;baseline-shift:baseline;text-anchor:start;display:inline;overflow:visible;visibility:visible;fill:url(#o);fill-opacity:1;fill-rule:evenodd;stroke:none;stroke-width:10;marker:none;enable-background:accumulate"/><path d="M525.516 80.531c.67 2.698 6.19 4.853 12.94 4.853 6.702 0 12.277-2.113 13.012-4.783.025.135.07.286.07.422 0 2.958-5.88 5.346-13.081 5.346-7.2 0-13.012-2.388-13.012-5.346 0-.167.034-.328.07-.492z" style="color:#000;font-style:normal;font-variant:normal;font-weight:400;font-stretch:normal;font-size:medium;line-height:normal;font-family:Sans;-inkscape-font-specification:Sans;text-indent:0;text-align:start;text-decoration:none;text-decoration-line:none;letter-spacing:normal;word-spacing:normal;text-transform:none;writing-mode:lr-tb;direction:ltr;baseline-shift:baseline;text-anchor:start;display:inline;overflow:visible;visibility:visible;fill:url(#p);fill-opacity:1;fill-rule:evenodd;stroke:none;stroke-width:10;marker:none;enable-background:accumulate"/></g><path style="fill:url(#q);fill-opacity:1;stroke:none" d="M832.061 74.54c.467 38.112-15.026 69.547-47.804 91.274-32.451 18.66-98.307 19.298-127.375-18.89-22.942-30.137-27.9-63.001-17.473-99.07 7.432-21.203 29.049-41.45 50.857-45.356C716.992-3.767 744.842-2.4 771.909.547c21.712 3.058 44.073 18.11 52.539 39.76 5.305 12.09 7.75 21.135 7.613 34.232z"/><path style="fill:url(#r);fill-opacity:1;stroke:none" d="M671.433 117.277c-15.336-43.237 6.925-74.507 13.953-77.219 45.05 34.653 90.699 14.64 98.86-.113 1.278-2.021 4.482-7.639 4.482-7.639s-16.729 23.212-66.353 16.097c-14.02-2.98-27.584-10.278-40.703-18.097-31.596 25.844-20.249 67.067-10.24 86.971z"/><path style="fill:url(#s);fill-opacity:1;stroke:none" d="M781.484 62.548c.103 2.425 20.109 51.095 18.772 44.934-.337-1.064 7.445-98.794-18.772-44.934z"/><path style="fill:url(#t);fill-opacity:1;stroke:none" d="M651.373 65.233c.18.124.18.124 0 0z"/><path style="fill:url(#u);fill-opacity:1;stroke:none" d="M759.764 86.459c.22-.326.01.58 0 0z"/><path style="fill:url(#v);fill-opacity:1;stroke:none" d="M701.503 37.506c11.427 16.389 48.942 22.67 69.105 3.625-17.465 9.998-50.24 9.427-69.105-3.625z"/><path d="M776.739 23.973c-25.622-12.378-65.17-8.345-79.554.932 13.522-19.134 71.578-16.378 79.554-.932Z" style="fill:url(#w);fill-opacity:1;stroke:none"/><ellipse style="fill:url(#x);fill-opacity:1;stroke:none" transform="matrix(1.08012 0 0 1.36724 712.543 -27.42)" cx="23.234" cy="41.705" rx="40.911" ry="13.637"/><path style="color:#000;font-style:normal;font-variant:normal;font-weight:400;font-stretch:normal;font-size:medium;line-height:normal;font-family:Sans;-inkscape-font-specification:Sans;text-indent:0;text-align:start;text-decoration:none;text-decoration-line:none;letter-spacing:normal;word-spacing:normal;text-transform:none;writing-mode:lr-tb;direction:ltr;baseline-shift:baseline;text-anchor:start;display:inline;overflow:visible;visibility:visible;fill:url(#y);fill-opacity:1;fill-rule:evenodd;stroke:none;stroke-width:10;marker:none;enable-background:accumulate" d="M879.04-296.017c-1.912.067-3.48.775-4.253 2.115-32.369 47.068-64.115 96.098-84.183 139.675-23.55 51.766-42.79 110.7-54.872 174.709v.023a760.634 760.634 0 0 0-2.896 16.413c-2.216.577-3.702 1.602-3.702 2.759 0 1.797 3.557 3.241 7.931 3.241 4.375 0 7.931-1.444 7.931-3.241 0-1.114-1.37-2.103-3.448-2.69a755.37 755.37 0 0 1 2.115-11.264V25.7c12.108-61.668 31.173-118.407 54.39-168.18l.138-.322c25.251-54.054 55.376-100.116 88.044-138.457l1.563-1.839c1.099-.328 1.986-.94 2.506-1.839 1.546-2.679-.68-6.859-4.966-9.333-2.143-1.237-4.387-1.814-6.299-1.747z"/><path style="color:#000;font-style:normal;font-variant:normal;font-weight:400;font-stretch:normal;font-size:medium;line-height:normal;font-family:Sans;-inkscape-font-specification:Sans;text-indent:0;text-align:start;text-decoration:none;text-decoration-line:none;letter-spacing:normal;word-spacing:normal;text-transform:none;writing-mode:lr-tb;direction:ltr;baseline-shift:baseline;text-anchor:start;display:inline;overflow:visible;visibility:visible;fill:url(#z);fill-opacity:1;fill-rule:evenodd;stroke:none;stroke-width:10;marker:none;enable-background:accumulate" d="M879.04-296.017c-1.912.067-3.48.775-4.253 2.115-32.369 47.068-64.115 96.098-84.183 139.675-23.55 51.766-42.79 110.7-54.872 174.709v.023a760.634 760.634 0 0 0-2.896 16.413c-2.216.577-3.702 1.602-3.702 2.759 0 1.797 3.557 3.241 7.931 3.241.389 0 .753-.024 1.127-.046-3.846-.221-6.828-1.554-6.828-3.195 0-1.157 1.485-2.182 3.701-2.759a760.697 760.697 0 0 1 2.897-16.413v-.023c12.082-64.01 31.323-122.943 54.872-174.71 19.756-42.9 50.182-90.482 82.027-136.88.501-.73.26-1.879.762-2.609.663-1.148 3.317-2.017 4.865-2.231a9.436 9.436 0 0 0-1.449-.07z"/><circle transform="matrix(.3518 .20311 -.12695 .21988 746.23 -252.376)" style="fill:url(#A);fill-opacity:1;stroke:none" cx="245" cy="-394.781" r="17.143"/><path style="fill:#ff0;stroke:none" d="M874.642-292.435c-.255.399-.435.847-.494 1.376-.305 2.718 2.324 6.022 5.872 7.368 1.318.5 2.566.66 3.644.525a8.73 8.73 0 0 1-2.081-.52 10.58 10.58 0 0 1-3.243-1.97c-2.424-1.625-4.024-4.127-3.784-6.272.02-.17.046-.35.086-.507z"/><path style="color:#000;font-style:normal;font-variant:normal;font-weight:400;font-stretch:normal;font-size:medium;line-height:normal;font-family:Sans;-inkscape-font-specification:Sans;text-indent:0;text-align:start;text-decoration:none;text-decoration-line:none;letter-spacing:normal;word-spacing:normal;text-transform:none;writing-mode:lr-tb;direction:ltr;baseline-shift:baseline;text-anchor:start;display:inline;overflow:visible;visibility:visible;fill:url(#B);fill-opacity:1;fill-rule:evenodd;stroke:none;stroke-width:10;marker:none;enable-background:accumulate" d="M887.594-282.505c-56.158 59.939-92.227 135.1-118.037 210.172a869.475 869.475 0 0 0-29.006 109.299l1.748.57c.265-11.52 4.142-25.2 6.992-37.572 24.35-101.848 71.76-207.487 140.216-283.012Z"/><path d="M743.116 37.81c-.56 1.187-3.112 2.057-6.172 2.057-3.036 0-5.584-.859-6.172-2.033-.068.153-.124.311-.124.471 0 1.426 2.827 2.578 6.296 2.578 3.47 0 6.296-1.152 6.296-2.578 0-.169-.048-.335-.124-.496z" style="color:#000;font-style:normal;font-variant:normal;font-weight:400;font-stretch:normal;font-size:medium;line-height:normal;font-family:Sans;-inkscape-font-specification:Sans;text-indent:0;text-align:start;text-decoration:none;text-decoration-line:none;letter-spacing:normal;word-spacing:normal;text-transform:none;writing-mode:lr-tb;direction:ltr;baseline-shift:baseline;text-anchor:start;display:inline;overflow:visible;visibility:visible;fill:url(#C);fill-opacity:1;fill-rule:evenodd;stroke:none;stroke-width:10;marker:none;enable-background:accumulate"/></g></svg>